<?xml version="1.0" standalone="no"?>
<!DOCTYPE svg PUBLIC "-//W3C//DTD SVG 1.1//EN" "http://www.w3.org/Graphics/SVG/1.1/DTD/svg11.dtd" >
<svg xmlns="http://www.w3.org/2000/svg" xmlns:xlink="http://www.w3.org/1999/xlink" version="1.1">
<metadata></metadata>
<defs>
<font id="aint_nothing_fancyregular" horiz-adv-x="1236" >
<font-face units-per-em="2048" ascent="1638" descent="-410" />
<missing-glyph horiz-adv-x="827" />
<glyph horiz-adv-x="0" />
<glyph horiz-adv-x="682" />
<glyph unicode=" "  horiz-adv-x="827" />
<glyph unicode="&#x09;" horiz-adv-x="827" />
<glyph unicode="&#xa0;" horiz-adv-x="827" />
<glyph unicode="!" horiz-adv-x="368" d="M63 1325v43q0 25 4.5 69t7.5 90t7 82t4 44q0 2 5 21.5t11.5 44t12.5 50t10 41.5q6 23 20.5 29t36.5 6q41 0 72 -30.5t31 -63.5q0 -29 -4.5 -50.5t-20.5 -55.5q-2 -14 -6 -49t-7 -74t-6 -74t-3 -47v-94q0 -33 -1 -78t9 -80q0 -20 -1 -70.5t-1 -107t1 -106.5t1 -70 q2 -68 12 -136.5t10 -140.5q0 -25 -14 -45t-53 -20q-12 0 -17.5 1t-19.5 9q-25 23 -46.5 40t-23.5 48q0 6 -1 25.5t-2 41t-3 41t-2 23.5q0 6 -2 22.5t-4 35t-5 33.5t-3 22v426q-6 31 -7.5 53t-1.5 51zM156 117q0 23 9 43t44 20q45 0 87 -30.5t42 -69.5q0 -25 -24.5 -43.5 t-53.5 -18.5q-14 0 -30.5 8.5t-30 19.5t-24.5 22.5t-15 17.5q0 4 -2 15.5t-2 15.5z" />
<glyph unicode="&#x22;" horiz-adv-x="679" d="M55 1460q0 23 12.5 35t28.5 12q35 0 77 -28.5t78 -71.5t59.5 -94t23.5 -94q0 -41 -14.5 -79t-38 -69t-53 -49t-62.5 -18q-29 0 -57.5 20t-28.5 61q0 16 20.5 33t45 36.5t45 45t20.5 60.5q0 2 -1 7t-1 7q-4 6 -20.5 25.5t-20.5 25.5q-14 16 -33.5 23.5t-37 17.5t-30 30.5 t-12.5 63.5zM356 1477q0 45 31 57q4 0 19.5 1t19.5 1q45 0 89 -28.5t79 -73.5t55.5 -102.5t20.5 -112.5q0 -43 -12.5 -87.5t-36 -80t-55 -59t-68.5 -23.5q-29 0 -55.5 23.5t-26.5 58.5q0 25 19.5 43t43 39.5t43 51t19.5 72.5q0 55 -19.5 77t-47.5 33t-57.5 24.5t-47.5 50.5 q-6 12 -9.5 18t-3.5 17z" />
<glyph unicode="#" horiz-adv-x="1198" d="M-37 909q0 47 24.5 54.5t63.5 11.5q8 0 26.5 2t39 3t39 2t26.5 1l6 10q0 2 1 33t3.5 73t4.5 85t2 69q2 8 2 29v43.5v41.5t-2 26q6 20 14 28.5t25 8.5q25 0 58.5 -18.5t33.5 -51.5v-232q-8 -27 -9.5 -49t-1.5 -49q0 -8 1.5 -21.5t1.5 -15.5l12 -10h18q106 0 213 3t213 7 q10 0 13.5 14.5t3.5 22.5v371q0 12 14 23.5t25 11.5q27 0 59.5 -21.5t32.5 -54.5v-361h260q2 0 17.5 -12t21.5 -18q16 -16 20 -31.5t4 -38.5q0 -27 -25.5 -39t-43.5 -12q-2 0 -14.5 1t-27 2t-26.5 2t-14 1t-17.5 1t-25.5 1q-6 0 -22.5 -1t-18.5 -1q-8 0 -22.5 -1t-28 -2 t-23.5 -2l-10 -1l-12 -12l8 -340l4 -13q2 0 16.5 -1t24.5 -1q57 0 111.5 3t111.5 3h39q6 -4 26.5 -25.5t22.5 -39.5v-16.5t-4 -24.5t-10 -22.5t-19 -10.5l-313 -10l-10 -8q-2 -37 -4 -72q-2 -29 -3 -60.5t-1 -54.5v-14q0 -6 -2.5 -25.5t-4.5 -41t-4 -40t-2 -26.5 q0 -16 -23.5 -25.5t-33.5 -7.5q-41 8 -57.5 31.5t-16.5 62.5q0 55 8.5 111.5t8.5 114.5q0 8 -1.5 19t-1.5 13l-4 15l-20 1q-19 1 -45.5 2t-55 2t-47.5 3h-53h-57q-23 -2 -54.5 -3t-62.5 -3q-37 -2 -74 -2l-14 -15q0 -10 -1 -37.5t-2 -58.5t-2 -58.5t-1 -39.5q0 -2 -1 -11.5 t-1 -19.5t-1 -20.5t-1 -14.5q-2 -10 -5 -27.5t-16 -23.5q-2 0 -11 -1t-13 -1q-31 0 -52.5 9t-31.5 44v58q0 39 3 75.5t3 77.5v2q0 10 -2 23.5t-4 17.5l-4 4l-2 2h-66q-6 0 -14 10.5t-14.5 23.5t-11.5 27.5t-5 22.5q0 39 15.5 50.5t36 13.5t42 1t35.5 13q2 0 5 12.5t3 20.5 l1 18q1 17 2 40.5l2 47t1 39.5v2v7q-2 16 -2 41.5t-2 50.5q-2 29 -2 59l-8 6h-158q-12 0 -22 10.5t-17.5 23.5t-10.5 28.5t-3 25.5zM315 502q0 -18 11.5 -21.5t27.5 -3.5h404q20 0 25 14.5t5 30.5v307q0 4 -3 10.5t-7 8.5h-20.5t-30.5 1t-29.5 1h-19.5q-72 0 -149.5 -2 t-149.5 -6q-10 -2 -31.5 -6.5t-25.5 -6.5l-7 -8v-319z" />
<glyph unicode="$" d="M-57 193q0 18 12 28t28.5 15.5t36 7.5t33.5 2q45 0 91 -14.5t93.5 -32t96.5 -31.5t98 -14q29 0 31 17t2 46q2 2 2 15.5v28.5t-1 28.5t-1 17.5q2 10 3 49t3 83t3 83t1 49v4v5q0 6 -1 21t-3 32.5t-3 33t-3 21.5q-31 23 -72 34t-76 28q-43 18 -81.5 52t-68.5 76t-47.5 88 t-17.5 89q0 25 11.5 59.5t29 70.5t40 64.5t44.5 40.5l230 123q20 6 42.5 14.5t37.5 24.5q2 12 9 41t14 60.5t13.5 60t8.5 39.5q6 25 9 42t11 28.5t23.5 17.5t44.5 6q37 0 72.5 -14.5t35.5 -53.5q0 -53 -19.5 -104t-19.5 -100q0 -14 21 -23q47 2 97 2t99.5 -5t96.5 -19.5 t86 -40.5q12 -8 24.5 -15.5t12.5 -21.5q0 -18 -25 -32.5t-43 -14.5q-8 0 -21.5 6t-29 13t-29.5 15.5t-22 12.5q-2 2 -8.5 5t-10.5 3h-248l-18 -17q-2 -47 -6 -88q-4 -35 -6 -72.5t-2 -62.5q-8 -84 -13.5 -166t-5.5 -163v-19l19 -8q12 0 40.5 1t60.5 1t61.5 -1t41.5 -1 q63 -2 121 -34t102 -80t69.5 -104.5t25.5 -107.5q0 -137 -76 -233t-217 -150q-49 -23 -105.5 -40t-109.5 -23q-6 -2 -14.5 -2t-16.5 -2l-20 -4l-25 -269q-2 -4 -8 -11t-14.5 -15t-15.5 -14.5t-9 -8.5h-35q-125 0 -125 111q0 43 10.5 84t10.5 86q0 6 -1 26.5t-1 26.5 q-6 8 -22.5 14t-33 9.5t-32 4.5t-19.5 3q-8 2 -25.5 6t-38 9t-37 10t-22.5 7q-6 0 -28.5 6.5t-48 14.5t-47 15t-27.5 10q-20 6 -44 11t-43.5 13t-32.5 21.5t-13 38.5zM281 1065q0 -31 13 -73t37.5 -78.5t60.5 -62.5t79 -26q8 0 16.5 2t6.5 15q10 84 15 161.5t5 161.5v25 l4 123h-6q-14 0 -40 -14.5t-51.5 -33t-48 -38t-30.5 -29.5q-4 -6 -13.5 -21.5t-19.5 -33t-18 -32.5t-10 -21v-25zM670 137q2 0 4 -2t2 -3t2 -3h6q8 0 32.5 7t33.5 9q57 18 109 45t91 64t61.5 84t22.5 104q0 33 -11 69t-32.5 65.5t-54.5 48t-76 18.5h-12q-10 -2 -32.5 -3 t-47.5 -2t-48.5 -2t-31.5 -1q-4 -4 -11 -12.5t-7 -12.5v-473z" />
<glyph unicode="%" horiz-adv-x="1310" d="M35 1112q-4 49 25.5 94t75.5 81t100.5 56.5t101.5 20.5q55 0 107.5 -22.5t92.5 -60.5t64.5 -86t24.5 -99q0 -47 -24.5 -89t-62.5 -76t-87.5 -53.5t-98.5 -19.5q-53 0 -108.5 20.5t-101.5 56.5t-76.5 82t-32.5 95zM180 1077q0 -18 14.5 -32.5t35 -25.5t43 -16.5t40.5 -5.5 q33 0 64 13.5t54.5 37t36.5 53t13 60.5q0 14 -13 26.5t-31.5 22t-37 14.5t-30.5 5q-29 0 -62 -12.5t-61.5 -34t-47 -49t-18.5 -56.5zM215 78q0 10 1 15t7 13l555 1020q16 16 16.5 21.5t12.5 21.5q4 6 19.5 32t33 53.5t33.5 52t20 30.5q6 12 11.5 29.5t11.5 32t18.5 25 t34.5 10.5q41 0 62.5 -29t21.5 -64q0 -23 -10 -44t-19 -37q-8 -12 -24 -40t-33.5 -59t-33 -57.5t-21.5 -34.5q-29 -47 -69 -99t-56 -106l-301 -563q-2 -16 -12.5 -36.5t-22.5 -41t-25.5 -41t-21.5 -35.5l-10 -20t-17.5 -34.5t-17.5 -35t-10 -20.5q-10 -20 -23.5 -23.5 t-38.5 -3.5q-31 0 -61.5 17.5t-30.5 50.5zM653 176v17.5t2 11.5q2 8 6.5 24.5t10.5 33t10 29.5t6 15l90 109q14 16 38 31.5t51.5 26.5t56 18.5t51.5 7.5q35 0 68.5 -5.5t68.5 -13.5q6 -2 32.5 -6t37.5 -8q59 -27 85.5 -84t26.5 -111v-43q-33 -63 -63.5 -111t-71.5 -80 t-98 -48.5t-143 -16.5q-45 0 -92.5 15.5t-85.5 42t-62.5 64.5t-24.5 81zM793 162q0 -16 11 -28.5t28.5 -20t36 -10.5t32.5 -3q78 0 131 32t88 91q10 16 19.5 34.5t9.5 39.5q0 35 -20.5 45t-51.5 23q-12 4 -20 11t-23 7q-45 0 -84 -20.5t-70.5 -51t-54 -67.5t-32.5 -70v-12z " />
<glyph unicode="&#x26;" horiz-adv-x="1394" d="M49 281q-10 51 3.5 106t41.5 102q18 29 43 63t47 56q4 4 22.5 20.5t38 35t38 36t22.5 21.5q14 8 12 20l-2 7q-80 57 -122 141q-2 6 -6.5 28.5t-6.5 30.5q-4 16 -9 44t-1 50q18 76 74.5 138.5t133.5 110.5t165 79t168 43q113 16 217 -24.5t170 -126.5q0 -4 3 -22.5 t5 -25.5q6 -35 5 -74.5t-24 -68.5q-53 -66 -128.5 -121t-151.5 -100q-6 -2 -24.5 -11.5t-39 -19.5t-38 -20.5t-21.5 -12.5q-8 -4 -32.5 -20t-35.5 -23l-6 -6v-4v-2q25 -16 47.5 -28.5t47.5 -24.5q6 -4 34.5 -19.5t60 -33t60.5 -32.5t37 -20q2 -2 18.5 -12t35 -21.5t36 -22.5 t21.5 -13q16 -10 21 -14.5t20 -0.5q20 2 32.5 29t21.5 56.5t16 54t16 26.5q39 6 82 -7t51 -54q4 -23 -8.5 -45.5t-29 -45t-29.5 -44t-9 -39.5q2 -16 29.5 -22.5t61.5 -15.5t63.5 -24.5t35.5 -48.5q2 -16 -4 -32.5t-28 -20.5q-29 -4 -57.5 3t-55.5 17.5t-50.5 17.5t-43.5 5 q-23 -4 -44.5 -22.5t-42 -43t-40 -48t-35.5 -35.5q-88 -66 -170 -108t-195 -58q-23 -4 -38 -6.5t-27 -3.5t-25.5 -1h-33.5q-59 2 -132 31t-138.5 73t-114 97.5t-58.5 106.5zM209 276q4 -25 30.5 -53t62.5 -54t73 -45.5t61 -21.5q78 -6 148 2q82 12 140 47t124 78l131 138 l-4 12q0 2 -18.5 14.5t-44 28.5t-52 32.5t-45.5 26.5q-8 6 -35.5 20.5t-60.5 32t-64.5 34t-48.5 22.5q-25 12 -60.5 32.5t-68.5 16.5q-39 -6 -88 -50t-91 -100.5t-68.5 -116t-20.5 -96.5zM336 913q2 -12 14 -29.5t28.5 -32.5t35 -24.5t35.5 -7.5h4q4 0 6 2q57 39 119.5 75 t124 72t119 76.5t104.5 94.5q4 6 13 17t9 13l-12 70q-4 16 -28.5 25.5t-55.5 13.5t-58.5 3t-37.5 -3q-66 -10 -126.5 -31.5t-119.5 -48.5q-25 -12 -52.5 -36.5t-39.5 -37.5q-53 -47 -73.5 -94t-8.5 -117z" />
<glyph unicode="'" horiz-adv-x="507" d="M92 1493q0 4 1 15.5t1 15.5q14 31 53 30q53 0 110.5 -19t106 -55t79 -86.5t30.5 -111.5q0 -27 -24.5 -67.5t-60.5 -80.5t-75 -69t-69 -29q-18 0 -40 5.5t-41.5 16.5t-32.5 26t-13 38q0 20 28.5 44t64.5 49.5t64.5 54t28.5 61.5q0 27 -32.5 35t-72.5 19.5t-73 33t-33 74.5 z" />
<glyph unicode="(" horiz-adv-x="829" d="M8 684q-12 147 9.5 282.5t62.5 274.5q18 63 60 128t98.5 118t120 92t124.5 53q20 -2 42 2t43.5 10.5t43 11.5t43.5 7q8 2 31 2t29 2q27 -6 57.5 -27.5t32.5 -50.5q2 -12 -7.5 -23.5t-19.5 -17.5q-111 -10 -192.5 -47t-163.5 -98q-80 -59 -127 -136t-72.5 -163t-36 -180.5 t-16.5 -188.5q2 -8 3 -30.5t3 -26.5q4 -59 16.5 -117.5t40.5 -111.5q2 -2 10.5 -13.5t18.5 -25t19.5 -25.5t13.5 -16t13 -21.5t11 -21.5q37 -33 64 -58.5t68 -44.5q43 -23 95 -35t99 -18q18 -2 52 0t55 -12q2 -2 10 -9.5t17 -14.5t17.5 -14t12.5 -9q2 -4 2 -12.5t2 -12.5 q2 -29 -15.5 -43t-43.5 -18q-35 -4 -61.5 2t-59.5 12q-33 8 -73 10t-73 14q-199 82 -329 243t-150 378z" />
<glyph unicode=")" horiz-adv-x="804" d="M-18 117q2 16 19 24.5t32 10.5q29 4 57.5 5t56.5 9q80 23 167 64.5t161 99t124 131.5t58 162q8 102 3 212.5t-34.5 217t-86 201t-148.5 163.5q-33 25 -90 34t-112.5 22.5t-94.5 39t-33 80.5v13q0 4 2 6q0 4 13.5 13l19.5 13h2h6q33 -6 71 -13t77 -15t76 -19.5t67 -27.5 q51 -25 103.5 -69t87.5 -85q129 -150 190.5 -314.5t54.5 -357.5q0 -31 2.5 -77t0.5 -80q-6 -53 -27 -121t-55 -111q-92 -113 -210 -188.5t-253 -128.5q-37 -16 -66.5 -23.5t-66.5 -3.5q-16 2 -46 10.5t-60 22.5t-50 34.5t-18 45.5z" />
<glyph unicode="*" horiz-adv-x="933" d="M-45 1092.5q0 3.5 10 9.5l31 4l31 2q2 0 17 -1t33.5 -1t32 -1t17.5 -1l27 2q2 0 10 -2t10 -4q8 0 37 2t37 2q10 0 15 1t9 -3l62 4l6 10l-98 270q8 2 4 5.5t-4 11.5v4l2 2l-6 27q0 4 3 8t5 4l16 2q18 2 35.5 0t30.5 -8q2 -2 10 -9.5t14 -5.5q8 0 5 13.5t-7 28t-3 28.5 t20 14q27 2 46 -4t42 -18q14 -10 20 -18.5t8 -18.5q6 -20 5 -33.5t4 -34.5q0 -20 3 -40.5t3 -45.5q2 -2 3 -9t0 -16t0 -16.5t1 -9.5v-2l4 2l10 10q6 2 8 8.5t4 10.5l9 12q10 18 26.5 33.5t26.5 30.5l-2 4q12 39 35.5 67.5t46.5 59.5q0 6 6 11t18 7q31 2 66 -13t41 -38 q4 -10 -2 -21.5t-13 -19.5q-4 -2 -10 -9t-12 -9q2 -2 -1 -3.5t-5 -3.5q-10 -6 -16.5 -16t-10.5 -16q0 -2 -1 -7.5t-3 -5.5q0 -2 -4 -4t-4 -4q-14 -8 -19.5 -19.5t-13.5 -25.5q-8 -2 -16 -16.5t-13 -20.5q-12 -16 -26.5 -31.5t-28.5 -31.5q-12 -14 -22.5 -30.5t-20.5 -31.5 l8 -4q8 0 28.5 2t27.5 2q111 0 219 -8q6 -2 8 -2q4 -2 6 0q10 -2 34.5 -3t31.5 -3l2 -10q6 -10 4 -13.5t-6 -4.5t-8.5 -1t-4.5 -6q-14 0 -29.5 -1t-25.5 -7l-158 -12q-12 -8 -26.5 -9.5t-26.5 -1.5l-25 -2l-8 7l-71 -7q-4 -2 -6.5 -6t-4.5 -4q2 -10 5.5 -21.5t9.5 -23.5 q2 -4 4 -17.5t9 -31.5t9 -33.5t4 -15.5l6 -17l3 -12l6 -4l6 -4q6 -14 10 -29.5t18 -29.5q2 0 7.5 -2.5t5.5 -4.5q8 -4 13 -13t7 -15q6 -16 -2 -20.5t-22 -14.5v-4q-2 -2 -2 -4q0 -14 2 -26.5t1 -23t-9.5 -20.5t-28.5 -20h-6h-6q-4 2 -16.5 13t-14.5 13q-2 4 -4 6q-6 2 -6 4 v3l-2 2q0 2 1 9t-1 9l-3 8q2 4 -1 19.5t-5 17.5l-12 41l-18 43q-2 8 -11.5 34.5t-19.5 33.5q-4 4 -7 14t-10.5 22.5t-14.5 22.5t-11 10v-2q-12 -8 -13 -13t-8 -15q0 -4 -11 -13.5t-15 -9.5q-2 0 -4 -8t-2 -10l-7 -7q-6 -8 -8 -10q0 -2 -5 -10t-5 -10q0 -6 -6 -8.5t-10 -6.5 l-9 -6q-2 -10 -9 -17t-13 -16q-2 -4 -11.5 -19t-18.5 -31.5t-17 -31t-10 -18.5q-6 -8 -17.5 -12t-9.5 -19q-6 2 -11 9.5t-14 9.5h-4q-2 0 -4 1l-6 3q-4 0 -10 4q-2 2 -10.5 11t-14.5 14v6q-2 10 0 24q4 6 14.5 23.5t22.5 37t22.5 37t14.5 23.5q0 4 6 11.5t8 9.5q2 4 8.5 11 t8.5 7q6 4 13 17.5t9 17.5q6 6 16.5 17.5t21.5 25.5t16.5 26.5t1.5 22.5q-6 0 -17.5 -2t-25 -4t-25.5 -3t-18 -1h-11.5h-11.5h-3h-5h-8q-2 0 -7.5 -2t-9.5 -2h-8h-8l-8 2l-29 -2q-16 0 -30.5 2t-26.5 2q-8 0 -30 4t-26 4q-2 4 -8 6q-16 12 -29.5 25.5t-17.5 29.5 q-4 6 -4 9.5z" />
<glyph unicode="+" horiz-adv-x="956" d="M51 514q0 16 14.5 32.5t32.5 16.5h291q16 0 22.5 16.5t4.5 26.5q2 18 6 66.5t9 100.5t9 100.5t4 66.5q4 31 15.5 57.5t52.5 26.5q33 0 57.5 -19.5t42 -47t26.5 -59.5t9 -54q0 -29 -9 -65t-11 -62v-27.5v-42t1 -43t1 -29.5q45 0 85 3.5t83 3.5q18 0 37.5 -13.5t37 -33 t27.5 -41t10 -37.5v-4l-8 -17q-6 -4 -19.5 -11t-26.5 -13t-23.5 -10.5t-12.5 -4.5h-203q-12 0 -17 -13t-7 -29.5t-2 -33v-24.5q0 -59 5 -119.5t5 -120.5q0 -29 -20.5 -43t-49.5 -14q-43 0 -68.5 16.5t-38.5 43t-17.5 58.5t-6.5 62q0 10 -2 37t-3 56.5t-3 56t-2 37.5l-8 18 q-41 -2 -97.5 -3t-108.5 9t-88 38t-36 85z" />
<glyph unicode="," horiz-adv-x="649" d="M129 205q0 29 26.5 36t49.5 7q51 0 103 -27.5t99.5 -68.5t85 -91.5t56.5 -93.5q0 -6 1 -29.5t1 -29.5q0 -57 -24.5 -110.5t-65.5 -93.5t-95.5 -63.5t-111.5 -23.5q-16 0 -36.5 7t-38 19.5t-30 29t-12.5 34.5q0 37 32 62.5t69.5 49t69.5 50.5t32 68q0 39 -33 60 t-72.5 43.5t-72.5 58.5t-33 106z" />
<glyph unicode="-" horiz-adv-x="974" d="M106 530q0 27 6.5 59t28.5 32q43 0 87 -6.5t87 -8.5q49 -4 123 -8t146 -8q82 -6 172 -8l41 -64q6 -8 6 -30.5v-28.5q0 -4 -1 -8.5t-1 -8.5v-10l-15 -22q-2 -2 -6 -2h-12q-154 0 -303 15t-303 9q-29 4 -42.5 30.5t-13.5 67.5z" />
<glyph unicode="." horiz-adv-x="483" d="M135 166q0 14 7.5 32.5t19.5 34t28.5 25.5t34.5 10q25 0 50.5 -16t48 -41t37 -52.5t14.5 -52.5q0 -35 -18.5 -70.5t-59.5 -35.5q-31 0 -60.5 14.5t-52 38t-36 53t-13.5 60.5z" />
<glyph unicode="/" horiz-adv-x="858" d="M-4 96q0 23 2 32t14 32q53 90 109.5 174t105.5 174q2 4 12.5 23.5t21.5 41t21.5 40t12.5 22.5q0 2 4 6t6 4q12 25 40 85.5t59.5 128t60.5 128t39 84.5q4 12 22.5 59.5t40 101.5t39 101t21.5 60q2 6 13 30.5t24.5 53t24.5 52t16 30.5q2 8 5 21t7 25.5t11 21.5t22 9 q18 0 43.5 -6t48 -19.5t38 -34t15.5 -48.5v-19l-184 -444q-2 -6 -11.5 -25.5t-13.5 -25.5q-12 -25 -38.5 -85.5t-57.5 -128t-57.5 -128t-38.5 -84.5q-23 -27 -31 -60.5t-35 -56.5l-274 -467q-4 -8 -21 -14q-8 -4 -20 -6h-4q-41 0 -77 30.5t-36 81.5z" />
<glyph unicode="0" horiz-adv-x="1302" d="M86 588q0 106 19.5 211.5t60.5 203t103.5 182.5t148.5 150q72 55 151.5 90t171.5 35h62q78 -27 146.5 -86t121.5 -117q29 -47 55.5 -90t46 -88t32 -92t12.5 -104q0 -129 -26 -261.5t-85 -248.5q-37 -74 -93.5 -140.5t-125 -116.5t-149.5 -81t-167 -31q-127 0 -219 46 t-151.5 126t-87 185.5t-27.5 226.5zM215 545q0 -90 25.5 -159.5t68.5 -149.5q47 -51 96.5 -68.5t114.5 -17.5q141 0 246.5 71.5t174.5 181t102.5 241.5t33.5 255q0 74 -19.5 130t-56 100.5t-89 77t-117.5 57.5q-29 10 -43.5 20t-46.5 10q-33 0 -54.5 -11t-50.5 -26 q-98 -49 -171 -126.5t-120 -173t-70.5 -201t-23.5 -211.5z" />
<glyph unicode="1" horiz-adv-x="376" d="M74 1237v33.5t1 50.5t1 50.5v33.5q12 23 24.5 27t32.5 4q18 0 29.5 -2t21 -8.5t18.5 -14.5t23 -20q8 -6 20.5 -20.5t12.5 -16.5v-365q2 -4 5 -18.5t5 -18.5q25 -199 29 -395.5t4 -396.5q0 -12 2 -36t1 -49.5t-8 -47t-28 -27.5h-37q-39 0 -62.5 13.5t-35.5 35t-16 49 t-4 56.5v8q0 14 1 73.5t2 127t2 127t1 73.5v29q0 80 -7.5 161t-15.5 160.5t-15 160.5t-7 163z" />
<glyph unicode="2" horiz-adv-x="942" d="M90 156q0 33 23.5 56.5t56.5 39.5q94 82 189.5 180t172 208t123.5 229.5t47 248.5q0 27 -5 56.5t-17 52t-34.5 38t-57.5 15.5q-25 0 -58.5 -10t-64.5 -27.5t-51.5 -42t-20.5 -55.5q0 -27 8.5 -51.5t19.5 -48t19.5 -46t8.5 -45.5t-10.5 -29.5t-39.5 -6.5q-45 0 -76.5 30.5 t-51 73.5t-29 90t-9.5 80q0 57 26 101t68 75t95 46.5t108 15.5q82 0 143.5 -30t103.5 -79t63.5 -113.5t21.5 -134.5q0 -154 -60.5 -290t-146.5 -265q-8 0 -8 -8q-72 -94 -152.5 -176t-158.5 -172l8 -6q2 0 11.5 -1t21.5 -1h25.5h21.5q68 0 133.5 8t132.5 8q18 0 57 -6 t77 -20.5t62.5 -37t16.5 -55.5q-4 -4 -16.5 -20.5t-18.5 -24.5q-6 -6 -16 -6q-29 0 -53.5 8t-53.5 8q-72 0 -139 -9t-137 -9h-24.5t-35 1t-35 1h-22.5q-31 6 -76 16.5t-87 28.5t-70.5 45t-28.5 66z" />
<glyph unicode="3" horiz-adv-x="1015" d="M70 223q0 16 4 26.5t22 10.5q27 0 44.5 -17.5t39.5 -25.5q66 -31 121 -53.5t127 -22.5q61 0 131 21.5t128 59.5t96 92.5t38 119.5q0 90 -59.5 150.5t-144.5 99.5t-179 61.5t-164 34.5q-45 20 -66.5 35.5t-21.5 63.5v12q16 29 45 35t58 16q31 10 75 38t84.5 62.5 t70.5 71.5t30 68q0 33 -21.5 66.5t-60.5 33.5q-25 0 -35 -9t-18 -21.5t-19.5 -21.5t-36.5 -9q-41 0 -74.5 29.5t-33.5 68.5q0 31 14.5 53.5t37 35.5t51 19.5t57.5 6.5q55 0 108 -26t94 -67t67 -93t26 -105t-29 -97.5t-62.5 -78t-61.5 -57t-28 -33.5q0 -12 13.5 -21.5 t32 -15.5t36 -11.5t27.5 -11.5q70 -39 134 -83t112.5 -98t77 -119.5t28.5 -147.5q0 -80 -51 -147.5t-128 -119t-164 -80t-159 -28.5q-45 0 -114.5 15.5t-136 45t-114.5 72.5t-48 96z" />
<glyph unicode="4" horiz-adv-x="1015" d="M16 764q0 123 38 233.5t75 227.5q4 18 5 50t6 63.5t17.5 56t41.5 28.5q18 2 34.5 -7t31 -23.5t22.5 -33t8 -32.5q0 -68 -20.5 -136.5t-46 -137t-46 -135t-20.5 -132.5v-13t8 -11q4 -2 20.5 -4t22.5 -4q133 -10 268 -27.5t271 -17.5h15t15 6v53q0 72 -4 142.5t-4 142.5 q0 43 2 74.5t6 84.5q4 4 13.5 19.5t21.5 13.5q43 -4 77 -34.5t34 -75.5q0 -33 -4 -64t-4 -65v-21.5t1 -28t1 -24.5v-12q0 -12 1 -40t2 -58.5t2 -57.5t1 -35q2 -23 8 -41t13 -33.5t12.5 -31t5.5 -33.5q0 -23 -9.5 -34t-9.5 -34q0 -74 11.5 -144.5t11.5 -144.5v-100v-36.5 t-5 -44t-17.5 -37t-37.5 -15.5q-41 0 -67.5 21.5t-26.5 60.5q0 41 3 81t3 81q0 78 -7 152.5t-21 152.5q-10 27 -36 25.5t-48 0.5q-10 0 -45 3.5l-75 7.5t-76 7t-44 3q-61 4 -121.5 11t-124.5 14q-33 4 -69.5 11t-67.5 22.5t-51.5 42t-20.5 67.5z" />
<glyph unicode="5" horiz-adv-x="1105" d="M20 195q0 8 5.5 23t14.5 29.5t20.5 24t23.5 7.5q18 -4 33.5 -28t23.5 -32q41 -47 85 -68.5t106 -21.5q70 0 134 17.5t122.5 48t113 70.5t107.5 83q57 47 94 105.5t37 134.5q0 35 -15.5 67.5t-41 60t-56 49t-61.5 36.5q-39 16 -82 18t-84 2q-66 0 -132.5 -7t-125.5 -34 q-23 -10 -44.5 -25.5t-45.5 -15.5q-43 0 -67.5 23.5t-37 58.5t-14.5 73t-2 69q0 111 29.5 219t64.5 215q4 10 15.5 21.5t23.5 11.5q16 0 27.5 -5.5t22 -12.5t21.5 -12t25 -5q72 0 145 11t148 11q33 0 82 -3t95.5 -16.5t79 -40t32.5 -73.5v-12t-2 -10q-4 -4 -16.5 -13.5 t-22.5 -9.5q-8 0 -22.5 4t-27.5 9t-25.5 9.5t-16.5 6.5q-23 4 -51.5 5t-52.5 1q-53 0 -107.5 -5t-108.5 -14q-8 -2 -21 -5t-25.5 -5t-21.5 -4l-9 -2l-15 -12h-49q-10 0 -22.5 -37t-22.5 -84t-17 -90t-7 -53q0 -4 1 -13.5t1 -13.5q2 -6 6 -7t8 -1q59 0 117.5 14t117.5 14 q57 0 109.5 -4t105.5 -16q63 -14 123 -51t107 -89.5t75.5 -115t28.5 -127.5q0 -61 -18.5 -113.5t-49 -98.5t-72.5 -86t-89 -77q-14 -12 -36.5 -22.5t-33.5 -26.5q-94 -53 -187 -94t-206 -41q-109 0 -186.5 33.5t-151.5 109.5q-10 12 -19.5 26t-9.5 32z" />
<glyph unicode="6" horiz-adv-x="1007" d="M61 516v8q0 29 14.5 51.5t20.5 49.5q2 8 10.5 42.5t17.5 75.5t16 76t12 45l12 36t21.5 63.5t21.5 63.5l12 36q2 4 5 13t3 11q4 12 17.5 41t27 61t26.5 59.5t17 39.5q8 20 21.5 46t32 46.5t42 35t52.5 14.5q43 0 64.5 -31t21.5 -66q0 -12 -9.5 -21t-21.5 -16.5 t-25.5 -15.5t-19.5 -18q-2 -2 -7 -13.5t-10 -25t-10.5 -24.5t-5.5 -13q-39 -80 -71.5 -159t-59.5 -163q-10 -29 -23.5 -60.5t-13.5 -62.5q0 -4 1 -8t10 -6q49 25 106 30t111 5q92 0 177 -22.5t149.5 -68.5t103.5 -116t39 -164q0 -6 -1 -25.5t-1 -25.5q-23 -63 -70 -104 t-100 -82q-78 -61 -169 -114.5t-196 -53.5q-66 0 -121 25.5t-98 66.5t-73.5 93t-49.5 105q-18 51 -17 106.5t-5 106.5q0 2 -2.5 12.5t-4.5 14.5zM211 373q0 -10 1 -39t1 -39q8 -29 23.5 -61.5t38 -60.5t53 -46t67.5 -18q47 0 122 31.5t144.5 77.5t119.5 100.5t50 101.5 q0 61 -24.5 102t-64.5 65.5t-92 34t-107 9.5q-41 0 -85 -5t-87 -18.5t-80 -34t-64 -51.5q-14 -41 -15 -74.5t-1 -74.5z" />
<glyph unicode="7" horiz-adv-x="835" d="M-10 600q0 23 18.5 33t40.5 10q8 0 41 1t70 3t69.5 3t40.5 1h152l6 6q55 147 111.5 291t109.5 291v14v11.5t-8 9.5q-10 2 -41 4t-41 4h-28.5h-48h-47h-27.5q-72 2 -151 9t-153 3q-31 10 -57.5 33t-26.5 51q0 16 11.5 35t34.5 19h24q96 -6 188.5 -10.5t190.5 -8.5 q43 -2 103.5 -3t116.5 -11t95 -37t39 -78q0 -8 -3 -28.5t-9 -43t-13 -42t-14 -25.5q-8 -18 -27.5 -66.5t-41 -102.5t-41 -102.5t-25.5 -66.5q-4 -10 -11 -32.5t-16.5 -48.5t-16.5 -49.5t-9 -33.5q6 -14 19.5 -22.5t25.5 -17.5t22.5 -22.5t10.5 -39.5q0 -23 -17.5 -27t-40 -6 t-44 -10.5t-29.5 -38.5v-27q-14 -96 -30.5 -196.5t-37.5 -196.5q-4 -25 -19.5 -32t-43.5 -7q-35 0 -61.5 22.5t-26.5 51.5q0 25 9 50.5t13 51.5q4 31 12.5 79t15.5 96t12 84t5 40v45h-287q-43 0 -78.5 22.5t-35.5 57.5z" />
<glyph unicode="8" horiz-adv-x="1040" d="M6 289q0 76 30 144.5t77 129.5q4 4 16 18.5t16 18.5q53 49 90 80t91 65q14 4 14 19q-2 2 -4 2q-4 0 -4 2q-31 23 -57.5 52.5t-61.5 45.5q-49 53 -85 106.5t-36 125.5q0 70 42 131t105.5 107t140.5 73t146 27q66 0 123.5 -19.5t109.5 -50.5t98 -71t89 -78q27 -25 43.5 -57 t16.5 -66q0 -31 -3.5 -79t-23.5 -77q-29 -37 -71 -72t-90 -66.5t-97 -59t-88 -50.5q-10 -6 -15 -12q-2 -4 8.5 -13.5t12.5 -11.5q45 -35 89 -71.5t78 -77.5t54.5 -89t20.5 -106q0 -92 -47.5 -160.5t-133.5 -111.5q-25 -12 -55.5 -24.5t-58.5 -12.5h-180q-4 2 -11 4 q-4 2 -8 2t-8 2q-25 4 -50.5 6t-49.5 11q-47 14 -96.5 37.5t-88.5 56.5t-63.5 75t-24.5 95zM139 276q0 -53 35 -85.5t85 -51t107.5 -24.5t102.5 -6q127 0 203 57t76 174q0 6 -1.5 24.5t-1.5 24.5q-43 88 -121.5 155.5t-164.5 123.5h-2q-16 0 -35 -15.5t-29 -23.5 q-43 -31 -88 -70t-82 -84t-60.5 -94.5t-23.5 -104.5zM225 1067q0 -39 21.5 -74t52.5 -65.5t66.5 -56t66.5 -48.5q8 -6 25 -6h10q4 0 22.5 5t22.5 7h13.5h23.5h23.5h13.5t12 4.5t14 8.5l6 4q4 2 21.5 13t37 23.5t36 22.5t20.5 15q27 18 52.5 36.5t45 39t31.5 46t12 58.5 q0 4 -1 15t-1 15q-49 74 -134 125.5t-183 51.5q-43 0 -100.5 -19.5t-108.5 -53.5t-86 -77t-35 -90z" />
<glyph unicode="9" horiz-adv-x="917" d="M-20 1073q2 84 46 142.5t108.5 98.5t141 63.5t146.5 37.5q29 8 57.5 13.5t57.5 5.5q102 -4 166.5 -48.5t125.5 -123.5q10 -12 20.5 -23.5t14.5 -28.5q0 -8 -1 -30.5t-1 -28.5q-2 -72 -8 -142.5t-8 -142.5v-8l18 -459q-4 -72 -4 -144.5t2 -143.5q2 -10 6 -35t4 -39 q0 -12 -15 -31.5t-32 -15.5q-33 4 -57.5 21t-36.5 46q2 199 4 395.5t-26 395.5h-2q-2 2 -5 2q-49 -29 -85.5 -48.5t-73.5 -32.5t-78 -19.5t-98 -4.5q-68 2 -137.5 26t-126 66t-91.5 102t-32 134zM104 1036q0 -39 26 -68.5t62.5 -50t78.5 -33t73 -14.5q43 -4 84 8.5t80 28.5 q49 18 84 45t59.5 59.5t42 72.5t31.5 87v21q0 27 -12.5 45t-34 30.5t-46 19.5t-48.5 7q-51 2 -132 -16t-157 -53t-132.5 -83.5t-58.5 -105.5z" />
<glyph unicode=":" horiz-adv-x="413" d="M53 733q0 47 23.5 66.5t70.5 19.5q33 0 57.5 -16.5t41 -41t26 -53t9.5 -55.5q0 -31 -12.5 -62.5t-49.5 -31.5q-76 0 -121 51t-45 123zM135 166q0 14 7.5 32.5t19.5 34t28.5 25.5t34.5 10q25 0 50.5 -16t48 -41t37 -52.5t14.5 -52.5q0 -35 -18.5 -70.5t-59.5 -35.5 q-31 0 -60.5 14.5t-52 38t-36 53t-13.5 60.5zM135 166q0 14 7.5 32.5t19.5 34t28.5 25.5t34.5 10q25 0 50.5 -16t48 -41t37 -52.5t14.5 -52.5q0 -35 -18.5 -70.5t-59.5 -35.5q-31 0 -60.5 14.5t-52 38t-36 53t-13.5 60.5z" />
<glyph unicode=";" horiz-adv-x="540" d="M70 -317q0 33 33.5 62.5t74.5 60t75 64.5t34 77q0 35 -17.5 65.5t-37 60t-37 60.5t-17.5 68q0 27 20.5 46t47.5 19q51 0 100 -40t87 -97t60.5 -120.5t22.5 -108.5q0 -53 -24.5 -107.5t-66.5 -99.5t-94 -73t-108 -28q-45 0 -86 19.5t-67 58.5v13zM135 727q0 53 26.5 71.5 t80.5 18.5q27 0 48 -14.5t37.5 -37t25.5 -48t9 -47.5q0 -16 -2 -35t-8 -34t-19.5 -25.5t-33.5 -10.5q-31 0 -60.5 13.5t-53 36t-37 52t-13.5 60.5z" />
<glyph unicode="&#x3c;" horiz-adv-x="899" d="M57 659q0 23 27 39.5t39 24.5l379 391q6 8 22.5 29.5t35 43t34.5 39t22 17.5q14 0 31 -6t31 -15.5t24.5 -23.5t10.5 -29q0 -16 -3 -27.5t-16 -27.5q-61 -70 -130.5 -146.5t-139.5 -142.5l-12 -18l-168 -168v-2q0 -6 23.5 -24.5t53 -39t55 -37t30.5 -18.5q2 -2 16 -10 t30.5 -18.5t31 -18.5t18.5 -10q0 -2 5 -4t7 -2q0 -2 3 -4t3 -5q72 -47 148.5 -92t146.5 -100q14 -8 14 -29q0 -29 -18 -42t-45 -13t-60.5 17.5t-68.5 41t-67.5 49t-55.5 41.5q-68 47 -137.5 90.5t-138.5 90.5q-23 14 -53.5 28.5t-58.5 33t-48.5 42.5t-20.5 55z" />
<glyph unicode="=" horiz-adv-x="917" d="M106 604q0 27 6.5 58.5t28.5 31.5q43 0 87 -6t87 -8q49 -4 123 -8t146 -8q82 -6 172 -9l41 -63q6 -8 6 -30.5v-29.5q0 -4 -1 -8t-1 -8v-10l-15 -23q-2 -2 -6 -2h-12q-154 0 -303 15.5t-303 9.5q-29 4 -42.5 30.5t-13.5 67.5zM106 604q0 27 6.5 58.5t28.5 31.5q43 0 87 -6 t87 -8q49 -4 123 -8t146 -8q82 -6 172 -9l41 -63q6 -8 6 -30.5v-29.5q0 -4 -1 -8t-1 -8v-10l-15 -23q-2 -2 -6 -2h-12q-154 0 -303 15.5t-303 9.5q-29 4 -42.5 30.5t-13.5 67.5zM145 299v6q0 2 2 4l25 39l12 1q13 1 29 1h33.5h27.5q86 0 169 -9t169 -9q31 0 62 9t61 9 q2 0 5 -1t8 -1q23 -31 36 -63.5t13 -79.5q0 -14 -2 -22.5t-13 -16.5q-4 2 -22.5 2t-24.5 -2q-4 0 -22.5 -3t-22.5 -3q-78 0 -155.5 8t-155.5 8q-41 0 -82 -5t-82 -5q-16 0 -28.5 12t-21.5 32.5t-14.5 43t-5.5 45.5z" />
<glyph unicode="&#x3e;" horiz-adv-x="935" d="M63 1272q0 25 17.5 31t36.5 6q27 0 50 -11.5t46 -27t44.5 -32.5t39.5 -30q76 -51 140.5 -90t150.5 -80q23 -4 68.5 -21.5t92 -41t81 -52t34.5 -53.5q0 -23 -23.5 -54.5t-55 -64t-64.5 -59t-49 -37.5l-355 -376q-12 -12 -23 -34t-24.5 -42.5t-29 -35.5t-35.5 -15 q-35 0 -68 22t-33 59q0 43 29 83t57 69q12 14 46 50t71 76t71 75t46 49l22 27l199 198v4q0 8 -18.5 20.5t-43 23t-46 18.5t-27.5 12q-4 4 -24.5 15.5t-24.5 13.5t-18.5 9t-32 15t-31.5 15.5t-19 9.5q-6 4 -30.5 22.5t-54 39t-54 38t-31.5 21.5q-20 14 -42.5 26.5t-41 26.5 t-31 33.5t-12.5 48.5z" />
<glyph unicode="?" horiz-adv-x="1056" d="M0 1327q0 61 12.5 125t39 122t69.5 108.5t106 84.5q59 31 113.5 52.5t122.5 21.5q90 0 190.5 -42t184.5 -108.5t139 -150.5t55 -168q0 -86 -31.5 -152.5t-86 -116.5t-128 -85t-157.5 -55q-47 -12 -81 -22.5t-56.5 -28t-34 -46t-11.5 -75.5q0 -63 14.5 -126t14.5 -124 q0 -35 -15.5 -56.5t-53.5 -21.5h-17q-29 23 -45 35t-23.5 24.5t-9.5 30.5t-4 51q-4 47 -12 99.5t-8 101.5q0 94 22.5 144t67.5 78t109.5 44t150.5 45q104 35 168.5 105.5t64.5 173.5q0 68 -36.5 125t-94 99t-128 65.5t-138.5 23.5q-43 0 -89 -20.5t-86 -51t-70.5 -68.5 t-43.5 -73q-4 -12 -11 -32.5t-13 -40t-10 -34.5l-5 -14v-192q2 -6 10.5 -26.5t16.5 -43t14.5 -41t6.5 -22.5q0 -16 -12.5 -24.5t-28.5 -8.5q-31 0 -57.5 24.5t-43.5 42.5q-18 18 -28.5 49t-15.5 66t-6 70t-1 59zM334 119q0 47 55 47q18 0 39 -6t38 -17.5t28.5 -26 t11.5 -32.5q0 -31 -19.5 -48.5t-50.5 -17.5q-41 0 -71.5 33t-30.5 68z" />
<glyph unicode="@" d="M16 739q0 104 18.5 227.5t57.5 246t97.5 237.5t136 202t177 140t220.5 53h70q98 -39 168.5 -116.5t111.5 -178.5q4 -4 7 -14t3 -12q0 -4 -1 -26.5t1 -27.5q0 -2 6.5 -15l8.5 -17q37 -63 68.5 -117.5t45.5 -126.5v-137q0 -88 -4 -172t-20 -170q-2 -6 -4 -18.5t-6 -16.5 q-6 -23 -18.5 -60.5t-25 -76.5t-23.5 -71t-13 -38q-31 -86 -84 -163.5t-121 -138t-149.5 -96.5t-170.5 -36q-41 0 -78.5 13.5t-74.5 31.5q-94 45 -169 119t-127 165t-80 196t-28 214zM176 688q0 -115 35 -211t113 -182q45 -47 98 -85t119 -38q47 0 91 21.5t79 50.5 q98 76 164.5 176t105.5 215t55.5 238.5t16.5 248.5q0 74 -20.5 134.5t-52.5 115.5t-71 108.5t-75 110.5q-2 2 -5.5 12.5l-7.5 22.5t-10 23.5t-12 13.5q-18 8 -33.5 9t-36.5 1q-80 0 -153.5 -51t-135 -127t-107.5 -163t-73 -156q-45 -115 -64.5 -239t-19.5 -249zM236 688 q0 72 54 130.5t122 107.5q53 35 99 44t118 9q55 0 108.5 -19.5t98.5 -39.5h10q0 8 1 30.5t1 48t1 47t1 31.5q0 18 -8 57.5t-21.5 81t-32 77.5t-43.5 46q-4 0 -15 1t-15 1q-43 0 -85 -15t-79 -32q-72 -33 -116 -86t-58 -112q-4 -12 -4 -26.5t-3 -26t-14.5 -18.5t-36.5 -7 q-16 0 -34.5 14.5t-18.5 26.5v104q0 16 15.5 42t27.5 40q23 31 63 63.5t88 58.5t102 42t106 16q78 0 142 -34.5t95 -87.5q10 -16 15.5 -33t13.5 -33l43 -174q-2 -49 2 -98.5t4 -96.5q0 -16 -7 -72.5t-17.5 -120t-21.5 -115.5t-19 -60q-10 -6 -20.5 -7t-20.5 -1 q-29 0 -44.5 11t-24.5 24.5t-15.5 24.5t-14.5 11h-2q-63 -16 -117.5 -37.5t-123.5 -21.5q-59 0 -113.5 10t-95.5 32.5t-65.5 57.5t-24.5 84zM365 655q0 -41 39.5 -53t89.5 -12q39 0 85 12t89 30.5t81.5 42t67.5 46.5q16 12 19.5 32.5t3.5 37.5q0 20 -21.5 38.5t-52.5 33 t-64.5 22.5t-58.5 8q-57 0 -91 -17.5t-73 -50.5q-49 -41 -81.5 -76t-32.5 -94z" />
<glyph unicode="A" d="M68 522v68l61 604q6 59 33.5 144t66.5 171t86 159t95 108q45 35 99 50t109 15q35 0 72 -4t72 -14q4 0 6 -2l6 -6q10 -4 27.5 -15.5t21.5 -15.5q6 -6 21.5 -19.5t32 -28t30 -27.5t17.5 -17t15 -22.5t15 -24.5q84 -150 141.5 -317t61.5 -341v-209q0 -10 1 -28.5t2 -39 t3 -36t2 -19.5q2 -25 12.5 -42t10.5 -40q0 -18 -3 -28t-20 -31q0 -16 -2 -58t-3 -90.5t-2 -90.5t-1 -58q0 -4 1 -20.5t2 -36t3 -37t2 -21.5v-30v-31q-12 -16 -31.5 -24.5t-41.5 -8.5q-49 0 -72 29t-32 68.5t-9 85t-2 75.5v262l-14 17q-2 0 -26 3t-38 5q-96 4 -191.5 9 t-193.5 5h-158q-6 0 -19 -2t-28.5 -4t-29 -4t-17.5 -4q-20 -4 -22 -25v-45q0 -92 11 -179t28 -179q0 -2 2 -10.5t5 -19.5t5 -20t2 -12v-8v-6q-4 -8 -17.5 -21.5t-19.5 -17.5q-4 0 -12 -1t-13 -1q-39 0 -62.5 17.5t-36.5 45t-20.5 61.5t-13.5 65q-30 157 -30 315v10zM252 733 q0 -10 1 -17t9 -18h39q66 0 130 4.5t130 4.5q92 0 182.5 -12.5t184.5 -12.5h11t13 2q8 0 17 2l8 4q0 2 1 15.5t1 30t1 32.5t1 27q0 190 -29.5 361t-105.5 349q-10 23 -28.5 58.5t-43 69.5t-54.5 57.5t-65 23.5h-4q-6 0 -17 -3t-13 -5q-63 -27 -105.5 -64.5t-72 -86 t-51 -104.5t-44.5 -118q-2 0 -4 -5t-4 -7l-47 -188l-37 -377q0 -4 -2 -11.5t-2 -11.5z" />
<glyph unicode="B" horiz-adv-x="1187" d="M68 1511v41v63t1 63.5t3 41.5q10 31 60 53.5t112.5 38t122 22.5t88.5 7h84q43 -18 84 -27.5t82 -31.5q72 -37 124 -89.5t85.5 -116t49 -134t15.5 -142.5q0 -88 -22.5 -173t-90.5 -150q-29 -33 -64.5 -58.5t-64.5 -54.5q47 -29 102.5 -44t106.5 -42q111 -57 158 -155.5 t47 -210.5q0 -57 -19.5 -101.5t-56.5 -87.5q-20 -20 -45.5 -53t-50.5 -51q-74 -55 -174 -82t-209 -37q-99 -9 -196 -9h-20q-106 1 -190 1q-39 0 -75.5 21.5t-36.5 60.5q0 53 16.5 102t20.5 103q2 131 4 264t2 264v41q-16 168 -34.5 329.5t-18.5 333.5zM256 1339.5 q0 -18.5 1 -38t1 -34v-16.5t1 -14t3 -27.5t3 -30t1 -22.5q2 -12 4 -52t7.5 -84t14.5 -78t25 -34q2 0 5 2q2 0 3 1t3 1q98 14 183 42t146.5 76t97.5 119t36 169q0 61 -18.5 129t-55.5 125t-94.5 95t-133.5 38q-137 0 -223 -98q-8 -66 -9 -119t-1 -119v-30.5zM292 144.5 q-1 -7.5 9 -9.5q12 0 41 -1t61.5 -2t62.5 -2t40 -1h14h12q63 12 118 25.5t103 36t89 56.5t78 87q2 4 9 16t14 26.5t13.5 28t6.5 19.5q0 111 -50.5 175.5t-130.5 99t-177 45t-191 10.5h-78q-10 2 -15.5 -5.5t-8.5 -16.5t-3 -17v-10q0 -4 -2 -36t-5 -72l-6 -80t-3 -64v-7 q0 -41 4 -82.5t4 -82.5q0 -31 -4 -62t-4 -63q0 -4 -1 -11.5z" />
<glyph unicode="C" horiz-adv-x="1091" d="M-5 886q-1 27 -1 52q0 50 4 94q0 6 2 20.5t5 32t5 33t2 21.5q20 63 46 125.5t65 113.5q45 59 122 141.5t169 154t190 117.5q83 39 160 39q13 0 27 -1q20 -2 51.5 -11.5t61.5 -25.5t48.5 -39.5t16.5 -54.5q-2 -20 -17.5 -27.5t-36.5 -3.5q-16 2 -29.5 7t-29.5 7 q-13 1 -26 1q-29 0 -58 -6q-41 -9 -79 -26.5t-72.5 -40t-65.5 -46.5q-78 -59 -147.5 -122t-124 -135.5t-90 -156.5t-46.5 -184q-3 -28 -3 -56q0 -47 8 -91q14 -70 30 -144q16 -80 56.5 -149.5t93.5 -132t113.5 -118t119.5 -104.5q31 -27 59.5 -42t65.5 -19q14 -1 27 -1l55 5 q41 8 82 18q41 9 81 19q28 7 57 7q12 0 24 -1q29 -4 50 -22.5t17 -51.5q-4 -41 -47 -65.5t-100 -38.5q-56 -13 -116 -16q-26 -1 -47 -1q-28 0 -50 2q-61 6 -112.5 26.5t-97.5 50.5t-91 67.5t-90 78.5q-10 6 -30.5 28t-25.5 26q-6 8 -27.5 33.5t-46 57t-48 61.5t-33.5 44 q-41 51 -67.5 127t-41 159.5t-17.5 163.5z" />
<glyph unicode="D" horiz-adv-x="1253" d="M18 197q2 10 11.5 13t20.5 4t20.5 1t15.5 4q0 4 4 16.5t4 16.5q4 0 9.5 8t5.5 12l10 136l-21 815l21 409q-18 23 -30.5 41.5t-8.5 42.5q2 23 19.5 38t33.5 32q18 20 51 32.5t71 17.5t77 6h25q24 0 42 -1q123 -10 230.5 -63.5t199.5 -120.5q217 -159 326 -345 q91 -156 92 -353q0 -38 -4 -78q-6 -61 -14 -129t-25.5 -135.5t-47.5 -129t-79 -110.5q-57 -59 -151.5 -125t-204 -120t-223.5 -87q-96 -28 -179 -28q-15 0 -30 1q-88 8 -145.5 38t-104.5 94q0 4 -12.5 20.5t-8.5 26.5zM288 1234v-26q0 -25 1 -47l33 -741l-21 -215 q0 -4 10.5 -12.5t14.5 -8.5q2 0 16 3t18 3q33 10 72 23.5t78 29t77 32t70 34.5q109 59 180.5 115.5t115.5 124t65.5 151.5t32.5 197q4 38 4 75q0 171 -77 309q-93 167 -290 298q-57 37 -115.5 73t-132.5 40q-25 4 -58.5 1t-47.5 -26q-8 -20 -13.5 -48t-9.5 -55.5t-6 -54 t-4 -45.5q-2 -33 -5 -71.5t-5 -78.5t-3 -80z" />
<glyph unicode="E" horiz-adv-x="1204" d="M59 1288v6q2 29 4.5 101.5t5.5 154.5t5 155t2 101q4 8 8 15.5t10 11.5h168q117 0 228.5 -5t228.5 -5h150.5t154.5 10l10 10h2q18 0 45 -10t51.5 -26.5t42 -36t17.5 -39.5q0 -33 -11.5 -48.5t-29.5 -20.5t-43 -4t-49 1q-12 -2 -60.5 -4t-105.5 -3t-106.5 -2t-61.5 -1h-72 q-66 0 -127 5t-127 5h-114q-10 -6 -19.5 -13.5t-15.5 -17.5q0 -18 -1 -65t-3 -101.5t-4 -101.5t-2 -66v-22v-25q0 -18 2 -64t4 -98.5t3 -99.5t1 -65q2 -8 22 -9h13q78 20 166 32.5t174 12.5h82q6 0 20 -1t30.5 -3t31 -3t20.5 -3q6 0 18.5 -3t26.5 -6t25.5 -5t15.5 -2 q12 -4 32.5 -13.5t41 -21.5t35 -26.5t14.5 -30.5t-5 -38t-22 -32h-35q-35 0 -68.5 5t-68.5 11.5t-69 10.5q-17 2 -34.5 2t-35.5 -2q-8 0 -40 -4.5t-67.5 -10.5t-67.5 -11t-40 -7q-14 -2 -46 -6t-63.5 -11.5t-58.5 -15.5t-33 -20v-54q0 -98 12.5 -188t24.5 -195 q6 -29 22.5 -58.5t47.5 -37.5q12 -4 43.5 -9t67.5 -11t68 -10.5t44 -6.5h113h134t132 17q12 4 20 13t14.5 19.5t13.5 17.5t21 7q16 0 38 -10t40.5 -25.5t31.5 -35t13 -38.5q0 -37 -16 -57t-41 -32.5t-54.5 -17.5t-56.5 -9q-10 -2 -32.5 -4t-48 -4.5t-49 -4.5t-33.5 -4h-31 q-84 0 -167 10.5t-161 26.5q-61 10 -116.5 26.5t-100.5 45.5t-78 73.5t-49 112.5q-33 254 -52.5 509t-19.5 513z" />
<glyph unicode="F" horiz-adv-x="745" d="M41 1462v78t1 68.5t3 68.5t6 78q37 27 90.5 43.5t111.5 25.5t116.5 12t101.5 3q98 0 200.5 -12t196.5 -23q4 4 12.5 8.5t10.5 4.5q14 0 36.5 -10.5t44 -26t37 -33.5t15.5 -35q0 -20 -13.5 -48t-35.5 -28q-117 0 -230.5 11.5t-230.5 11.5h-117q-2 0 -15 -2t-28.5 -5 t-32 -5t-24.5 -5q-8 0 -24.5 -3t-33 -8t-30.5 -15t-16 -27v-157q0 -92 2 -185.5t20 -183.5q8 0 25.5 -1t37 -3t37 -3t23.5 -1q4 0 15.5 -3t13.5 -3q43 2 88 2q33 0 67 -1q78 -3 152 -22q14 -6 30.5 -14t32 -19.5t25.5 -27t10 -35.5q0 -37 -17.5 -51.5t-43.5 -14.5 q-109 0 -214.5 12.5t-209.5 12.5h-6q-8 0 -29 -4l-21 -4q-2 0 -4 -4.5t-6 -4.5v-106q0 -109 5 -212t5 -212v-119q0 -10 -2 -36.5t-5 -57.5t-5 -57.5t-4 -36.5q-2 -35 -22.5 -44t-45.5 -9t-47 20.5t-30 48.5v62q0 78 5 153.5t5 153.5q0 260 -19.5 519t-19.5 521z" />
<glyph unicode="G" horiz-adv-x="1286" d="M10 1051q8 123 57.5 228t124 195.5t170 164t197.5 133.5q41 14 70.5 26t57.5 20.5t59 11.5q19 2 45 2q16 0 36 -1q8 -2 21.5 -2t28.5 -2q16 -2 32 -2q18 -2 55 -20.5t73 -45t61.5 -56.5t23.5 -56q-2 -20 -13 -25.5t-28 -1.5q-29 2 -53 11t-49 18.5t-51.5 18.5t-61.5 11 q-12 1 -23 1q-38 0 -70 -15q-42 -20 -87 -39q-94 -47 -181 -110.5t-156.5 -142.5t-115 -173t-53.5 -203v-20q0 -34 4 -85q6 -67 20.5 -148.5t37 -170t50 -166t60.5 -137t72 -82.5q16 -10 39.5 -11t40.5 -3q28 -2 56 -2q62 0 120 10q84 13 149.5 52.5t106.5 107.5t49 168 q0 6 1 21.5t1 17.5l-8 8q-2 0 -14.5 3t-18.5 5q-28 2 -56 2q-22 0 -43 -1t-42 -1q-28 0 -55 2q-35 2 -76 8.5t-76 22.5t-56 44q-19 24 -19 59q0 7 1 14q0 14 14.5 31.5t30.5 17.5l267 -21q38 5 75 5q33 0 65 -4q41 -5 82 -5l54 2q4 -2 17.5 0t19.5 4q4 0 26.5 6.5t26.5 4.5 q14 0 29.5 -9.5t28 -24.5t18.5 -32.5t6 -30.5q-2 -25 -12 -38t-24.5 -24t-31 -21.5t-30.5 -24.5q-12 -49 -15.5 -85t-7.5 -83q-6 -102 -7 -201v-13q0 -92 13 -187q0 -4 3.5 -17.5t6.5 -29t6 -30t5 -16.5q-2 -2 -2 -10v-10q-4 -37 -19.5 -60.5t-56.5 -19.5q-57 4 -81.5 39 t-33 82t-8.5 97t-8 87h-6h-2q-113 -45 -215 -72q-75 -19 -160 -19q-32 0 -66 3q-121 10 -200.5 69.5t-133 146.5t-86 191.5t-57.5 207.5q-23 104 -38 213q-10 70 -10 141q0 38 3 76z" />
<glyph unicode="H" horiz-adv-x="1015" d="M0 702v29q4 6 16.5 12.5t24.5 12.5t21.5 13t9.5 15v836l26 168q0 14 9.5 15t19.5 1q29 0 61.5 -22.5t51.5 -46.5v-45q0 -123 -4.5 -245t-4.5 -247v-309q4 -23 3 -46.5t1.5 -42t12.5 -29.5t39 -13h94q92 0 178 10q61 7 127 7q26 0 53 -1q20 10 31 27v579q0 18 2 58.5 t4 84.5t5 81.5t5 52.5q0 2 4.5 20.5t9.5 42l10 47t7 37.5q4 16 12.5 21.5t24.5 5.5q18 0 37.5 -10.5t35 -25.5t25 -35.5t9.5 -41.5q0 -23 -1.5 -36t-7.5 -35q0 -27 -4 -91.5t-7 -138.5t-7 -138.5t-4 -90.5v-4v-2q4 -127 10 -270.5t6 -278.5q0 -10 -1 -32.5t-1 -25.5 q0 -12 -2 -49t-6 -87t-7 -106.5t-7 -106.5t-6.5 -87t-2.5 -49v-19.5v-34v-33.5v-17q0 -10 -3 -27.5t-9 -33t-16.5 -27t-26.5 -9.5q-59 8 -86 55.5t-27 106.5q0 117 13.5 231.5t13.5 233.5q0 6 -1 17.5t-1 21.5v27l-16 10h-49h-78q-41 -2 -103.5 -4t-122 -5t-102.5 -5.5 t-45 -2.5l-8 -10l-15 -491q0 -29 -15 -58.5t-44 -29.5t-59.5 19.5t-40.5 51.5v121v125q0 8 1 44t3 77t3 78t1 47q0 41 -12.5 57.5t-27.5 26.5t-27.5 23.5t-12.5 45.5z" />
<glyph unicode="I" horiz-adv-x="393" d="M70 1085l2 668q0 33 9 57.5t38 26.5q16 2 38.5 -6t44 -21.5t36 -33t16.5 -37.5q0 -2 -1 -5t-1 -8q0 -29 -1 -102.5t-2 -156.5t-2 -156.5t-1 -102.5q0 -10 1 -32.5t2 -47t2 -46t1 -27.5l82 -838q2 -16 3 -51v-12q0 -29 -4 -58q-5 -35 -19.5 -62.5t-41.5 -29.5 q-7 -1 -14 -1q-38 0 -68 28q-34 33 -40 86q-4 33 -3.5 54.5t7.5 57.5z" />
<glyph unicode="J" horiz-adv-x="401" d="M-989 -694q0 16 2 28.5t24 20.5q4 4 18.5 4h16.5h24.5t16.5 -4q2 0 13.5 -4t23.5 -9.5t23.5 -9.5t15.5 -4q16 -4 46 -11t61.5 -13t57 -11.5t32.5 -7.5h116h115q63 25 126.5 36t119 32.5t101.5 64.5t77 129q10 35 23 81q11 35 11 68q0 10 -1 19q2 25 8 75t13 112.5 t14.5 132t14.5 132t12 112t7 73.5q0 2 1 25.5t2 54.5t2.5 61.5t1.5 51.5v12q0 197 -13.5 389.5t-13.5 384.5q0 10 2 28.5t2 22.5q0 12 2 41t5 63t5 62.5t4 40.5q2 20 8.5 58.5t16.5 76t27.5 66.5t42.5 29q23 0 41 -13.5t32.5 -34t21.5 -45t7 -45.5q0 -98 -17.5 -196.5 t-17.5 -198.5q0 -180 9.5 -355t9.5 -356v-54v-67.5t-1 -60t-1 -28.5l-68 -680q1 -15 1 -32q0 -49 -13 -106q-19 -75 -52.5 -145t-80 -125t-95.5 -80q-12 -4 -41.5 -14t-62.5 -21.5t-62.5 -20.5t-42.5 -11q-20 -8 -42.5 -11.5t-45 -6.5t-46 -8t-44.5 -17h-102q-31 0 -81 2 t-107.5 10t-115 22.5t-104.5 39t-76.5 59.5t-29.5 86z" />
<glyph unicode="K" horiz-adv-x="1261" d="M88 1044v191v51t1 92.5t2 112.5t2 112.5t1 92.5t2 51q0 18 -3 50t-1 62.5t14.5 53t43.5 22.5q10 0 30.5 -7t41 -17t35.5 -21.5t15 -21.5v-959q0 -4 5.5 -17t11.5 -15q45 35 76.5 81t78.5 78q129 168 238 339t207 354q0 12 16.5 12h18.5q14 0 36.5 -8.5t44 -20.5t37 -27.5 t15.5 -29.5q0 -23 -31 -86.5t-72 -136t-83 -138t-64 -94.5l-285 -369l-23.5 -23.5t-40 -43t-36.5 -43t-16 -25.5q0 -20 30 -34q12 -8 46 -29t73 -43.5t73 -44t48 -29.5q4 -2 17.5 -11t17.5 -13l567 -480q23 -16 27 -26.5t4 -32.5q0 -27 -16.5 -44.5t-45.5 -17.5h-10l-92 43 l-570 469q-6 4 -46 31t-88 56.5t-89 54t-47 24.5q-14 0 -15 -9t-1 -17q0 -102 10 -204.5t10 -207.5v-92q-4 -14 -10 -28.5t-18 -24.5h-35q-106 0 -115 104q-8 242 -25.5 478.5t-17.5 475.5z" />
<glyph unicode="L" horiz-adv-x="1114" d="M92 1780q0 35 16.5 48t51.5 13q29 0 65.5 -23.5t46.5 -52.5q0 -4 4.5 -30.5t4.5 -36.5q10 -287 20 -567.5t14 -567.5q-10 -70 -19 -161t-9 -171v-25.5t4 -17.5l14 -16h430q37 10 75 10h75h90q18 -4 39.5 -14t41 -24.5t32 -32t12.5 -35.5q0 -10 -2 -27.5t-8 -21.5 q-2 0 -18.5 -4.5t-24.5 -4.5h-162q-4 0 -20.5 -1t-36 -2t-37 -2t-23.5 -1q-6 -2 -20.5 -1t-31 1t-33.5 -2t-30 -8h-50q-74 0 -143 -4q-91 -6 -190 -6q-51 0 -83.5 9t-51 30.5t-26 54.5t-7.5 80q0 61 5.5 122.5t13.5 121.5q13 99 13 205v41q-3 128 -3 245q0 221 -19.5 439.5 t-19.5 439.5z" />
<glyph unicode="M" horiz-adv-x="1695" d="M86 1876q0 23 15.5 33t31.5 10q14 0 32.5 -9t37 -24.5t32 -33t17.5 -31.5q0 -14 3 -51t5 -79t4 -79t2 -53q2 -12 -1 -35t9 -37h5h4l86 180q27 27 48 55.5t43.5 52t49.5 39t65 15.5q45 0 85 -40t71 -96.5t50.5 -115.5t25.5 -98l70 -439l10 -8q4 10 7 21.5t7 21.5 q2 23 12.5 80t21.5 121.5t21.5 122t14.5 80.5q8 39 23.5 94t40 106.5t58 87t74.5 35.5q33 0 61.5 -18.5t54.5 -46t45.5 -61.5t33.5 -62q45 -98 94 -192.5t89 -193t65.5 -201.5t25.5 -218q0 -125 -15 -245t-15 -242q0 -33 15 -59.5t15 -59.5q0 -14 -6 -33.5t-8 -34.5 q-4 -14 -5 -35.5t-6 -41t-14.5 -34t-29.5 -14.5q-49 0 -77 24.5t-40 62.5t-15 84t-3 89q0 145 20.5 285.5t20.5 286.5v82q0 2 -4.5 23.5t-9.5 48t-10 54t-7 44.5q-2 4 -5 15t-3 13l-222 457h-6q-12 0 -22 -17.5t-17 -29.5q-53 -174 -83.5 -357.5t-51.5 -365.5 q-25 -66 -30 -142.5t-15 -146.5q-2 -14 -11 -66.5t-19.5 -112.5t-19.5 -112.5t-11 -66.5q-4 -14 -4 -40t-5.5 -50.5t-15.5 -43t-31 -18.5q-47 0 -72.5 20.5t-40 53.5t-17.5 75t-3 83v41.5v73.5v90.5v91.5v74.5v41.5q0 23 -2 67t-3 89t-3 82t-2 47q0 14 -4 55t-9 88 t-10.5 91.5t-7.5 62.5q0 4 -3 21.5t-7 37t-7 37t-5 21.5q-2 10 -10.5 57t-19.5 98.5t-24.5 92t-25.5 40.5q-20 0 -35.5 -25.5t-26.5 -37.5q-47 -82 -81.5 -168t-49.5 -182q-4 -29 -11 -74t-13 -88t-11.5 -73.5t-5.5 -32.5v-21l-38 -571q3 -38 3 -77q-1 -50 -5 -100 q-8 -90 -29 -174q-4 -14 -12.5 -16t-20.5 -2q-43 0 -78 25.5t-47 72.5q-23 402 -29 798q-4 238 -4 477q0 160 2 321q-2 47 -9 91t-7 91z" />
<glyph unicode="N" horiz-adv-x="1220" d="M82 752v149q0 25 3 77t7 117.5t8 137.5t9.5 137.5t8.5 116.5t5 76q-2 18 -2 36.5t2 38.5q4 40 22 70h27q57 0 87 -33t30 -86q0 -66 -5 -131t-5 -133v-21.5t1 -33t1 -32.5v-21q16 23 22 54.5t16 57.5q29 66 76 154t108.5 167t135.5 133t156 54t142 -51t101 -132 t66.5 -180.5t39 -198.5t18.5 -185t5 -140v-94l-69 -893q-2 -20 -20.5 -23t-33.5 -3q-37 0 -60 17t-35.5 44t-16.5 59.5t0 63.5l69 837v82q0 143 -22.5 272.5t-65.5 266.5q-8 25 -19 51.5t-34 42.5q-4 4 -14 4h-15q-35 0 -74.5 -28.5t-78.5 -69.5t-71 -84t-50 -70 q-29 -47 -43 -100t-43 -100q-4 -18 -15.5 -61.5t-23.5 -92.5t-23.5 -92t-15.5 -59q-2 -6 -7 -33t-10 -56.5t-10.5 -56t-5.5 -33.5q0 -4 -3 -16t-5 -16l-63 -619q-2 -25 -16.5 -40t-39.5 -15h-8q-39 12 -60.5 28.5t-31.5 39t-13 53t-5 71.5q-10 133 -21.5 261t-11.5 264z" />
<glyph unicode="O" d="M16 739q0 104 18.5 227.5t57.5 246t97.5 237.5t136 202t177 140t220.5 53h70q98 -39 168.5 -116.5t111.5 -178.5q4 -4 7 -14t3 -12q0 -4 -1 -26.5t1 -27.5q0 -2 6.5 -15l8.5 -17q37 -63 68.5 -117.5t45.5 -126.5v-137q0 -88 -4 -172t-20 -170q-2 -6 -4 -18.5t-6 -16.5 q-6 -23 -18.5 -60.5t-25 -76.5t-23.5 -71t-13 -38q-31 -86 -84 -163.5t-121 -138t-149.5 -96.5t-170.5 -36q-41 0 -78.5 13.5t-74.5 31.5q-94 45 -169 119t-127 165t-80 196t-28 214zM176 688q0 -115 35 -211t113 -182q45 -47 98 -85t119 -38q47 0 91 21.5t79 50.5 q98 76 164.5 176t105.5 215t55.5 238.5t16.5 248.5q0 74 -20.5 134.5t-52.5 115.5t-71 108.5t-75 110.5q-2 2 -5.5 12.5l-7.5 22.5t-10 23.5t-12 13.5q-18 8 -33.5 9t-36.5 1q-80 0 -153.5 -51t-135 -127t-107.5 -163t-73 -156q-45 -115 -64.5 -239t-19.5 -249z" />
<glyph unicode="P" horiz-adv-x="1081" d="M82 1391v61v59q0 12 1 41t2 62t3 61.5t2 38.5q4 12 9 17.5t10.5 8.5t13.5 6t18 11q29 20 52.5 36.5t47 28t52.5 16.5t65 5q100 0 196.5 -15.5t182.5 -51t163 -94t138 -144.5q47 -66 79 -138.5t32 -158.5q0 -145 -69.5 -239.5t-184.5 -159.5q-117 -66 -251 -114t-267 -60 q-10 -2 -23.5 -3t-27.5 -3q-16 -2 -33 -5l-8 -8v-600q0 -47 -43 -59q-14 -4 -34 2t-39 18.5t-33.5 28t-20.5 29.5q0 8 -2 31.5t-3 50t-2.5 50t-1.5 31.5v47v85.5v102.5v102v84v48q0 18 -2 71.5t-5 124.5t-5 150.5t-5 151.5t-5 124t-2 69zM258 1235q0 -12 2 -61.5t5 -105.5 t6 -104.5t3 -60.5q0 -16 -1 -30.5t20 -20.5q4 0 16.5 -2t16.5 -2q10 0 18 2q6 0 14 2q8 0 31 6t50.5 13.5t53 13.5t37.5 10q72 20 151 52t145.5 79t109.5 113.5t43 158.5q0 47 -19.5 87t-48.5 75q-49 61 -96 101.5t-100 62t-116.5 29.5t-143.5 8q-31 0 -62 -3t-57.5 -13.5 t-47 -31t-30.5 -54.5v-162v-162z" />
<glyph unicode="Q" horiz-adv-x="1499" d="M0 899q0 143 23.5 258t73.5 210t129 176t188 157q94 66 198.5 101.5t218.5 35.5q55 0 96.5 -15.5t74 -42t62.5 -63.5t62 -80q2 -4 16.5 -20.5t30 -34.5t28.5 -33.5t18 -19.5q43 -59 66.5 -128t49.5 -136q14 -35 31.5 -69t32 -68.5t24 -70.5t9.5 -75q0 -104 -34 -217 t-69 -209q-4 -6 -13 -29.5t-21.5 -51.5t-23.5 -52.5t-18 -36.5q-2 -4 -8 -14.5t-13 -22.5t-13.5 -23.5t-8.5 -13.5v-18v-19q31 -23 82 -60.5t101.5 -80.5t86.5 -88t36 -80q0 -4 -1.5 -17.5t-1.5 -17.5q-22 -30 -53 -30h-2q-27 0 -43 8t-45 31q-12 10 -42 34.5t-63.5 52 t-63.5 52t-40 35.5q-14 10 -28.5 23.5t-34.5 13.5h-4l-185 -101q-35 -18 -70.5 -19t-70.5 -1q-178 0 -320.5 65.5t-242 181t-152.5 275.5t-53 348zM160 911q0 -143 28.5 -272t92 -226.5t167 -154.5t252.5 -57q14 0 50 7t73 20.5t68 29.5t35 35q0 2 -3 9t-8 9 q-25 29 -61.5 62t-72.5 67.5t-60.5 74.5t-24.5 83q0 16 1 31.5t18 25.5q4 0 16 1t17 1q45 0 81.5 -28.5t70.5 -66.5t65.5 -75.5t68.5 -56.5h4h4q23 16 39.5 46t28.5 52q2 6 9 21.5t15.5 33t15.5 33t11 21.5q0 4 5 17.5t10.5 27.5t9.5 27.5t6 19.5q4 8 9 24.5t11.5 33 t10.5 32t4 19.5q2 12 8 34.5t11 47t9.5 45t6.5 26.5v31q0 59 -22.5 104t-47.5 101q-2 8 -13.5 36.5t-23.5 60.5t-23.5 60.5t-13.5 34.5l-6 9q-6 10 -14 21t-16.5 23.5t-12.5 18.5l-10 10t-6 8q-35 20 -61.5 30.5t-48 23t-38 33t-31.5 59.5h-22q-80 0 -153.5 -29t-145.5 -72 q-82 -53 -153.5 -118.5t-125 -146.5t-84 -175t-30.5 -203z" />
<glyph unicode="R" horiz-adv-x="1433" d="M84 1206v74v74q0 12 1 45t2 69.5t3 68.5t2 44q16 72 65.5 121t116 78.5t140 43t139.5 13.5q111 0 220.5 -26.5t205.5 -79t170 -132t115 -184.5q23 -53 40 -99t17 -108q0 -86 -53.5 -160.5t-133 -135t-173 -108.5t-173 -83t-133 -55.5t-53.5 -26.5v-4l14.5 -14.5 l12.5 -12.5l555 -348q33 -14 77 -35.5t83.5 -51.5t67.5 -65.5t28 -78.5q0 -23 -18.5 -46.5t-47.5 -23.5q-4 2 -10 4q-12 4 -16 6q-25 8 -50.5 24.5t-52 36t-51.5 39t-47 33.5q-2 0 -17.5 7.5t-17.5 7.5q-12 6 -54 32.5t-89 55t-88 55.5t-52 33q-27 16 -80 52t-111 73 t-111.5 64.5t-80.5 29.5l-137 78h-26v-6q4 -18 11 -65.5t14 -102t13.5 -101.5t6.5 -65q0 -4 2 -32t2 -42v-54.5t-8.5 -56t-25.5 -45t-52 -18.5q-43 0 -81 20.5t-38 63.5q0 37 10 70.5t10 70.5q0 92 -14 181.5t-31 181.5q-2 23 -3 72t-3 109t-4 128t-4 128t-3 108.5t-1 70.5z M262 1288q4 -110 4 -221v-74q0 -8 1 -30.5t2 -47t3 -48t2 -31.5q6 -31 27 -37t51 -6q70 0 166 31.5t193.5 77.5t182.5 100.5t134 97.5q12 10 32.5 27.5t40 38t34 42t14.5 43.5q0 23 -5 42.5t-14 41.5q-27 68 -70.5 125.5t-102 98t-128 63.5t-145.5 23q-98 0 -197.5 -16.5 t-177.5 -80.5q-6 -6 -19.5 -19t-15.5 -26q-13 -85 -13 -172q0 -21 1 -43z" />
<glyph unicode="S" horiz-adv-x="1228" d="M-55 322q0 41 33.5 59t70.5 18q2 0 8 -1t9 -1q94 -20 187 -49t181 -65q55 -25 106.5 -43.5t102.5 -31.5t105.5 -19.5t117.5 -6.5q4 0 15.5 1t26 2t26.5 2t16 3q63 12 78.5 38t15.5 81q0 43 -8 78t-21.5 67.5t-32.5 65.5t-42 70q-31 51 -65.5 92t-74.5 77t-84 70.5 t-91 71.5q-63 51 -142.5 96t-149 98.5t-117.5 120t-48 160.5q0 47 24.5 95.5t53.5 87.5q111 141 263.5 211.5t336.5 70.5q49 0 95 -5t87 -20.5t74 -44t55 -73.5q4 -10 14.5 -34t10.5 -26v-10q0 -4 1 -8t1 -6q0 -23 -3 -43.5t-38 -20.5h-2q-23 6 -40.5 15.5t-31.5 21.5 t-27.5 27.5t-31.5 34.5q-33 10 -71 10h-71h-18t-26.5 -1t-27 -1h-18.5q-2 0 -12 -3t-14 -5q-35 -10 -64 -19.5t-55.5 -18.5t-54 -19.5t-58.5 -24.5l-21.5 -21.5t-34 -33t-34.5 -33t-22 -21.5q-23 -23 -50.5 -58.5t-27.5 -70.5q0 -25 21.5 -48.5t39.5 -37.5 q96 -59 200.5 -126.5t194.5 -139.5q4 -2 9.5 -11.5t9.5 -13.5q82 -68 155.5 -142.5t129 -159.5t88 -181t32.5 -203q0 -6 -1 -19.5t-1 -27.5t-1 -27.5t-1 -17.5q-12 -53 -40.5 -87t-69.5 -53.5t-90.5 -26.5t-102.5 -7h-6q-20 2 -55 6t-69 8t-59.5 7.5t-29.5 3.5q-8 0 -38 7 t-38 9q-4 2 -14 5t-22.5 7t-23.5 8.5t-18 6.5q-14 4 -50 16t-73.5 27.5t-67.5 28t-32 16.5q-66 20 -140.5 36.5t-143.5 22.5q-35 23 -56.5 44.5t-21.5 62.5z" />
<glyph unicode="T" horiz-adv-x="1228" d="M-31 1747q0 53 22.5 64.5t69.5 11.5q76 0 154 -6.5t156 -6.5q37 0 63.5 1t61.5 12q8 12 12 28.5t10 31.5t15.5 25.5t27.5 10.5h10q6 -2 18.5 -5t14.5 -3l92 -80q2 -2 20.5 -5t28.5 -3q8 -2 39 -2h66t65.5 1t38.5 1q6 -2 33 -5t57.5 -6.5t58 -5.5t34.5 -4q33 -2 83 -3 t97 -12t81 -39t34 -81q0 -4 -2.5 -16.5t-2.5 -14.5q-14 -18 -26 -23t-33 -5q-131 0 -260 18.5t-264 18.5h-23q-10 0 -30.5 -1.5t-45 -3.5t-46 -3t-29.5 -1q-12 0 -20.5 -16t-12.5 -38.5t-6 -43t-2 -27.5v-147q0 -135 10 -264t16 -264q2 -4 4.5 -21.5t2.5 -23.5 q4 -125 7 -250t3 -250q0 -29 2 -71q1 -28 1 -57v-29q-1 -44 -11.5 -83t-34.5 -59q-4 -2 -16.5 -2h-14.5q-47 0 -66.5 25.5t-35.5 66.5q0 25 1 87t1 133t-1 134.5t-1 87.5q0 31 -3.5 94.5t-7.5 142.5t-9 168t-9 168t-7 142.5t-5 93.5v80v82q0 2 1 12.5t2 22.5t2 22.5t1 12.5 q0 12 -2 31.5t-4 19.5l-17 12l-383 17q-16 0 -31.5 11t-27.5 27.5t-19.5 34t-7.5 29.5z" />
<glyph unicode="U" horiz-adv-x="1482" d="M78 981q0 178 20.5 345t55.5 339q2 18 4 52t9 67t22.5 57.5t48.5 24.5q25 0 48 -11.5t41.5 -30t30 -42t11.5 -47.5q0 -2 -1 -3t-1 -3v-5q-47 -195 -75 -396.5t-28 -403.5v-43q0 -8 3 -37t6 -61.5t6.5 -64.5t5.5 -46q2 -29 9 -76t18.5 -101.5t27.5 -109.5t39.5 -100 t54.5 -73t70 -28q27 0 53.5 12.5t51 30t46 37t37.5 35.5q94 86 166 209t122 261t81 279.5t43 264.5v114q0 14 1 53.5t2 82.5t3 80.5t2 52.5q16 39 57 39q61 0 98.5 -52.5t41.5 -113.5v-533q2 -47 2 -103t1 -114.5t4 -116t11 -106.5l100 -596q0 -2 3 -4q0 -2 2 -4 q0 -39 -31 -52.5t-60 -13.5q-45 0 -72.5 39t-44 100.5t-26.5 136t-18.5 147.5t-20 133t-29.5 93q-4 -2 -6 -4l-4 -4q-27 -53 -47 -93t-40.5 -74.5t-45 -69.5t-61.5 -78q-2 -2 -5 -9t-3 -12q-41 -43 -81 -85t-86 -74.5t-99.5 -52t-116.5 -19.5h-46q-2 2 -10 6t-17 10.5 t-17.5 10.5t-10.5 6q-90 39 -145.5 104.5t-89 145t-53 170t-40.5 180.5q-20 86 -24 173t-4 175z" />
<glyph unicode="V" horiz-adv-x="1351" d="M-18 1700v20.5t2 14.5l16 20h25q35 0 62.5 -12t49.5 -43q16 -20 23.5 -55t9.5 -74t3 -78t7 -68q20 -111 58 -219t85.5 -214.5t98.5 -209t98 -200.5q25 -53 41.5 -103.5t44.5 -101.5h2q4 0 18.5 28.5t34 73.5t42 99.5t42 104.5t35 89t21.5 55q6 14 22.5 55.5t35 85.5 t33.5 84l21 56q2 12 6.5 27.5t10.5 25.5q6 20 20.5 70.5t30.5 107t31.5 106.5t21.5 71q20 68 55 143.5t62 128.5q18 29 31.5 42t46.5 13q16 0 38.5 -8t42 -21.5t34 -31t14.5 -35.5q0 -8 -14.5 -40t-32 -67.5t-33.5 -65.5t-23 -32q-4 -6 -10 -23.5t-12 -36t-12.5 -34.5 t-8.5 -23q-2 -4 -9 -16t-9 -16l-109 -381q-20 -18 -27 -51t-16 -54q-72 -180 -142.5 -357t-141.5 -357q-10 -25 -15.5 -63t-13.5 -74t-25.5 -60.5t-52.5 -24.5q-37 0 -77 20.5t-46 67.5q-59 217 -141 425t-192 405q-8 10 -10.5 15t-4.5 10.5t-3 11.5t-5 18 q-76 180 -133 367.5t-57 388.5z" />
<glyph unicode="W" horiz-adv-x="1818" d="M12 678q0 12 1 36.5t1 28.5q2 31 4 79t4.5 104.5t5.5 114t5 105.5t3 82t1 42q4 37 10 91t12.5 113.5t14.5 119t14 108.5t11 82t7 37l7 16q4 0 8 2q4 0 6 1t6 1q57 0 94 -39t43 -106q-2 -8 -5 -31t-7 -47.5t-8 -47t-4 -32.5q-25 -221 -45.5 -447.5t-20.5 -451.5v-8 q2 -25 4 -64t4 -77.5t4.5 -68.5t2.5 -34q0 -6 4 -27.5t8 -48t7 -52.5t5 -38q8 -41 28.5 -78t57.5 -37q57 0 108.5 31t92.5 78t71.5 106.5t47.5 114.5l147 522q10 33 9 51.5t1 53.5q0 23 3 70t6.5 107t7.5 126t7 126t5 108.5t4 70.5q8 27 24.5 32t39.5 5q35 0 62.5 -30.5 t45.5 -63.5q6 -45 10 -82t6.5 -73t2.5 -72.5v-79.5q0 -63 -8.5 -124t-17.5 -121.5t-17.5 -120.5t-8.5 -124q0 -18 2 -68.5t6.5 -116t12.5 -138t20.5 -135t27.5 -106.5t38 -52q2 0 24.5 -3t32.5 -5h8q70 0 129.5 26.5t108.5 70.5t87 103.5t67 124.5q4 18 17 65.5t26.5 99.5 t27 98t17.5 65q20 80 22 156.5t2 162.5q0 113 -4 224.5t-4 224.5v62.5t7 61t23.5 46t51.5 18.5q39 0 60.5 -30.5t41.5 -63.5q-2 -63 -2 -124q0 -76 3 -150q5 -134 5 -271q0 -31 -2 -95t-7 -133t-14 -128t-26 -82q-31 -137 -74.5 -265t-112.5 -227.5t-167 -159t-240 -59.5 q-113 0 -193.5 56.5t-119.5 179.5q0 2 -5 18.5t-11 36t-11.5 35.5t-5.5 20q-4 8 -7 15.5t-11 11.5q-23 -43 -36 -92t-38 -94q-31 -55 -70.5 -104.5t-88 -86.5t-102.5 -58.5t-114 -21.5q-84 0 -143 36t-97 95.5t-59.5 136t-31 159.5t-11.5 166t-2 155z" />
<glyph unicode="X" horiz-adv-x="1253" d="M-6 109q0 27 13 46t24 38q102 174 220 331.5t230 323.5q8 18 8 37q0 14 -4 20t-14 27q-6 12 -33.5 60t-58.5 102.5t-57.5 101.5t-34.5 59q-18 35 -37 78t-35 88t-26.5 89t-10.5 85q0 29 6 55.5t45 26.5q53 0 83 -25.5t46.5 -64.5t25.5 -82t24 -80q2 -6 17 -38.5 t34.5 -74.5l39 -84t29.5 -65q0 -4 13.5 -28.5t19.5 -36.5q4 -6 17.5 -25.5t25.5 -19.5h4l322 467q14 14 48 66t74 108.5t77.5 101.5t58.5 49q18 -6 40.5 -17t42 -27.5t33 -37t13.5 -43.5q0 -16 -5 -36.5t-16 -32.5q-8 -12 -30.5 -44t-47 -66t-47 -64.5t-30.5 -42.5 q-2 -2 -20.5 -23.5t-24.5 -32.5q-2 -2 -5.5 -5t-7.5 -3q-16 -27 -60 -91.5t-94 -138t-94 -138t-61 -91.5q-20 -27 -24.5 -35t-4.5 -34v-25q0 -2 6.5 -11t13.5 -20.5t14 -22.5t12 -18q66 -90 132 -175t128.5 -172t118 -178t98.5 -193v-7q0 -37 -12.5 -53t-47.5 -16 q-45 0 -73.5 20.5t-49 51t-37 66.5t-36.5 67q-12 20 -36 55t-46.5 68.5t-41 60.5t-22.5 31l-8 10q-2 0 -24.5 30.5t-53 72.5t-64.5 86t-54 73q-12 16 -13.5 22.5t-17.5 6.5q-2 -2 -6 -2h-9q-76 -102 -162.5 -218t-156.5 -221q-35 -53 -64.5 -108t-64.5 -109q-14 -6 -25.5 -7 t-27.5 -1q-18 0 -40 8.5t-40.5 22.5t-29.5 32.5t-11 39.5z" />
<glyph unicode="Y" horiz-adv-x="1114" d="M0 831v93q0 223 44 450.5t101 444.5q8 20 21.5 22t32.5 2q18 0 40.5 -6t42 -18.5t32 -29.5t12.5 -38v-2q-25 -109 -50.5 -219.5t-47 -221t-35 -223t-13.5 -223.5q0 -80 13.5 -171t50.5 -169q2 0 11 -1t11 -1q25 0 54.5 11.5t59.5 27.5t56.5 33.5t42.5 32.5 q92 76 155.5 150.5t115.5 176.5q2 4 10 19.5t17 32t16.5 33t9.5 24.5q18 41 18 83v8q-1 15 -1 31q0 31 3 62q2 20 6.5 75.5t10.5 120t11 124t9 86.5q2 25 13.5 56.5t48.5 31.5q57 0 85.5 -33t39 -78t10.5 -93v-81q0 -80 -15.5 -158.5t-29.5 -160.5v-396v-395q2 -31 5 -110.5 t7 -170t8 -170t6 -112.5q10 -59 14.5 -120.5t4.5 -125.5q0 -20 -5 -49t-28 -39h-39q-53 0 -86 18.5t-39 67.5q0 10 1 33.5t1 50.5t-1 50.5t-1 33.5q-2 12 -7 60.5t-9 103.5t-8.5 103t-6.5 61q-6 164 -6 328.5v330.5h-10q-29 -35 -88 -91t-131 -110.5t-146.5 -93.5 t-132.5 -39q-98 0 -153.5 36t-85 91.5t-41.5 125t-25 136.5q-10 51 -10 88z" />
<glyph unicode="Z" horiz-adv-x="1253" d="M0 233q0 23 4 36.5t27 39.5l329 449l5 4l4 4q61 76 135 167t138.5 188.5t108.5 198.5t44 200v57q-6 20 -23.5 31.5t-39 16.5t-44 6t-41.5 1q-49 0 -98 -7t-94 -30q-23 -12 -43.5 -33.5t-42 -43t-44 -38t-46.5 -16.5q-47 0 -88 27t-41 80q0 16 1 28.5t11 24.5 q78 96 176 154.5t227 58.5q82 0 159 -22.5t137.5 -67.5t96 -112.5t35.5 -155.5q0 -78 -20.5 -156t-55 -151.5t-78.5 -143.5t-91 -131q-16 -23 -50 -67t-77 -100t-90.5 -118.5t-90.5 -118t-76.5 -100.5t-50.5 -65q-8 -8 -28.5 -35t-20.5 -49v-4q0 -2 2 -4q72 -23 150 -31 t155 -8q109 0 216.5 5t218.5 5h139q18 -18 39.5 -30.5t40 -26t30 -33t11.5 -49.5v-37q-16 -23 -30.5 -31t-39.5 -8q-16 0 -27.5 1t-23.5 9h-578q-4 0 -27.5 2t-54 5t-60.5 6t-48 5q-35 6 -98.5 21.5t-125 42.5t-107.5 64.5t-46 84.5z" />
<glyph unicode="[" horiz-adv-x="727" d="M86 76v8q12 104 13 204.5t5 207.5q0 10 2.5 48t5.5 83t5 83t2 48v46v81v79.5v47.5q0 6 1 29.5t2 49t2 49t1 29.5v27q0 6 4 33.5t9 60.5t9.5 60.5t4.5 33.5q4 27 6 45.5t26 34.5h29q8 0 21.5 1t21.5 -7q39 4 60.5 5t56.5 1h39q12 -8 31.5 -13t39 -9t38 -6t30.5 -4 q4 0 8 -2l10 -5q8 -4 33 -13t33 -13q12 -8 13 -20.5t1 -24.5q0 -25 -17.5 -36t-39.5 -11q-16 0 -46 1t-42 5q-29 8 -45.5 17t-48.5 9q-8 0 -29 -1t-41.5 -4t-35.5 -9t-15 -18q-16 -90 -20.5 -169t-6.5 -171v-295q0 -10 -2 -42t-4 -42v-459h182q18 -6 52 -8t68 -8.5 t59.5 -20.5t25.5 -41q0 -29 -16.5 -44t-42.5 -15q-47 0 -90 10t-91 10q-45 0 -87 -10t-87 -10q-23 0 -47 2t-45.5 11t-36 25.5t-14.5 45.5z" />
<glyph unicode="\" horiz-adv-x="1028" d="M59 1235v2q0 10 8.5 20.5t14.5 14.5q4 0 19.5 1t19.5 1q57 0 91 -33t52 -82l273 -446l14 -15l188 -272q4 -6 12.5 -23.5t12.5 -21.5q6 -12 23.5 -41t37 -59.5t37 -58t23.5 -38.5q2 -4 11 -18t20.5 -30.5t21.5 -31t14 -18.5q6 -10 7.5 -15t1.5 -16q0 -29 -17.5 -38 t-42.5 -9q-35 0 -59.5 11.5t-43 31t-34.5 44t-31 50.5q-57 96 -111.5 183.5t-115.5 179.5q-2 2 -4 8t-4 8q-94 129 -170 254t-162 260q-2 2 -7 9.5t-11.5 16.5t-12.5 17.5t-6 10.5q-4 4 -15.5 26.5t-15.5 32.5q-2 2 -5 11t-3 12q0 2 -5 11t-10 19t-9.5 19.5t-6.5 11.5z" />
<glyph unicode="]" horiz-adv-x="821" d="M78 68q0 18 12 32.5t33 14.5h448l15 571q0 8 3 36t3 36v4v2q-2 14 -4 37.5l-4 47t-3 41t-1 21.5q-2 4 -4.5 19.5t-4.5 19.5v8q0 86 7.5 173.5t7.5 173.5q0 16 -19.5 17t-31.5 1q-63 0 -126 -4t-126 -4q-8 0 -35 1t-35 1q-39 12 -64.5 27.5t-25.5 58.5q0 14 4 24.5 t23 10.5q106 -2 210.5 3t210.5 5h20.5t32 -1t32 -1h20.5q14 -10 38.5 -25.5t24.5 -38.5q0 -111 -7 -218t-7 -218q0 -63 4 -124.5t4 -125.5q0 -80 -7 -159.5t-7 -161.5q0 -45 4 -86t4 -86v-72q0 -6 -1 -21.5t-2 -32t-2 -30.5t-1 -18q-4 -20 -19.5 -40t-35.5 -20 q-29 0 -65 11.5t-66 15.5q-4 0 -16.5 2t-16.5 4h-346q-27 0 -52.5 20.5t-25.5 47.5z" />
<glyph unicode="_" horiz-adv-x="2164" d="M115 -276q0 16 5 42.5t30 30.5l106 17q2 0 18.5 1t38 1h44h34.5q229 0 456.5 -13.5t457.5 -13.5h38q14 0 60.5 1t107 3t130 4t131 4t107.5 3t60 1h11q47 0 72.5 -37.5t25.5 -80.5q0 -39 -33 -64q-199 4 -391 -6t-389 -10q-205 0 -407.5 12t-407.5 12q-55 0 -109.5 -8 t-107.5 -8q-49 0 -68.5 34t-19.5 75z" />
<glyph unicode="`" horiz-adv-x="905" d="M225 1356q0 16 11.5 29.5t33.5 13.5q55 0 100.5 -31t63.5 -70l121 -77q16 -4 38.5 -19.5t33.5 -23.5q4 -4 15 -12.5t24.5 -17.5t24.5 -18.5t16 -13.5q6 -10 6 -16q0 -18 -19.5 -25.5t-38.5 -7.5q-35 0 -106.5 35t-143 83t-126 96t-54.5 75z" />
<glyph unicode="a" horiz-adv-x="1122" d="M72 295q0 53 19.5 101t52 92t74.5 84t87 77q35 27 66.5 43.5t64.5 24.5t71 10t85 2q72 0 142.5 -29.5t129.5 -60.5h13q0 14 1 48t2 71t2 70.5t1 45.5q0 27 -10.5 86.5t-29 122t-43 115.5t-55.5 70q-4 0 -19 1t-21 1q-57 0 -112.5 -22.5t-103.5 -45.5q-96 -49 -154.5 -128 t-76.5 -171q-4 -18 -4 -38.5t-4 -38t-18.5 -28t-47.5 -10.5q-23 0 -47 20.5t-24 41.5v154q0 12 6 29.5t15 34.5t18.5 33.5t17.5 26.5q31 45 83 93.5t115.5 87.5t134 63.5t138.5 24.5q102 0 187 -52.5t126 -130.5q12 -25 20.5 -49t18.5 -51l56 -258q-1 -21 -1 -42 q0 -54 4 -106q5 -74 5 -145q0 -16 -4 -60t-12.5 -102.5t-17.5 -124t-18.5 -122t-18.5 -95.5t-15 -47q-10 -10 -24.5 -11t-28.5 -1q-39 0 -59.5 16.5t-32 37t-18.5 36.5t-20 16h-2q-43 -10 -79.5 -25t-74.5 -29.5t-78 -24t-87 -9.5q-78 0 -149.5 15.5t-126 49.5t-87 86 t-32.5 126zM242 244q0 -31 14 -49.5t38.5 -29.5t55.5 -14.5t62 -3.5q53 0 112.5 17.5t117.5 45.5t109.5 63.5t88.5 70.5q23 18 25.5 49t2.5 53q0 31 -27.5 60t-67.5 49t-85 32.5t-78 12.5q-37 0 -66.5 -7t-54 -19.5t-47 -31t-49.5 -42.5q-33 -31 -60.5 -57.5t-48 -56.5 t-31.5 -64.5t-11 -77.5z" />
<glyph unicode="b" horiz-adv-x="942" d="M74 59q2 12 5 39t5 56.5t4 55.5t2 36v114v95.5t-8 97.5v199q0 111 4 221t4 221q0 102 -4 201.5t-4 201.5v80q0 8 4 43t7 74t7 73t4 42t2.5 31.5t7.5 46t14 41t26 18.5q8 0 23.5 -12.5t32.5 -27.5t30.5 -29.5t17.5 -18.5v-43q0 -104 -12.5 -202.5t-12.5 -205.5 q0 -104 4.5 -206.5t4.5 -206.5q0 -41 -4.5 -83t-4.5 -85v-41q0 -10 9 -11q8 0 27.5 11.5t25.5 13.5q45 25 91 42t97 17q59 0 115.5 -24.5t108 -66.5t93.5 -95t70 -110q2 0 7.5 -16.5t7.5 -27.5q0 -6 4 -14l4 -8v-154q-10 -29 -13 -59.5t-16 -56.5q-31 -72 -63.5 -127.5 t-74.5 -94t-95 -58t-125 -19.5q-37 0 -65.5 4t-54.5 12t-52.5 21.5t-63.5 31.5h-4q-14 0 -16 -10l-21 -111q-4 -10 -19 -21t-26 -11q-53 0 -78.5 31.5t-31.5 84.5zM242 500q0 -45 1 -84t8 -74t23.5 -64.5t49.5 -54.5q25 -18 53.5 -30.5t56.5 -12.5q33 0 81 6.5t77 36.5 q57 55 106.5 139t49.5 179q0 16 -3.5 46.5t-11.5 49.5q-6 18 -30.5 47t-53 55.5t-58.5 46t-46 19.5q-41 0 -89 -19.5t-91 -53.5t-77 -77t-46 -92v-63z" />
<glyph unicode="c" horiz-adv-x="974" d="M78 365q0 96 27.5 181t75.5 157.5t113.5 132t139.5 102.5q53 31 107.5 56.5t115.5 25.5q59 0 106.5 -35t76.5 -90q4 -6 18 -30.5t14 -41.5q0 -8 -2 -37.5t-4 -40.5q-2 0 -5 -4t-5 -4q-4 -2 -19.5 -6t-19.5 -4q-29 4 -44 21.5t-24.5 36t-18.5 34t-25 15.5 q-84 0 -166 -46.5t-146.5 -120t-105.5 -164.5t-41 -179q0 -70 48 -109t109 -47q6 0 19.5 -1t30 -1t31 -1t20.5 -1q10 0 26.5 1t33 1t28.5 1t14 1q14 2 49 9t74 17.5t74 19.5t47 13q2 -2 11 -4t11 -2t5.5 3t5.5 3t6 2q4 0 6 1t4 1h12.5t10.5 -10v-31q0 -61 -47.5 -98 t-112 -57.5t-131 -27.5t-105.5 -7q-76 0 -154.5 22.5t-144 67.5t-107.5 114t-42 161z" />
<glyph unicode="d" horiz-adv-x="1048" d="M51 428q0 131 49.5 232.5t127 171t174 104.5t190.5 35h14q10 0 28.5 -2t37 -3t33 -2t18.5 -1q2 0 11 -3.5t20.5 -6.5t20.5 -6t11 -5h13q2 0 10 1t8 9v701q0 8 2 29.5t4 46t4 46t2 29.5q0 18 -1 42t2.5 44.5t11.5 33.5t30 13q43 0 68 -35.5t41 -76.5v-8v-2q0 -10 -2 -33 t-4 -48.5t-4 -49t-2 -31.5q-2 -33 -3 -114t-2 -173t-2 -173t-1 -114v-12q0 -23 1 -52.5t2 -60t2 -60.5t3 -50q2 -39 15 -77t13 -79q0 -27 -22 -37v-522q10 -92 16 -183t6 -184v-43q-6 -25 -19 -26.5t-28 -1.5q-25 0 -53.5 13t-36.5 50q-2 12 -5 44t-7 67t-7 66.5t-3 43.5v91 q0 47 -27 47q-29 0 -59.5 -17.5t-57.5 -29.5q-59 -23 -122.5 -42.5t-122.5 -19.5q-152 0 -250.5 92t-139.5 275q-4 23 -6 32t-2 25zM203 401q0 -68 16.5 -110.5t44 -66t66.5 -33t86 -9.5q92 0 178 37t172 72q25 10 44 21.5t19 54.5v4q0 8 -1 43t-2 73.5t-2 72.5t-3 42 q0 45 1 80t-5 58.5t-25.5 35.5t-62.5 17h-82q-57 0 -114.5 -11.5t-109.5 -37t-98 -69.5t-79 -108q-16 -29 -21.5 -58.5t-21.5 -55.5v-52z" />
<glyph unicode="e" horiz-adv-x="1146" d="M90 465q0 117 54.5 218t141.5 177t195.5 119t216.5 43q84 0 143.5 -25.5t103.5 -70.5t76 -106.5t58 -135.5q0 -8 1 -33.5t1 -34.5q0 -84 -24.5 -133t-67.5 -78.5t-102.5 -47t-128.5 -35.5q-51 -14 -109.5 -23.5t-109.5 -9.5h-11q-10 2 -34.5 6t-54 9t-55.5 10t-38 8 q-14 4 -30.5 15t-30.5 11h-4l-11 -10v-4q0 -35 24.5 -63.5t51.5 -51.5q29 -20 52.5 -32.5t46 -18.5t48 -7t58.5 -1q10 0 33.5 1t25.5 1l377 57q2 0 11.5 1t13.5 1q16 0 29.5 -4t13.5 -24q0 -55 -57.5 -92.5t-135.5 -60t-156.5 -31.5t-123.5 -9q-102 0 -191.5 31.5t-156 92 t-105.5 146.5t-39 195zM287 532q0 -2 1 -8t1 -8q53 -43 113.5 -52t125.5 -9q33 0 98.5 10t129 32.5t111.5 55.5t48 80q0 33 -7 72.5t-24.5 75.5t-45 59.5t-68.5 23.5q-31 0 -79 -12t-102 -34.5t-107.5 -53.5t-97.5 -68t-70.5 -79t-26.5 -85z" />
<glyph unicode="f" horiz-adv-x="622" d="M0 614q0 6 4 23.5t19 17.5h141q4 0 17.5 3.5t13.5 13.5q0 2 -2 2q-25 135 -43.5 257t-18.5 253q0 199 62.5 390t216.5 345q18 20 53 36.5t73.5 30t76.5 22.5t67 15q4 0 18.5 2.5t32 5.5t33.5 6t24 5h5q88 0 159.5 -20.5t122.5 -59.5t80 -97.5t29 -133.5v-15q-2 -4 -5 -17 t-7.5 -28.5t-8.5 -30t-6 -20.5q-8 -10 -12 -14t-17 -4q-35 0 -63.5 17t-28.5 48q0 23 4 44.5t4 45.5q0 82 -37.5 119t-140.5 37q-49 0 -88 -10.5t-82 -20.5q-139 -43 -220 -133t-124 -201.5t-55 -232.5t-12 -228q0 -100 19.5 -207.5t41.5 -205.5q4 -2 5 -9.5t5 -9.5 q35 -6 84 -8t93.5 -11t76 -29.5t31.5 -63.5q0 -23 -17.5 -33t-39.5 -10q-51 0 -101.5 5t-103.5 5v-535l-17 -20q-6 -2 -12 -2h-16q-49 0 -73.5 18.5t-35 46t-10.5 61.5v64v93q0 4 2 26.5t3 47t3 47t2 26.5t-1 19.5t-3 33t-4 32.5t-2 19v14.5t-6 18.5q-25 0 -60.5 3 t-68.5 13.5t-56.5 29t-23.5 48.5z" />
<glyph unicode="g" horiz-adv-x="974" d="M-578 -1208q0 20 15.5 24t34.5 4q55 0 111.5 -7t111.5 -16t111.5 -16.5t113.5 -7.5q117 0 214 32t200 83q61 31 128.5 85t98.5 116q57 117 88 239.5t45.5 249.5t16.5 255t2 253v39q-2 8 -15 8q-29 0 -56.5 -15.5t-55.5 -21.5q-25 -6 -41.5 -10t-29.5 -6t-28.5 -2h-40.5 q-74 0 -150.5 23.5t-138 67.5t-100.5 106.5t-39 140.5q0 90 45.5 183t119 169t167.5 124t193 48q51 0 99 -8t95 -25q8 18 8 40t2.5 41.5t11.5 31.5t40 12q47 0 70.5 -33.5t39.5 -68.5v-121q0 -227 -13 -453.5t-19 -451.5q-4 -182 -21.5 -355.5t-58.5 -353.5 q-25 -104 -82.5 -189t-136 -150.5t-176 -113t-203.5 -75.5q-53 -16 -102.5 -28.5t-104.5 -12.5q-143 0 -288.5 30.5t-262.5 108.5q-14 10 -16.5 13.5t-2.5 13.5zM190 389q0 -49 19.5 -81t51.5 -48t74 -22.5t87 -6.5q23 0 70 11.5t95 29t86 39t40 43.5q2 2 3 14.5t3 27 t3 28.5t1 22v48q4 57 9 114.5t5 114.5q0 20 -16 32.5t-40 19.5t-48.5 9t-38.5 0q-68 -8 -138.5 -46t-130 -93t-97.5 -121.5t-38 -134.5z" />
<glyph unicode="h" horiz-adv-x="1040" d="M76 92q0 35 3 62.5t7 66.5v416v420q0 8 -2 45t-3 80t-3 79.5t-2 47.5q0 115 4 244.5t14 248.5q0 10 9.5 21.5t15.5 15.5q4 0 14 2t14 2q23 0 38.5 -11t25.5 -27.5t19.5 -36t19.5 -35.5q2 -6 3 -21.5t3 -32t3 -33t1 -22.5q0 -8 -3 -28.5t-7 -24.5v-676l10 -111h2h6 q10 10 17 11q31 35 70.5 73.5t83.5 70.5t91.5 53.5t94.5 21.5q53 0 93 -21.5t69.5 -56.5t52 -81t41.5 -97q41 -115 69.5 -213.5t28.5 -216.5q0 -41 -1 -87t-7 -93.5t-17.5 -92.5t-31.5 -80h-39q-41 0 -73 15.5t-32 64.5q0 74 13.5 143.5t13.5 143.5q0 43 1 83v7q0 36 -9 74 q-2 8 -7.5 24.5t-10.5 35t-10 35.5t-7 24q-2 4 -7 18t-12.5 31.5t-13.5 33t-8 23.5q-2 6 -7 17.5t-11.5 23.5t-10.5 21.5t-6 11.5q-10 16 -24 16q-31 0 -63 -21.5t-56 -41.5q-59 -53 -110.5 -102.5t-80.5 -129.5q-20 -59 -39.5 -123.5t-27.5 -128.5q-2 -27 -4 -77t-10.5 -99 t-26 -86t-49.5 -37q-47 0 -83 32t-36 85z" />
<glyph unicode="i" horiz-adv-x="407" d="M61 213v4l45 397q-2 10 -2 40t2 38q0 6 5.5 34t10.5 62.5t11 70.5t10 54q2 16 7.5 36t14.5 35t22.5 25.5t35.5 10.5q55 0 89 -39t34 -90q0 -41 -8 -80t-17.5 -79t-15.5 -80q-4 -30 -5 -62q0 -11 1 -21l-47 -387v-28q0 -27 5 -50.5t5 -48.5q0 -16 -14 -29.5t-31 -13.5 q-43 0 -73.5 17.5t-49 46t-27 64.5t-8.5 73zM188 1317q0 20 5.5 40.5t23.5 31.5q4 0 20.5 1t22.5 1q115 0 115 -113q0 -33 -8.5 -54.5t-53.5 -21.5q-47 0 -86 35t-39 80z" />
<glyph unicode="j" horiz-adv-x="368" d="M-1108 -786q35 0 71 -17.5t71.5 -42t69.5 -50.5t62 -40q70 -35 133.5 -53.5t139.5 -18.5q145 0 245.5 32t169 95.5t110.5 154.5t73 212q25 92 39 181t14 188q0 117 -5 229.5t-5 228.5v76q0 4 1 15.5t3 24.5t3 24.5t1 13.5v22.5v38v38v22.5t2 26.5t4 48t3 49t1 29.5 q0 18 -1 65v16q0 40 4 82q5 50 21.5 88t53.5 38q31 0 51.5 -14.5t32.5 -34.5t17.5 -46t5.5 -46q0 -8 -1 -11.5t-6 -11.5q-17 -103 -17 -203v-11v-19q0 -96 -9 -197v-676q0 -102 -20.5 -198.5t-45.5 -194.5q-2 -4 -7 -23.5t-10 -43t-10 -43t-7 -23.5q-35 -96 -101.5 -168 t-155 -119t-190.5 -71.5t-207 -24.5q-137 0 -257 43t-224 123q-10 8 -30.5 34.5t-41 58.5t-36 62t-15.5 42zM225 1389q0 27 13.5 45t48.5 18q39 0 74.5 -28.5t35.5 -65.5q0 -29 -19.5 -54.5t-53.5 -25.5q-23 0 -40.5 10t-30.5 26.5t-20.5 36.5t-7.5 38z" />
<glyph unicode="k" horiz-adv-x="1064" d="M92 459v995l25 229q2 16 24.5 20.5t32.5 4.5q47 0 70.5 -37t23.5 -76q0 -223 -8 -446t-8 -449v-157l8 -15q2 0 8 2t8 5q121 102 210 224t178 251q10 16 26.5 20t36.5 4q35 0 58.5 -34.5t23.5 -69.5q0 -16 -10.5 -32.5t-20.5 -33.5q-72 -115 -154.5 -208t-172.5 -197v-4 q0 -6 8 -13.5t17 -13.5t18 -10l10 -4q18 -10 64 -35t96.5 -51.5t95.5 -50t63 -31.5q27 -16 61 -41t64.5 -55.5t52 -64.5t21.5 -67q0 -20 -19.5 -35.5t-37.5 -15.5q-27 0 -45.5 10.5t-34 24.5t-29.5 31.5t-33 34.5q-23 23 -51 42t-55 35q-23 12 -79 41t-118.5 62t-119 62.5 t-78.5 39.5q-6 4 -26 12.5t-28 12.5h-4q-10 0 -11 -14.5t-1 -18.5q0 -51 5 -100t5 -103q0 -10 -1 -43t-1 -43q-4 -14 -16.5 -26.5t-26.5 -12.5q-47 0 -69.5 18.5t-29.5 47.5t-7 64.5t-2 70.5q-4 59 -8.5 119.5t-8.5 124.5z" />
<glyph unicode="l" horiz-adv-x="360" d="M74 393v43q0 145 7 290.5t15 290t15.5 290t7.5 290.5q0 90 -4 179.5t-4 179.5v53q6 23 20 30t35 7q57 0 88 -44t31 -104q0 -27 2 -93t3 -141t2 -141.5t2 -92.5v-19q0 -123 -9 -245t-18 -243.5t-17 -243.5t-8 -245q0 -35 -1 -82q0 -24 -0.5 -47t0.5 -47q1 -47 4 -92 t13 -76l8 -8l10 -10q1 -7 1 -13q0 -25 -13 -49q-16 -30 -47 -30q-23 0 -26 3t-31 15q-25 10 -44.5 20.5t-23.5 42.5q-2 8 -4 32t-5 48.5t-5 47t-2 32.5v42t-1 64.5t-1 65.5z" />
<glyph unicode="m" horiz-adv-x="1368" d="M76 991q0 82 1 154t7 153q16 6 26.5 7.5t26.5 1.5h27q20 -20 41.5 -50t21.5 -61v-18q0 -6 -2 -31t-3 -53.5t-2 -54t-1 -31.5v-2v-7q0 -16 2 -58t5 -89t5 -89t2 -58h9q4 0 11 23.5t20.5 59t32 76.5t44 77t57 59.5t70.5 23.5q45 0 81 -28.5t61.5 -70.5t43 -91.5t28.5 -91.5 t17.5 -70.5t10.5 -28.5h6q14 25 20.5 56.5t12.5 54.5q10 33 26.5 82t40 95t53 79.5t68.5 33.5q47 0 82 -33.5t59 -70.5q61 -92 97.5 -184t54.5 -188.5t27.5 -197t19.5 -210.5q4 -33 12.5 -70t8.5 -70q0 -27 -20.5 -32.5t-39.5 -5.5q-57 0 -81 46t-32 110q-6 50 -6 100v26 q1 32 1 56.5t-1 41.5q-4 51 -14 121t-27.5 139.5t-45 131t-68.5 98.5q-25 -20 -44.5 -69.5t-35.5 -115t-27.5 -141t-20.5 -146.5t-13.5 -132.5t-6.5 -95.5q-4 -47 -10 -72t-57 -25q-31 0 -49.5 15.5t-28.5 39t-16.5 50t-10.5 51.5q0 4 -3 23.5t-7 43t-7 43t-3 25.5 q-2 10 -9.5 45t-16.5 78t-18 84t-14 61q-4 12 -13 50t-20.5 78t-23.5 71t-24 31q-16 0 -34 -31t-36 -78t-34.5 -103.5t-30 -108.5t-21.5 -93t-10 -55q-2 -8 -6.5 -30.5l-9.5 -47.5t-9 -47.5t-6 -30.5q-12 -16 -14 -50t-5.5 -68.5t-14.5 -61.5t-44 -27q-82 0 -100 74 q2 45 2 90q0 68 -4 136q-6 114 -15.5 226.5t-17.5 225.5t-8 227z" />
<glyph unicode="n" horiz-adv-x="1097" d="M104 893q2 35 4.5 61.5t12.5 65.5q6 23 18.5 29t34.5 4q33 -4 61.5 -30t26.5 -60l-14 -222q4 -37 5 -75.5t11 -77.5q2 0 4 -2l4 2l4 4q2 2 2.5 4t2.5 4q31 68 62.5 120t70.5 98t85 88t105 87q27 14 41 20.5t45 4.5q51 -4 89 -33t65.5 -70t45 -89t28.5 -89q23 -90 40 -188 t27 -193q-2 -4 -1 -8v-10q0 -180 46 -358q-8 -23 -18.5 -35.5t-34.5 -10.5q-35 2 -51.5 11.5t-24.5 24t-10 34t-6 43.5q-4 25 -22.5 44.5t-22.5 47.5q-16 86 -18.5 174t-7.5 176.5t-20.5 175.5t-58.5 166q-2 4 -9 15.5t-11 15.5l-5 5t-5 1q-2 0 -11.5 -3t-13.5 -7 q-39 -31 -80 -66.5t-77 -76.5t-63.5 -86t-39.5 -94q-23 -80 -38 -165t-30 -169q0 -4 -1 -23.5t-2 -42t-3 -42t-2 -25.5q-4 -27 -20.5 -43.5t-44.5 -14.5q-20 2 -41 11.5t-31 29.5q-14 25 -19.5 52.5t-8.5 57t-4 58.5t-5 57q-24 154 -50 306q-19 111 -19 225q0 43 3 86z" />
<glyph unicode="o" horiz-adv-x="1040" d="M-14 571q0 86 29.5 153t80.5 120t120 97t144 81q18 8 33 19.5t28 20.5t27.5 15t36.5 6q102 0 208 -26.5t192 -79.5t141 -133t55 -187q0 -96 -31.5 -209.5t-94 -211t-158 -163t-222.5 -65.5q-35 0 -80.5 1t-80.5 5q-106 16 -186.5 71.5t-134.5 132.5t-80.5 169t-26.5 184z M137 512q0 -84 25.5 -153.5t75 -121t122 -79t166.5 -27.5q100 0 176 58.5t127.5 143.5t76 181t24.5 172q0 55 -30 102.5t-77 81t-104 52t-115 18.5q-47 0 -110.5 -24.5t-126 -63.5t-114.5 -84t-77 -84q-16 -23 -21 -49.5t-18 -54.5v-68z" />
<glyph unicode="p" horiz-adv-x="1089" d="M57 -57q0 162 11.5 322.5t13.5 320.5q0 31 1 108.5t1 165.5t-1 166t-1 109q8 23 21.5 26.5t35.5 3.5q16 0 33.5 -9t33 -23.5t26 -33t10.5 -36.5v-254l6 -27q29 25 49 60t53 57q66 53 143.5 90t163.5 37q57 0 102.5 -16.5t98.5 -44.5q109 -66 157 -174.5t48 -233.5 q0 -47 -4 -82t-12 -92q-10 -12 -11.5 -31.5t-5.5 -29.5q-18 -61 -66.5 -122t-113 -110t-135 -78.5t-131.5 -29.5q-72 0 -122 18t-112 53q-12 6 -28.5 24.5t-33 38t-30.5 35t-22 15.5q-10 0 -9.5 -11.5t0.5 -15.5q0 -6 -2 -33.5t-3 -59.5t-2 -59.5t-1 -35.5v-2 q0 -135 10.5 -281.5t26.5 -285.5q0 -4 4 -25t4 -25v-16q0 -27 -18.5 -36t-42.5 -9q-47 0 -70.5 28.5t-34 68.5t-12.5 84t-4 77q0 20 -3 68.5t-7 100.5t-7.5 98t-5.5 63q0 4 -1 36t-1 48zM270 358q2 -2 4 -6t2 -6t3 -4q4 -6 12 -17.5t17 -24.5t16.5 -23.5t9.5 -12.5 q20 -29 38.5 -53.5t39 -41.5t46 -27.5t60.5 -10.5q98 0 172 40t123 106.5t73.5 150.5t24.5 174q0 51 -14 100.5t-43 88t-71 63.5t-95 25q-31 0 -69.5 -12.5t-75.5 -32t-69 -46t-50 -53.5q-20 -33 -32.5 -69.5t-29.5 -71.5q-2 -4 -10 -20.5t-16 -35t-16.5 -35t-10.5 -18.5 q-10 -29 -24.5 -63.5t-14.5 -63.5z" />
<glyph unicode="q" horiz-adv-x="1204" d="M29 477q0 94 44 189.5t117.5 171t171 123t205.5 47.5q127 0 219 -103q4 -4 6.5 -26.5t2.5 -28.5v-21q0 -4 10 -12t14 -12q14 -10 36 -25.5t41 -30t34 -25.5l16 -11h15q4 35 10 69q4 29 7 59.5t5 51.5v29q2 4 4 16t5 25.5t5 25.5t4 19q6 8 19.5 17t23.5 9q39 0 77 -26 q36 -26 36 -62q0 -7 -2 -22q-2 -13 -5 -28t-5 -28.5t-2 -17.5q-25 -254 -30 -504t-17 -504q-8 -135 -18.5 -265t-14.5 -263q0 -47 2 -112v-18q0 -54 -10 -99q0 -6 -8.5 -16.5t-14.5 -12.5q-2 0 -8 4t-8 4q-27 2 -46.5 3t-31.5 8t-20.5 22.5t-10.5 44.5q0 8 -1 26.5t-1 38 t-1 38t-1 26.5q0 229 16.5 456.5t16.5 456.5h-6q-82 -72 -173 -122t-210 -50q-102 0 -195.5 38t-165 101.5t-114.5 148.5t-43 177zM188 465q0 -63 25 -120.5t69 -101.5t103 -70t131 -26q84 0 152.5 35t118 92.5t76 127t26.5 141.5q0 43 -45 83t-103.5 78.5t-118 72.5 t-85.5 65q-4 0 -8.5 1t-6.5 1q-8 0 -11 -1l-6 -2t-8 -4t-18 -8q-55 -23 -107.5 -60.5t-93 -86.5t-65.5 -104.5t-25 -112.5z" />
<glyph unicode="r" horiz-adv-x="806" d="M76 508v32.5t1 40t1 33.5v15q0 25 6 84t12 124.5t12.5 124t10.5 80.5q4 4 9 13.5t13 13.5q4 0 14.5 1t14.5 1q47 0 64.5 -26.5t17.5 -67.5q0 -31 -3 -62.5t-3 -60.5v-27q0 -2 2 -4l4 -4l4 -2l4 2q0 4 6 9.5t8 5.5q98 78 226.5 131t259.5 53q27 0 53.5 -5t48 -16.5 t34.5 -31t13 -50.5q0 -4 -1 -14t-1 -12q-6 -14 -22.5 -17.5t-28.5 -3.5q-16 0 -25.5 6.5t-23.5 6.5q-57 0 -125 -15.5t-133.5 -43t-121.5 -66.5t-91 -84q-37 -51 -51.5 -111.5t-32.5 -120.5q-2 -12 -14.5 -19t-12.5 -22v-397q0 -4 -11 -14.5t-17 -14.5h-11q-55 0 -77.5 38 t-26.5 85q-4 111 -5 207t-1 205z" />
<glyph unicode="s" horiz-adv-x="1015" d="M-6 403q0 18 24.5 40t53.5 22q27 0 37 -12q12 -14 16 -33t16 -33q18 -25 59.5 -73t92.5 -97t103.5 -85t92.5 -36q57 0 116 24.5t106 62.5t75.5 84t28.5 87q0 53 -45 98.5t-110.5 80t-138 61.5t-128.5 45q-2 0 -13 3t-23.5 8t-23.5 10.5t-14 7.5q-47 31 -89 67.5t-42 87.5 q0 57 48.5 96t119 62t149.5 33t138 10q66 0 120 -9t107 -40q8 -4 20.5 -13.5t12.5 -11.5v-65q-2 0 -6 -2q-8 -4 -10 -4h-6q-2 0 -13.5 -3.5t-13.5 -3.5h-2q-37 0 -69.5 12.5t-71.5 12.5q-47 0 -95.5 -3t-94.5 -11.5t-87 -25.5t-74 -44q-2 -4 -4 -6t-2 -4t-2 -2v-2 q0 -6 21.5 -19.5t51.5 -27t57.5 -24.5t39.5 -17q88 -35 169 -72t142.5 -83t98.5 -106.5t37 -142.5q0 -68 -38 -121t-98.5 -93t-136 -69.5t-149.5 -52.5h-12q-80 0 -146.5 31t-122 76t-99.5 96t-81 92q-31 33 -61.5 64.5t-30.5 72.5z" />
<glyph unicode="t" horiz-adv-x="991" d="M49 653q0 193 15.5 389.5t56.5 387.5l55 571q2 16 21.5 30.5t33.5 14.5q45 0 69 -38t24 -77q0 -53 -9.5 -105t-13.5 -104v-22q-8 -94 -16.5 -192.5t-24.5 -192.5q0 -4 -2 -11.5t-4 -9.5l-47 -446l8 -82q25 -2 47 -4q20 -2 41 -4t37 -2h51q6 0 28.5 -1t48.5 -2t47.5 -3 t27.5 -2h64.5t71.5 -7.5t58.5 -28t24.5 -63.5q0 -41 -27.5 -50t-62.5 -9h-21q-12 0 -54 1t-90 3t-90 3t-52 1h-9h-33.5t-40 -2t-39 -8t-28.5 -19q0 -10 -1 -33.5t-1 -29.5q0 -94 18.5 -173t61.5 -135.5t114.5 -88t178.5 -31.5q104 0 207 31q31 10 59.5 24t58.5 14 q29 0 42.5 -28.5t13.5 -50.5q0 -49 -43 -77t-101.5 -40t-117 -14.5t-91.5 -2.5h-104q-147 27 -237.5 92.5t-140.5 160t-66.5 213t-16.5 253.5z" />
<glyph unicode="u" horiz-adv-x="1048" d="M74 557q0 53 10 109q7 40 7 78q0 15 -1 30l47 209q-3 11 -3 23q0 22 14 46q20 34 57 35q47 0 75.5 -26.5t28.5 -71.5q0 -51 -19.5 -108.5t-27.5 -106.5q-2 -6 -4 -24.5t-4 -39t-4 -39t-2 -24.5q-2 -4 -6 -18.5t-4 -18.5v-248q0 -23 6 -56.5t19 -64t37 -53t58 -22.5 q51 0 115 42t123 102.5t104 125t62 111.5q12 41 14 83t2 83q0 59 -9 119.5t-9 119.5q0 16 13 40t30 24q51 0 76.5 -24.5t37 -61.5t13.5 -78t2 -72v-27.5v-46v-46v-27.5q2 -35 6 -105.5t8 -146.5t7 -140.5t3 -82.5q0 -8 4.5 -37t7.5 -61.5t7 -62.5t4 -38v-29v-28 q-6 -8 -27 -17q-8 -4 -20 -6h-2q-35 0 -56.5 14.5t-35 38t-20.5 51t-9 52.5q-2 12 -6 41.5t-8 63.5t-7.5 63.5t-3.5 42.5h-8q-37 -39 -81 -79t-94 -73t-105.5 -54.5t-112.5 -21.5q-109 0 -170 57.5t-92 140.5t-39 176t-8 165z" />
<glyph unicode="v" horiz-adv-x="991" d="M-20 979q0 18 10 31.5t33 13.5q37 0 66.5 -14.5t45.5 -42.5q10 -68 34 -148t53.5 -160.5t63 -157.5t64.5 -139q6 -12 17.5 -32.5t22.5 -40t19.5 -33.5t10.5 -14l16 -17q14 10 27.5 32t17.5 32q66 125 122 245.5t116 245.5q4 6 12 22.5t12 20.5q16 27 33 72t40.5 89t54 76 t75.5 32t67.5 -25t22.5 -61q0 -29 -13 -39.5t-26 -32.5q-6 -10 -18 -32.5t-26.5 -47.5t-26 -45.5t-13.5 -28.5q-20 -35 -43.5 -75.5t-33.5 -79.5q-74 -154 -144.5 -302.5t-142.5 -302.5q-6 -16 -21.5 -22t-33.5 -6q-47 0 -95.5 45t-92.5 113.5t-84 150.5t-70.5 155.5 t-52 130t-27.5 72.5q-29 78 -60.5 156t-31.5 164z" />
<glyph unicode="w" horiz-adv-x="1447" d="M0 588q-2 33 -2 65q0 69 9 135q13 96 30 201q2 10 2 22.5t3 25t11 20.5t25 8q18 0 38.5 -6t38 -18.5t30 -29t12.5 -32.5l-2 -8q-31 -113 -37 -229q-3 -50 -3 -99q0 -66 5 -133q0 -10 3 -40t3 -40q6 -10 7 -14t1 -6t-1 -6.5t1 -14.5q0 -4 4 -16.5t8 -25.5t9.5 -25.5 t7.5 -18.5q6 -16 18 -46t29.5 -60.5t37 -53t40.5 -20.5q31 2 58.5 20.5t47.5 38.5q43 41 78 95.5t59.5 115t38 123t13.5 119.5q0 2 -1 16.5t-1 30.5t-1.5 29.5t-1.5 17.5q0 8 -1 29.5t-2 44t-1 44v30.5q2 20 16.5 31.5t35.5 13.5h5q37 0 69 -27q34 -29 38 -68l17 -262 q8 -29 14 -72.5t13 -93t19.5 -98.5t32.5 -88q22 -39 52 -61q28 -21 70 -21h8q49 2 91 43t74.5 96.5t54 114.5t31.5 98q2 6 6.5 23.5t9.5 37t8 37t5 23.5q-4 31 3 61.5t5 59.5t-5 57.5t-17 57.5t-31.5 52t-19.5 56q-2 27 9 53.5t46 28.5q20 0 39.5 -8t35 -23.5t24.5 -34 t7 -38.5q25 -43 41.5 -86t20.5 -95q2 -29 2 -59q0 -112 -30 -224q-38 -142 -109 -265q-2 -4 -15.5 -20.5t-17.5 -22.5q-6 -6 -19.5 -20.5t-29 -30t-28.5 -30t-19 -20.5q-25 -16 -60 -30.5t-63 -16.5h-21q-116 0 -200 62q-92 68 -127 182l-15 12q-2 0 -4 -2l-4 -4 q-29 -43 -60.5 -87t-70.5 -82t-86 -63.5t-107 -27.5h-16q-58 0 -103 26q-51 30 -89.5 82t-66.5 117.5t-45.5 132t-26.5 129t-11 105.5z" />
<glyph unicode="x" horiz-adv-x="970" d="M23 88q0 18 13 38.5t32.5 41t40 38t32.5 34.5q10 12 37 39.5t55.5 59.5t54 59.5t36.5 39.5q8 6 8 12.5v16.5q0 23 -17.5 40t-29.5 38q-49 78 -99.5 152.5t-91.5 156.5q-16 31 -33.5 55.5t-13.5 59.5q2 23 27.5 30t44.5 7q23 0 46 -10.5t40 -26.5q2 -2 5 -11.5t3 -11.5 q35 -80 80 -154.5t94 -148.5q10 -16 24.5 -33.5t30.5 -31.5l33 28q8 12 34 44t53.5 68t52 66.5t34.5 42.5q4 4 16.5 17.5t16.5 17.5q2 6 11 18.5t19.5 26t19.5 24.5t13 15q12 16 22.5 39t25 42.5t33 33.5t44.5 14q41 0 69 -24.5t28 -61.5q0 -20 -1 -29.5t-16 -25.5 l-293 -369q-2 0 -4 -3t-4 -3q-6 -8 -20.5 -25.5t-29.5 -36t-28.5 -33.5t-15.5 -20q-10 -6 -10 -14q0 -2 3 -10t7 -12l252 -347q6 -8 11 -18t5 -20q0 -14 -12 -34t-31 -20h-12q-6 0 -14.5 1t-18.5 3t-22 4q-16 8 -38 31t-34 39q-10 14 -35.5 50t-54.5 75t-54.5 74t-35.5 49 l-27 14l-8 -8q-12 -14 -45 -50t-71 -76t-72.5 -77t-49.5 -51q-12 -12 -24 -22.5t-33 -10.5q-41 0 -74.5 14.5t-33.5 59.5z" />
<glyph unicode="y" horiz-adv-x="892" d="M-879 -846q0 14 7 23q4 4 12 5t10 1q4 2 14.5 2t10.5 -4q2 0 11 -7.5t13 -11.5q123 -68 252 -92q86 -16 180 -16q48 0 97 4q133 12 260 55t237.5 112.5t200.5 164t149 209.5q2 4 5.5 15t7.5 15q45 135 74 283q23 111 23 220q0 37 -3 73v14t-10 8q-29 -31 -61.5 -66.5 t-69.5 -66.5t-78 -52.5t-88 -25.5q-13 -1 -25 -1q-65 0 -118 26q-62 31 -107 85t-70.5 121.5t-31.5 133.5q-5 45 -5 88q0 53 7 103q12 94 22 190q2 16 0 32.5t2 32.5q10 47 23 95q11 38 11 76q0 11 -1 22q10 16 22.5 20t34.5 7h11q40 0 54 -26q17 -30 21 -69q1 -11 1 -22 q0 -29 -8 -58q-11 -38 -19 -79q-14 -111 -27 -233q-8 -70 -8 -137q0 -49 4 -97q2 -25 16.5 -59t37 -64.5t50 -52t58.5 -19.5q35 2 74.5 30.5t78.5 70.5t76 94.5t64.5 103.5t45 96t21.5 74q2 64 2 127t-2 127q-4 127 -20 256q10 14 20 21.5t29 9.5h9q36 0 56 -28 q21 -32 29 -66l12 -86q7 -92 7 -184v-23v-15q0 -95 12 -188l-25 -567q-4 -72 -19.5 -140.5t-35.5 -140.5q0 -4 -5 -22.5t-10.5 -39t-9.5 -39t-6 -22.5q-27 -78 -79 -150.5t-118.5 -136t-141.5 -117t-144 -89.5q-68 -29 -129.5 -51.5t-122.5 -41t-124.5 -31t-135.5 -18.5 q-65 -5 -133 -5h-23q-80 1 -155.5 17.5t-144 50.5t-120.5 93q-10 10 -24.5 23.5t-16.5 29.5z" />
<glyph unicode="z" horiz-adv-x="1114" d="M29 80q0 20 15 39.5t36 36.5q4 4 20.5 17t37 28.5t36.5 29t21 17.5q111 92 207 193.5t186 203.5q31 35 57.5 77t26.5 83q0 31 -21.5 49t-54.5 28.5t-68.5 14.5t-66.5 4q-37 0 -56.5 -9t-35 -19.5t-29.5 -19.5t-41 -9q-53 0 -83 24.5t-30 63.5q0 31 28 49t68 28.5t82 13.5 t70 3h66q12 -8 25.5 -11t28.5 -4t30.5 -3t29.5 -9q45 -14 85 -33.5t71 -44t49.5 -57.5t18.5 -71q0 -51 -17.5 -103.5t-58.5 -93.5l-387 -397q-14 -10 -39 -28.5t-25 -33.5q76 0 148.5 3t146.5 3q113 0 208 -14t202 -31q10 -10 24.5 -16t27.5 -14.5t22.5 -18.5t9.5 -24v-7 q-2 -4 -7.5 -21t-9.5 -22h-4q-53 0 -105 7.5t-104.5 16.5t-104.5 17.5t-106 8.5h-28l-461 -31h-10q-51 0 -91 22.5t-40 63.5z" />
<glyph unicode="{" horiz-adv-x="870" d="M35 768q0 8 6 14t10 11q35 6 81 20t87 37.5t69.5 57.5t30.5 81l11 340q10 39 8 78t8 78q8 31 31.5 63.5t56.5 61t69 47t66 22.5q2 0 14.5 1t28 2t29.5 2.5t25 1.5h8q12 0 31.5 -2.5t38 -8.5t31.5 -16t13 -29q0 -16 -21.5 -23.5t-49 -10.5t-56 -4t-40.5 -7 q-61 -25 -95 -57.5t-49.5 -74.5t-18.5 -92t-5 -110q0 -6 -1 -24.5t-2 -40t-2.5 -41t-1.5 -23.5q0 -33 1.5 -70.5t-2 -74.5t-13.5 -72t-35 -61q-4 -4 -14 -15.5t-21.5 -22.5t-22.5 -21.5t-15 -14.5v-2q0 -12 12 -17.5t27.5 -9.5t27.5 -10t12 -20q0 -29 -17 -59.5t-24 -59.5 q-10 -55 -13 -111.5t-3 -111.5q0 -27 6 -57.5t10 -53.5q16 -82 75 -120t136 -38q45 0 88.5 11.5t86.5 11.5q23 0 51 -15.5t28 -39.5q0 -29 -26.5 -44.5t-62.5 -21.5t-71.5 -7t-52.5 -1q-25 0 -48 5t-46 1q-90 18 -147.5 54t-90 89.5t-46 122t-13.5 150.5q0 41 1 78.5t5 80.5 q2 20 9.5 47t7.5 50v11t-10 3q-8 2 -27 4t-39 5t-38.5 5t-25.5 5q-27 4 -49 18t-22 45z" />
<glyph unicode="|" horiz-adv-x="368" d="M88 688q0 119 9 235.5t20 233.5q0 2 3 4t5 4q4 2 17.5 10.5t17.5 10.5q14 -8 34.5 -14.5t39 -15.5t30.5 -22.5t12 -33.5q0 -111 -15 -218.5t-15 -217.5q0 -12 1 -24.5t7 -25.5q-4 -102 2 -202.5t6 -202.5v-174q-10 -27 -24.5 -35t-42.5 -8q-81 -1 -101 71q4 160 -1 313.5 t-5 311.5z" />
<glyph unicode="}" horiz-adv-x="708" d="M55 72q0 16 10.5 23t24.5 14q39 2 79 7t77 16t70.5 30.5t58.5 52.5q10 14 19 44t16.5 61.5t11.5 61.5t4 46q0 63 -7 128t-28 124q-6 20 -17.5 38.5t-11.5 41.5q0 14 10.5 26.5t22 23.5t21.5 21.5t10 22.5t-9 19.5t-14 17.5q-16 25 -20 48.5t-4 51.5v23.5t2 17.5q0 8 4 33 t8 52.5t8.5 53t6.5 37.5q10 51 25.5 98.5t15.5 100.5q0 61 -10.5 101t-69.5 59q-16 4 -34 10t-36 6q-12 0 -22.5 -3t-20.5 -3q-35 0 -63.5 20.5t-28.5 57.5q0 14 12 24q29 10 45.5 11.5t42.5 1.5q35 0 71 -10.5t68 -24.5q49 -25 82 -48.5t52.5 -54t27.5 -71.5t8 -97v-65 q-23 -80 -43 -170t-20 -176q0 -35 20.5 -48.5t45 -21.5t45 -18t20.5 -41q0 -23 -16.5 -36t-38 -24.5t-43 -23.5t-33.5 -31v-14q0 -16 7 -34.5t11 -35.5q10 -53 19.5 -108.5t9.5 -108.5q0 -41 -4 -86t-16.5 -90t-34 -85t-53.5 -67q-23 -18 -50.5 -32.5t-52.5 -30.5 q-45 -10 -99 -21.5t-102 -11.5q-29 0 -59.5 16.5t-30.5 49.5z" />
<glyph unicode="&#xa1;" horiz-adv-x="409" d="M63 1784q0 25 25 43t53 18q14 0 30.5 -8t30 -19.5t25 -22.5t15.5 -17q0 -4 2 -15.5t2 -15.5q0 -23 -9.5 -43.5t-43.5 -20.5q-45 0 -87.5 31t-42.5 70zM117 113q0 29 4 50t20 56q2 14 6.5 49t7.5 74t6 74t3 47v94q0 33 1 78t-9 80q0 20 1 70.5t1 106.5t-1 106.5t-1 70.5 q-2 68 -12.5 136.5t-10.5 140.5q0 25 14.5 45t53.5 20q12 0 17 -1t20 -9q25 -23 46 -40.5t23 -47.5q0 -6 1 -25.5t2 -41t3 -41t2 -23.5q0 -6 2 -22.5t4.5 -35t5.5 -34t3 -21.5v-426q6 -31 7 -53.5t1 -50.5v-43q0 -25 -4 -69t-7 -90t-7.5 -82t-4.5 -44q0 -2 -5 -21.5t-11 -44 t-12 -51t-11 -41.5q-6 -23 -20 -29t-37 -6q-41 0 -71.5 31t-30.5 64z" />
<glyph unicode="&#xa2;" horiz-adv-x="956" d="M61 918q0 76 33 134t83 106t110.5 88t113.5 77q14 10 24.5 23.5t12.5 29.5q-6 111 -1 220.5t18 218.5q29 29 67 28q33 0 62.5 -24.5t50.5 -46.5v-50q0 -66 -5 -130t-5 -130v-4q2 -12 5 -35.5t5 -27.5q0 -8 8 -9q29 -6 68 -17t73.5 -29.5t59 -45t24.5 -65.5 q0 -12 -2 -23.5t-18 -15.5q-4 0 -15.5 -1t-15.5 -1q-35 0 -62.5 14.5t-62.5 14.5q-16 0 -31.5 -1.5t-25.5 -17.5q0 -8 -1 -35.5t-1 -36.5q0 -14 1 -40.5t1 -30.5q0 -18 4 -68.5t8 -106t8 -105.5t7 -68h26q23 0 42.5 5t41.5 5q37 0 76 -25.5t39 -66.5q0 -29 -24.5 -47.5 t-56.5 -30.5t-65.5 -18.5t-52.5 -10.5q-10 -2 -10 -10v-14q0 -29 5 -58.5t5 -58.5q0 -16 -5 -34.5t-21 -29.5q-4 0 -20.5 -1t-20.5 -1q-72 0 -96.5 27t-31 63.5t-9 72.5t-29.5 54q-74 23 -144.5 52.5t-126 73.5t-89.5 107.5t-34 156.5zM248 881q0 -35 15.5 -67t41 -56.5 t58 -38.5t65.5 -14q4 0 14.5 1t12.5 1q8 8 9 13t1 15v17q-2 33 -5 84t-6 99t-6 84l-2 36l-8 45h-4q-2 0 -4 2q-27 0 -58.5 -24.5t-59 -58.5t-46 -72.5t-18.5 -65.5z" />
<glyph unicode="&#xa3;" horiz-adv-x="1196" d="M0 190q0 45 27.5 64.5t62.5 29t66.5 14.5t42.5 17q0 8 2 27.5t5 43.5t5 43.5t2 27.5v37v17t-1 24.5t-3 24.5t-4 15q-8 10 -21.5 19.5t-26 19t-21.5 20.5t-9 28v4q23 20 47.5 32.5t24.5 40.5v21q-2 8 -4 37.5t-5.5 63.5t-5.5 63.5t-2 38.5v2q0 68 11.5 139.5t33.5 134.5 q23 23 38.5 48.5t37.5 47.5q66 68 154 84.5t186 16.5q33 0 87 -4.5t107.5 -18.5t92.5 -38.5t39 -63.5q0 -53 -68 -54q-18 0 -27.5 6.5t-16.5 15.5t-14 19.5t-20 18.5q-35 16 -78 23.5t-79 7.5q-109 0 -172.5 -28t-96 -77t-41 -115.5t-8.5 -146.5v-78q0 -10 2 -35.5t5 -54.5 t5 -54.5t2 -35.5q4 -10 8.5 -22.5t14.5 -16.5q10 -2 41 -4t41 -2h6h2q8 0 44 2t77 4t77 4t46 2h33q14 0 41.5 -1t54 -7t47 -17.5t20.5 -29.5q0 -23 -9 -35t-29 -25q-23 0 -81.5 -2t-123 -4t-122.5 -4t-83 -2q-10 0 -22.5 1t-25.5 0t-24.5 -5t-17.5 -14q2 -37 0 -69t-5 -62.5 t-6.5 -61t-3.5 -67.5q0 -8 26 -26.5t58.5 -40t65.5 -42t49 -31.5q37 -25 80 -45t91 -35.5t97.5 -24.5t96.5 -9q43 0 77.5 17.5t77.5 17.5q27 0 60 -9.5t33 -38.5t-30 -48t-71 -32.5t-83 -19.5t-66 -6h-17q-12 2 -40.5 7t-61.5 11.5t-61.5 11.5t-41.5 7q-2 0 -18 6t-37.5 13 t-44 14.5t-35.5 11.5q-47 16 -82.5 47t-76.5 55q-6 2 -15.5 8.5t-18.5 10.5l-18 8l-8 4h-16q0 -4 -2 -10q-4 -12 -4 -15q-6 -23 -12.5 -49t-32.5 -41h-37q-37 0 -67 10.5t-53.5 27t-45 39t-41.5 44.5q-4 4 -20.5 23.5t-16.5 33.5z" />
<glyph unicode="&#xa5;" horiz-adv-x="1038" d="M16 637v14q0 4 2 8l21 21h262q2 0 6 3t8 5l2 4l-2 2q-74 41 -123 80t-79.5 85t-43 105.5t-12.5 139.5q0 68 13.5 135.5t27.5 132.5q4 16 14.5 38t32.5 22q29 0 52.5 -27t23.5 -49q0 -78 -14 -155t-14 -154q0 -72 19 -120t56 -80t93.5 -50.5t130.5 -30.5q29 -4 55 -8 t55 -4q45 0 81 20.5t63.5 50t50 65.5t39.5 66q2 4 7 18.5t7 18.5l41 201q-4 43 2 85t4 87q2 10 9 26.5t24 16.5q59 0 86.5 -39t27.5 -82q0 -39 -4 -73.5t-2 -73.5l-41 -191q0 -2 -2 -8t-4 -10q-4 -6 -9 -17.5t-10 -22.5t-10.5 -20.5t-5.5 -11.5q-6 -12 -18 -30.5t-24.5 -37 t-21.5 -33t-9 -16.5l-62 -55v-10q10 0 41 -1t41 -1q2 0 16.5 3t16.5 3q33 0 60.5 -32t27.5 -58q0 -18 -8 -27.5t-25 -23.5q-41 -2 -88 -4t-92 -2t-88 10t-90 10q-4 0 -23.5 -1t-23.5 -1q-23 -8 -22 -34.5t1 -43.5v-24q8 -6 21.5 -6.5t23.5 -0.5q47 0 93.5 3.5t93.5 3.5 q57 0 103 -1t112 -4q14 0 27.5 -10t23.5 -24.5t16 -29.5t6 -28q0 -29 -26 -47h-82q-47 0 -92 3t-92 3q-51 0 -100.5 -4t-100.5 -2q-18 -6 -24.5 -28.5t-7.5 -56.5t1 -71.5t0 -73.5t-9 -63.5t-28 -38.5h-30q-49 0 -70 29t-21 70q0 33 7.5 65.5t7.5 65.5q0 27 -2 47t-6 49 q-4 6 -13.5 9t-13.5 3h-223q-47 2 -78 28t-31 69q0 4 1 10t1 8q2 4 14.5 15.5t16.5 13.5h55q61 0 122 -3t120 -3q31 0 34 24.5t3 46.5v19l-8 6q-78 -2 -167 0t-163 6q-35 6 -49.5 31.5t-14.5 52.5z" />
<glyph unicode="&#xa8;" horiz-adv-x="1558" d="M346 1249q0 4 1 16.5t1 16.5q12 35 47 51.5t66 16.5q20 0 39 -9q4 -4 16 -12t25.5 -18.5t26 -19.5t16.5 -13q25 -16 27.5 -49t0.5 -60q-2 -47 -28.5 -87t-73.5 -38q-33 0 -62.5 19.5t-53 49.5t-36 65.5t-12.5 70.5zM426 1241q0 -12 6 -27.5t15.5 -29t20.5 -23.5t24 -10 q14 0 19 12.5t7 22.5q0 29 -17.5 51.5t-43.5 24.5q-10 0 -20.5 -4.5t-10.5 -16.5zM754 1225q0 27 17 48t42 36.5t52.5 23.5t47.5 8q20 -2 46 -18t46.5 -41t35 -52.5t14.5 -51.5q-2 -57 -41 -91t-86 -32q-25 0 -55.5 16t-57.5 41t-44 54.5t-17 58.5zM854 1212 q0 -16 20.5 -29.5t32.5 -13.5q14 -2 30.5 2.5t16.5 20.5q0 23 -22.5 38t-40.5 15q-8 0 -21.5 -12.5t-15.5 -20.5z" />
<glyph unicode="&#xa9;" horiz-adv-x="1228" d="M66 907q0 59 19 109.5t48 105.5q27 53 63.5 96.5t86.5 84.5q74 35 143.5 61.5t155.5 36.5q4 0 20 1t34.5 2t35 2t20.5 1q25 4 45.5 10t44.5 6q76 0 136.5 -30.5t113.5 -75.5q4 -4 17.5 -16.5t30 -28t31.5 -30.5t24 -23q25 -27 38 -60t17 -68.5t4 -72.5v-68v-22 q0 -6 -4 -25.5t-8 -41t-8.5 -43t-6.5 -30.5q-14 -68 -72.5 -134t-139.5 -119.5t-172 -86t-171 -32.5q-121 0 -221 39t-173 105.5t-112.5 155.5t-39.5 191zM203 897q0 -33 9 -76t27.5 -87t44 -83t58.5 -61q51 -37 126 -55.5t140 -18.5q57 0 113.5 28.5t101.5 55.5 q68 41 111 81t67.5 86t33.5 100.5t9 123.5q0 76 -15 134.5t-77 113.5q-10 10 -34.5 33.5t-47.5 23.5h-2q-23 -12 -27.5 -18t-21.5 -6q-12 0 -30.5 7t-39 15.5t-41 15.5t-38.5 7q-63 0 -130 -22.5t-120 -49.5q-47 -23 -86 -62.5t-68.5 -87.5t-46 -100.5t-16.5 -97.5zM393 932 q0 37 23.5 74.5t48.5 66.5q41 45 99.5 76t127.5 31q20 0 45 -5.5t45.5 -15.5t33.5 -25.5t13 -35.5q0 -14 -14 -25q-39 2 -70.5 1t-59.5 -9t-52.5 -22.5t-50.5 -41.5q-18 -20 -25.5 -39.5t-7.5 -43.5q0 -35 28.5 -56.5t71.5 -21.5q45 0 89 5t89 5q20 0 37 -8t17 -29 q0 -14 -13.5 -24.5t-31 -18.5t-36 -13t-28.5 -7q-2 0 -16.5 -1t-35 -3.5t-41 -4.5t-32.5 -2h-4q-41 0 -85 16.5t-81 43t-60.5 61.5t-23.5 72z" />
<glyph unicode="&#xaa;" horiz-adv-x="696" d="M23 887q0 59 46 104t105 86q47 29 86 36t100 7q47 0 92.5 -16.5t86.5 -32.5h8q0 8 1 26.5t1 38t1 38t1 24.5q0 14 -7 46t-18.5 65.5t-28 62.5t-36.5 37q-4 0 -13.5 1t-13.5 1q-37 0 -72.5 -12.5t-66.5 -24.5q-63 -27 -101 -69.5t-51 -90.5q-4 -10 -3 -21t-2 -20.5 t-12 -14.5t-30 -5q-14 0 -30.5 11.5t-16.5 21.5v82q0 14 13.5 34.5t23.5 32.5q20 25 54 50.5t76 46t88 34t89 13.5q66 0 122 -29t81 -70q10 -12 14 -25.5t13 -27.5l34 -139q0 -39 3.5 -79t3.5 -77q0 -12 -6.5 -58t-15.5 -97.5t-18.5 -93.5t-15.5 -48q-8 -4 -16 -5t-19 -1 q-25 0 -38 9.5t-21 19.5t-12 19t-13 9h-2q-55 -12 -101 -29.5t-105 -17.5q-51 0 -97.5 8.5t-82 27t-57 46t-21.5 66.5zM133 860q0 -35 35 -43t76 -8q35 0 73.5 9t76.5 23.5t71 34t57 37.5q14 10 16.5 26.5t2.5 29.5q0 16 -18.5 31.5t-44 26.5t-55.5 17.5t-50 6.5 q-49 0 -78 -13.5t-64 -40.5q-41 -33 -69.5 -61.5t-28.5 -75.5z" />
<glyph unicode="&#xad;" horiz-adv-x="974" d="M106 530q0 27 6.5 59t28.5 32q43 0 87 -6.5t87 -8.5q49 -4 123 -8t146 -8q82 -6 172 -8l41 -64q6 -8 6 -30.5v-28.5q0 -4 -1 -8.5t-1 -8.5v-10l-15 -22q-2 -2 -6 -2h-12q-154 0 -303 15t-303 9q-29 4 -42.5 30.5t-13.5 67.5z" />
<glyph unicode="&#xae;" d="M57 862q0 6 1 19.5t1 15.5q27 168 110 302t243 206q63 27 129 27q23 0 45 -6.5t45 -14.5q63 4 114.5 0t116.5 -12q23 -4 51.5 -9.5t51.5 -17.5q43 -25 88 -67.5t80.5 -97t58 -113t22.5 -111.5q0 -47 -11 -103.5t-21 -99.5q-16 -80 -74.5 -155.5t-136.5 -135t-167 -96.5 t-169 -37q-133 0 -244.5 48.5t-189.5 158.5q-25 33 -50.5 68t-46 71.5t-34 76.5t-13.5 83zM199 840q0 -23 1 -38.5t5 -33.5q10 -29 36.5 -71t59.5 -82t69 -71.5t66 -39.5q41 -10 80 -21.5t80 -11.5q94 0 182 49t148 119l-6 6q-23 10 -61 27.5t-79 35t-78.5 31t-58.5 13.5 v-54l-20 -18q-2 -2 -10.5 -2h-12.5q-41 0 -63.5 18.5t-35 47t-15.5 63.5t-3 67q0 35 3 68t3 68v16l-47 57v9q0 20 26 38.5t59.5 33t66.5 21.5t49 7q39 0 85 -11.5t86 -35t66.5 -58t26.5 -79.5q0 -29 -12 -53.5t-31.5 -46t-41 -40t-40.5 -34.5q8 -10 18.5 -16.5t20.5 -8.5 q4 -2 18.5 -8t31 -13.5t30.5 -12.5t19 -7q2 -2 12 -10t21.5 -17.5t22.5 -17.5t15 -8q14 0 27.5 34.5t25 78.5t17.5 86t6 57q0 94 -38 159.5t-103 126.5q-27 14 -70 23.5t-91 12.5t-94 4t-77 1h-21.5t-32 -1t-30.5 -1h-21q-139 -66 -214.5 -185t-75.5 -271zM623 909 q2 -2 4 -6t4 -6q14 0 38.5 15.5t47 36t39 43t16.5 38.5q0 14 -8 22.5t-20.5 12.5t-27 5t-24.5 1h-24q-16 -10 -25.5 -30.5t-13.5 -43t-5 -46t-1 -40.5v-2z" />
<glyph unicode="&#xb0;" horiz-adv-x="696" d="M49 1190q0 51 24.5 95t63.5 77t89 51.5t102 18.5q35 0 80 -20.5t87 -50.5t74.5 -65.5t42.5 -66.5q6 -23 6 -44.5v-43.5q0 -129 -74.5 -188.5t-203.5 -59.5q-61 0 -113.5 25.5t-92.5 67.5t-62.5 95.5t-22.5 108.5zM178 1174q0 -29 10.5 -59t29 -53.5t45 -38.5t61.5 -15 q78 0 121.5 43t43.5 116q0 27 -17 54.5t-43 50t-57.5 36t-60.5 13.5q-10 0 -14 -2t-14 -6q-53 -23 -79 -53.5t-26 -85.5z" />
<glyph unicode="&#xb1;" horiz-adv-x="1067" d="M86 739v37q4 10 20.5 12.5t20.5 2.5h285l6 8l3 27q3 26 5 63t5 76t3 63v119q0 6 3 32.5t14 39.5q6 4 30.5 7t32.5 1q12 -2 27.5 -11.5t28 -21.5t21.5 -26.5t9 -28.5v-305q31 0 61.5 3t61.5 3q49 0 104.5 -16.5t104.5 -24.5q29 -23 39 -51.5t10 -63.5v-35q-4 -6 -11 -9 t-14 -7h-63q-39 0 -74 4t-76 4q-14 0 -33.5 1t-41 1t-40 -4t-28.5 -14v-19q0 -47 8 -93t8 -93q0 -39 -13 -62.5t-58 -23.5t-67.5 22.5t-31 55t-7.5 71.5t1 72t-6 55.5t-26 22.5h-5q-8 0 -35.5 -1t-60.5 -2t-60.5 -3t-33.5 -2h-14q-47 0 -80 34.5t-33 79.5zM94 55v41 q0 35 11.5 58.5t52.5 27.5q2 0 11 -4t13 -4t20.5 -1t35 -2t36 -3t25.5 -2q72 -2 143.5 -4t141.5 -10q37 -4 73.5 -6.5t67.5 -12.5t49.5 -35.5t18.5 -79.5q0 -39 -24 -48t-56 -9q-59 0 -120 10.5t-120 14.5q-47 2 -87 0t-78 -2t-76.5 3t-81.5 13q-16 10 -32 24.5t-24 30.5z " />
<glyph unicode="&#xb4;" horiz-adv-x="1007" d="M119 1055q0 6 1 18t9 17l94 59q94 37 174 75t166 72q4 4 26.5 10.5t28.5 8.5h11q47 0 90 -17.5t43 -48.5v-15t-10 -9q-76 -29 -153 -57.5t-148 -61.5q-49 -23 -92.5 -54.5t-106.5 -33.5q-6 0 -22.5 1t-34 2t-34 2t-22.5 1q-16 6 -18 13t-2 18z" />
<glyph unicode="&#xb5;" horiz-adv-x="1048" d="M74 -59q0 8 4 37.5t7 62.5t7 61.5t4 36.5q0 18 3 83t7.5 140.5t8.5 146.5t6 105v28v46.5v46v27.5q0 31 2 71.5t13 77.5t37 61.5t77 24.5q16 0 29.5 -23.5t13.5 -39.5q0 -59 -9.5 -119.5t-9.5 -120.5q0 -41 2.5 -83t14.5 -83q14 -47 60 -111.5t105.5 -125t123 -102.5 t114.5 -42q35 0 58.5 23t37 53.5t19.5 64.5t6 56v248q0 4 -4 18.5t-6 18.5q0 6 -2 24.5t-4 39t-4 39t-4 24.5q-8 49 -28 106.5t-20 108.5q0 45 29 71.5t76 26.5q37 0 57.5 -35t9.5 -69l48 -209q-4 -53 6 -108.5t10 -108.5q0 -72 -8 -165t-39 -176t-93.5 -140.5t-168.5 -57.5 q-57 0 -112.5 21.5t-106 54.5t-94.5 72.5t-81 78.5h-8q0 -12 -3 -41.5t-7 -63.5t-8 -63.5t-6 -42.5q-4 -25 -10.5 -52t-19.5 -51t-35.5 -38t-55.5 -14h-2q-12 2 -21 6l-16 8t-10 8v29v29z" />
<glyph unicode="&#xba;" horiz-adv-x="753" d="M2 1122q0 53 19.5 95.5t53.5 76t79 60t94 51.5q25 12 39 25.5t43 13.5q68 0 136.5 -16.5t125.5 -50.5t93 -83t36 -116q0 -61 -20.5 -132t-62.5 -132.5t-104.5 -102.5t-144.5 -41h-53.5t-52.5 4q-70 10 -122 45t-88 83t-53.5 105.5t-17.5 114.5zM102 1085 q0 -104 65.5 -170.5t188.5 -66.5q68 0 117 36t82 89t49.5 113.5t16.5 107.5q0 35 -19.5 64.5t-50.5 51t-69 33t-74 11.5q-31 0 -73 -15.5t-83 -40t-75 -52t-50 -52.5q-10 -16 -13 -32.5t-12 -33.5v-43z" />
<glyph unicode="&#xbf;" horiz-adv-x="1056" d="M0 487q0 86 31.5 153t86 117t128 85t157.5 55q45 12 80 22.5t57.5 28t34 46t11.5 75.5q0 63 -14.5 125.5t-14.5 124.5q0 35 15.5 56.5t54.5 21.5h16q29 -23 45.5 -35t23.5 -24.5t9 -31t4 -51.5q4 -47 12 -99t8 -101q0 -96 -22.5 -145.5t-67.5 -77t-109.5 -44 t-150.5 -45.5q-104 -35 -168.5 -105.5t-64.5 -172.5q0 -68 37 -125t94 -99t128 -65.5t138 -23.5q43 0 89 20.5t86 51t71 68.5t43 73q4 12 11 32.5t13.5 40t10.5 33.5l4 14v193q-4 6 -11.5 26.5t-15.5 43t-14 41t-6 22.5q0 16 12 24.5t29 8.5q31 0 57.5 -24.5t42.5 -43.5 q18 -18 28.5 -49t15.5 -65.5t6 -69.5t1 -60q0 -61 -12 -125.5t-39 -123t-70 -107.5t-106 -84q-59 -31 -113.5 -52.5t-122.5 -21.5q-90 0 -190 42t-184 109t-139.5 150.5t-55.5 167.5zM526 1776q0 31 19.5 48t50.5 17q41 0 71.5 -32.5t30.5 -67.5q0 -47 -55 -47 q-18 0 -38.5 6t-38 17.5t-29 25.5t-11.5 33z" />
<glyph unicode="&#xc0;" d="M68 522v68l61 604q6 59 33.5 144t66.5 171t86 159t95 108q45 35 99 50t109 15q35 0 72 -4t72 -14q4 0 6 -2l6 -6q10 -4 27.5 -15.5t21.5 -15.5q6 -6 21.5 -19.5t32 -28t30 -27.5t17.5 -17t15 -22.5t15 -24.5q84 -150 141.5 -317t61.5 -341v-209q0 -10 1 -28.5t2 -39 t3 -36t2 -19.5q2 -25 12.5 -42t10.5 -40q0 -18 -3 -28t-20 -31q0 -16 -2 -58t-3 -90.5t-2 -90.5t-1 -58q0 -4 1 -20.5t2 -36t3 -37t2 -21.5v-30v-31q-12 -16 -31.5 -24.5t-41.5 -8.5q-49 0 -72 29t-32 68.5t-9 85t-2 75.5v262l-14 17q-2 0 -26 3t-38 5q-96 4 -191.5 9 t-193.5 5h-158q-6 0 -19 -2t-28.5 -4t-29 -4t-17.5 -4q-20 -4 -22 -25v-45q0 -92 11 -179t28 -179q0 -2 2 -10.5t5 -19.5t5 -20t2 -12v-8v-6q-4 -8 -17.5 -21.5t-19.5 -17.5q-4 0 -12 -1t-13 -1q-39 0 -62.5 17.5t-36.5 45t-20.5 61.5t-13.5 65q-31 162 -30 325zM252 733 q0 -10 1 -17t9 -18h39q66 0 130 4.5t130 4.5q92 0 182.5 -12.5t184.5 -12.5h11t13 2q8 0 17 2l8 4q0 2 1 15.5t1 30t1 32.5t1 27q0 190 -29.5 361t-105.5 349q-10 23 -28.5 58.5t-43 69.5t-54.5 57.5t-65 23.5h-4q-6 0 -17 -3t-13 -5q-63 -27 -105.5 -64.5t-72 -86 t-51 -104.5t-44.5 -118q-2 0 -4 -5t-4 -7l-47 -188l-37 -377q0 -4 -2 -11.5t-2 -11.5zM406 2224q0 16 11 29.5t34 13.5q55 0 100 -30.5t63 -69.5l121 -78q16 -4 39 -19.5t33 -23.5q4 -4 15.5 -12.5t24.5 -17.5t24.5 -18t15.5 -13q6 -10 6 -17q0 -18 -19.5 -25.5t-37.5 -7.5 q-35 0 -107 35t-143.5 83t-125.5 96t-54 75z" />
<glyph unicode="&#xc1;" d="M68 522v68l61 604q6 59 33.5 144t66.5 171t86 159t95 108q45 35 99 50t109 15q35 0 72 -4t72 -14q4 0 6 -2l6 -6q10 -4 27.5 -15.5t21.5 -15.5q6 -6 21.5 -19.5t32 -28t30 -27.5t17.5 -17t15 -22.5t15 -24.5q84 -150 141.5 -317t61.5 -341v-209q0 -10 1 -28.5t2 -39 t3 -36t2 -19.5q2 -25 12.5 -42t10.5 -40q0 -18 -3 -28t-20 -31q0 -16 -2 -58t-3 -90.5t-2 -90.5t-1 -58q0 -4 1 -20.5t2 -36t3 -37t2 -21.5v-30v-31q-12 -16 -31.5 -24.5t-41.5 -8.5q-49 0 -72 29t-32 68.5t-9 85t-2 75.5v262l-14 17q-2 0 -26 3t-38 5q-96 4 -191.5 9 t-193.5 5h-158q-6 0 -19 -2t-28.5 -4t-29 -4t-17.5 -4q-20 -4 -22 -25v-45q0 -92 11 -179t28 -179q0 -2 2 -10.5t5 -19.5t5 -20t2 -12v-8v-6q-4 -8 -17.5 -21.5t-19.5 -17.5q-4 0 -12 -1t-13 -1q-39 0 -62.5 17.5t-36.5 45t-20.5 61.5t-13.5 65q-31 162 -30 325zM252 733 q0 -10 1 -17t9 -18h39q66 0 130 4.5t130 4.5q92 0 182.5 -12.5t184.5 -12.5h11t13 2q8 0 17 2l8 4q0 2 1 15.5t1 30t1 32.5t1 27q0 190 -29.5 361t-105.5 349q-10 23 -28.5 58.5t-43 69.5t-54.5 57.5t-65 23.5h-4q-6 0 -17 -3t-13 -5q-63 -27 -105.5 -64.5t-72 -86 t-51 -104.5t-44.5 -118q-2 0 -4 -5t-4 -7l-47 -188l-37 -377q0 -4 -2 -11.5t-2 -11.5zM266 1972q0 6 1 18.5t9 16.5l95 59q94 37 174 75t166 73q4 4 26.5 10t28.5 8h10q47 0 90 -17t43 -48v-15.5t-10 -9.5q-76 -29 -152.5 -57.5t-148.5 -61.5q-49 -23 -92 -54.5t-107 -33.5 q-6 0 -22.5 1t-33.5 2t-33.5 2.5t-22.5 1.5q-16 6 -18.5 13t-2.5 17z" />
<glyph unicode="&#xc2;" d="M68 522v68l61 604q6 59 33.5 144t66.5 171t86 159t95 108q45 35 99 50t109 15q35 0 72 -4t72 -14q4 0 6 -2l6 -6q10 -4 27.5 -15.5t21.5 -15.5q6 -6 21.5 -19.5t32 -28t30 -27.5t17.5 -17t15 -22.5t15 -24.5q84 -150 141.5 -317t61.5 -341v-209q0 -10 1 -28.5t2 -39 t3 -36t2 -19.5q2 -25 12.5 -42t10.5 -40q0 -18 -3 -28t-20 -31q0 -16 -2 -58t-3 -90.5t-2 -90.5t-1 -58q0 -4 1 -20.5t2 -36t3 -37t2 -21.5v-30v-31q-12 -16 -31.5 -24.5t-41.5 -8.5q-49 0 -72 29t-32 68.5t-9 85t-2 75.5v262l-14 17q-2 0 -26 3t-38 5q-96 4 -191.5 9 t-193.5 5h-158q-6 0 -19 -2t-28.5 -4t-29 -4t-17.5 -4q-20 -4 -22 -25v-45q0 -92 11 -179t28 -179q0 -2 2 -10.5t5 -19.5t5 -20t2 -12v-8v-6q-4 -8 -17.5 -21.5t-19.5 -17.5q-4 0 -12 -1t-13 -1q-39 0 -62.5 17.5t-36.5 45t-20.5 61.5t-13.5 65q-31 162 -30 325zM252 733 q0 -10 1 -17t9 -18h39q66 0 130 4.5t130 4.5q92 0 182.5 -12.5t184.5 -12.5h11t13 2q8 0 17 2l8 4q0 2 1 15.5t1 30t1 32.5t1 27q0 190 -29.5 361t-105.5 349q-10 23 -28.5 58.5t-43 69.5t-54.5 57.5t-65 23.5h-4q-6 0 -17 -3t-13 -5q-63 -27 -105.5 -64.5t-72 -86 t-51 -104.5t-44.5 -118q-2 0 -4 -5t-4 -7l-47 -188l-37 -377q0 -4 -2 -11.5t-2 -11.5zM285 1991q0 10 1 16t9 16q41 37 81 77t75 81q4 4 18 22.5t30.5 38t30 37t17.5 21.5q6 8 19.5 20.5t15.5 12.5t11 1t13 1q25 0 30 -3t26 -20q23 -23 38 -46t35 -46q57 -59 121 -108.5 t121 -108.5q4 -8 4 -12v-15q0 -41 -47 -41q-29 0 -52.5 13.5t-41.5 31.5l-217 207h-7q-10 0 -21 -17.5t-17 -27.5q-10 -10 -26.5 -29.5t-21.5 -23.5q-8 -8 -28.5 -29.5t-44 -44t-46 -43t-30.5 -28.5q-10 -8 -25.5 -13.5t-29.5 -5.5q-23 0 -32 25t-9 41z" />
<glyph unicode="&#xc3;" d="M68 522v68l61 604q6 59 33.5 144t66.5 171t86 159t95 108q45 35 99 50t109 15q35 0 72 -4t72 -14q4 0 6 -2l6 -6q10 -4 27.5 -15.5t21.5 -15.5q6 -6 21.5 -19.5t32 -28t30 -27.5t17.5 -17t15 -22.5t15 -24.5q84 -150 141.5 -317t61.5 -341v-209q0 -10 1 -28.5t2 -39 t3 -36t2 -19.5q2 -25 12.5 -42t10.5 -40q0 -18 -3 -28t-20 -31q0 -16 -2 -58t-3 -90.5t-2 -90.5t-1 -58q0 -4 1 -20.5t2 -36t3 -37t2 -21.5v-30v-31q-12 -16 -31.5 -24.5t-41.5 -8.5q-49 0 -72 29t-32 68.5t-9 85t-2 75.5v262l-14 17q-2 0 -26 3t-38 5q-96 4 -191.5 9 t-193.5 5h-158q-6 0 -19 -2t-28.5 -4t-29 -4t-17.5 -4q-20 -4 -22 -25v-45q0 -92 11 -179t28 -179q0 -2 2 -10.5t5 -19.5t5 -20t2 -12v-8v-6q-4 -8 -17.5 -21.5t-19.5 -17.5q-4 0 -12 -1t-13 -1q-39 0 -62.5 17.5t-36.5 45t-20.5 61.5t-13.5 65q-31 162 -30 325zM227 2136 v45q10 41 40 69.5t68 47t82 27t83 8.5q61 0 102 -22.5t68.5 -58.5t45 -81t32.5 -90q2 -4 11 -17.5t13 -17.5l10 -10t9 -6h71q18 0 33.5 12t27 29.5t18.5 37t7 33.5q0 16 -8 29.5t-19.5 28t-19.5 28t-8 29.5q0 18 6 30.5t29 12.5q33 0 55.5 -15.5t38.5 -38t28.5 -49 t22.5 -49.5q4 -12 5 -19t1 -18q0 -37 -17.5 -70.5t-46 -59t-64.5 -40t-74 -14.5q-82 0 -132.5 22.5t-80 57.5t-45 75t-28.5 74.5t-28.5 57t-44.5 22.5q-33 0 -65.5 -8t-58 -24.5t-42 -41t-16.5 -59.5q0 -18 8 -33.5t19.5 -32t19.5 -31.5t8 -34q0 -10 -12 -14q-4 0 -13.5 -1 t-13.5 -1q-35 0 -58.5 18.5t-38.5 46t-21.5 59t-6.5 56.5zM252 733q0 -10 1 -17t9 -18h39q66 0 130 4.5t130 4.5q92 0 182.5 -12.5t184.5 -12.5h11t13 2q8 0 17 2l8 4q0 2 1 15.5t1 30t1 32.5t1 27q0 190 -29.5 361t-105.5 349q-10 23 -28.5 58.5t-43 69.5t-54.5 57.5 t-65 23.5h-4q-6 0 -17 -3t-13 -5q-63 -27 -105.5 -64.5t-72 -86t-51 -104.5t-44.5 -118q-2 0 -4 -5t-4 -7l-47 -188l-37 -377q0 -4 -2 -11.5t-2 -11.5z" />
<glyph unicode="&#xc4;" d="M68 522v68l61 604q6 59 33.5 144t66.5 171t86 159t95 108q45 35 99 50t109 15q35 0 72 -4t72 -14q4 0 6 -2l6 -6q10 -4 27.5 -15.5t21.5 -15.5q6 -6 21.5 -19.5t32 -28t30 -27.5t17.5 -17t15 -22.5t15 -24.5q84 -150 141.5 -317t61.5 -341v-209q0 -10 1 -28.5t2 -39 t3 -36t2 -19.5q2 -25 12.5 -42t10.5 -40q0 -18 -3 -28t-20 -31q0 -16 -2 -58t-3 -90.5t-2 -90.5t-1 -58q0 -4 1 -20.5t2 -36t3 -37t2 -21.5v-30v-31q-12 -16 -31.5 -24.5t-41.5 -8.5q-49 0 -72 29t-32 68.5t-9 85t-2 75.5v262l-14 17q-2 0 -26 3t-38 5q-96 4 -191.5 9 t-193.5 5h-158q-6 0 -19 -2t-28.5 -4t-29 -4t-17.5 -4q-20 -4 -22 -25v-45q0 -92 11 -179t28 -179q0 -2 2 -10.5t5 -19.5t5 -20t2 -12v-8v-6q-4 -8 -17.5 -21.5t-19.5 -17.5q-4 0 -12 -1t-13 -1q-39 0 -62.5 17.5t-36.5 45t-20.5 61.5t-13.5 65q-31 162 -30 325zM252 733 q0 -10 1 -17t9 -18h39q66 0 130 4.5t130 4.5q92 0 182.5 -12.5t184.5 -12.5h11t13 2q8 0 17 2l8 4q0 2 1 15.5t1 30t1 32.5t1 27q0 190 -29.5 361t-105.5 349q-10 23 -28.5 58.5t-43 69.5t-54.5 57.5t-65 23.5h-4q-6 0 -17 -3t-13 -5q-63 -27 -105.5 -64.5t-72 -86 t-51 -104.5t-44.5 -118q-2 0 -4 -5t-4 -7l-47 -188l-37 -377q0 -4 -2 -11.5t-2 -11.5zM272 2126q0 4 1 16t1 17q12 35 47 51t66 16q20 0 39 -8q4 -4 16.5 -12t25.5 -18.5t25.5 -19.5t16.5 -14q25 -16 28 -48.5t1 -59.5q-2 -47 -29 -87t-74 -38q-33 0 -62.5 19.5t-53 49 t-36 65.5t-12.5 71zM352 2118q0 -12 6.5 -27.5t15.5 -29t20.5 -23.5t23.5 -10q14 0 19 12t7 22q0 29 -17 51.5t-44 24.5q-10 0 -20.5 -4t-10.5 -16zM680 2101q0 27 17.5 48.5t42 37t52 23.5t48.5 8q20 -2 45.5 -18.5t46 -41t35 -52t14.5 -52.5q-2 -57 -41 -91t-86 -32 q-25 0 -55.5 16.5t-57 41t-44 54t-17.5 58.5zM780 2089q0 -16 20.5 -29.5t33.5 -13.5q14 -2 30.5 2t16.5 20q0 23 -22.5 38.5t-41.5 15.5q-8 0 -21.5 -12.5t-15.5 -20.5z" />
<glyph unicode="&#xc5;" d="M68 522v68l61 604q6 59 33.5 144t66.5 171t86 159t95 108q45 35 99 50t109 15q35 0 72 -4t72 -14q4 0 6 -2l6 -6q10 -4 27.5 -15.5t21.5 -15.5q6 -6 21.5 -19.5t32 -28t30 -27.5t17.5 -17t15 -22.5t15 -24.5q84 -150 141.5 -317t61.5 -341v-209q0 -10 1 -28.5t2 -39 t3 -36t2 -19.5q2 -25 12.5 -42t10.5 -40q0 -18 -3 -28t-20 -31q0 -16 -2 -58t-3 -90.5t-2 -90.5t-1 -58q0 -4 1 -20.5t2 -36t3 -37t2 -21.5v-30v-31q-12 -16 -31.5 -24.5t-41.5 -8.5q-49 0 -72 29t-32 68.5t-9 85t-2 75.5v262l-14 17q-2 0 -26 3t-38 5q-96 4 -191.5 9 t-193.5 5h-158q-6 0 -19 -2t-28.5 -4t-29 -4t-17.5 -4q-20 -4 -22 -25v-45q0 -92 11 -179t28 -179q0 -2 2 -10.5t5 -19.5t5 -20t2 -12v-8v-6q-4 -8 -17.5 -21.5t-19.5 -17.5q-4 0 -12 -1t-13 -1q-39 0 -62.5 17.5t-36.5 45t-20.5 61.5t-13.5 65q-31 162 -30 325zM252 733 q0 -10 1 -17t9 -18h39q66 0 130 4.5t130 4.5q92 0 182.5 -12.5t184.5 -12.5h11t13 2q8 0 17 2l8 4q0 2 1 15.5t1 30t1 32.5t1 27q0 190 -29.5 361t-105.5 349q-10 23 -28.5 58.5t-43 69.5t-54.5 57.5t-65 23.5h-4q-6 0 -17 -3t-13 -5q-63 -27 -105.5 -64.5t-72 -86 t-51 -104.5t-44.5 -118q-2 0 -4 -5t-4 -7l-47 -188l-37 -377q0 -4 -2 -11.5t-2 -11.5zM360 2206q0 51 25 95t63.5 76.5t89 51t101.5 18.5q35 0 80 -20.5t87 -50t74.5 -65.5t43.5 -66q6 -23 6 -44.5v-43.5q0 -129 -75 -188.5t-204 -59.5q-61 0 -113.5 25.5t-92 67.5 t-62.5 95.5t-23 108.5zM489 2189q0 -29 10.5 -58.5t29 -53t45 -39t61.5 -15.5q78 0 122 43t44 117q0 27 -17.5 54.5t-43 50t-57.5 36t-60 13.5q-10 0 -14.5 -2t-14.5 -6q-53 -23 -79 -54t-26 -86z" />
<glyph unicode="&#xc6;" horiz-adv-x="2064" d="M68 525.5v33.5v45t1 56.5t1 48v24.5q0 8 2 37t4 63.5t4 66.5t4 48q0 6 2 20.5t4 31t5 32t3 23.5q2 12 4 16t4.5 7t2.5 8.5t-3 19.5q31 143 69 262t101.5 210t161 152.5t244.5 92.5q29 6 53.5 12t52.5 6q121 0 216.5 -71.5t136.5 -184.5q2 -4 8 -21.5t12 -38t11.5 -38 t5.5 -23.5q2 -2 4 -6l4 -8q25 23 40 48.5t36 47.5q70 86 151.5 141.5t198.5 55.5h76q37 -4 73.5 -21.5t69.5 -33.5q25 -10 66.5 -25.5t82.5 -37t71 -49.5t30 -65q0 -61 -72 -61q-8 0 -19.5 9t-19.5 14q-41 18 -81 39.5t-81 39t-84 29.5t-88 12q-68 0 -105.5 -25.5 t-84.5 -72.5q-57 -53 -89 -102.5t-48.5 -100.5t-21.5 -110.5t-7 -134.5q0 -4 -1 -16.5t-1 -28t-1 -28.5t-1 -18v-96v-98q0 -14 2 -23q4 -20 14 -20q27 0 62 8t61 12h365q35 0 68.5 -25.5t33.5 -64.5q0 -35 -22.5 -55.5t-57.5 -20.5q-55 0 -111.5 5.5t-111.5 5.5 q-68 0 -142.5 -7.5t-138.5 -39.5q-2 0 -6 -5q-2 -2 -4 -2q-18 -33 -39.5 -58.5t-25.5 -61.5q0 -2 -1 -18.5t-2 -38t-2 -44t-4 -35.5v-4q0 -10 1.5 -13t7.5 -11q33 8 54 9t54 1q82 0 163 -5t163 -5q66 0 125 5t123 5q43 0 76.5 -15.5t33.5 -68.5v-29q-12 -16 -32.5 -22 t-44 -9t-47 -3t-42.5 -5h-514l-106 -22q-14 -4 -12 -26.5t3 -48t-8.5 -47t-44.5 -21.5q-37 0 -57 14t-29.5 37.5t-11.5 53.5t-2 60q0 6 -1 33t-2 57.5t-2 57.5t-1 33t1 25.5t2 42t2 42t1 25.5v8q0 14 -31.5 20.5t-73.5 8.5t-83 1t-62 -1q-49 0 -97 -6.5t-97 -8.5 q-86 -6 -168 -11t-170 -21l-27.5 -5.5t-24.5 -17.5q0 -4 -2 -22.5t-2 -22.5q0 -57 12.5 -120.5t43.5 -110.5v-103q-16 -4 -28.5 -11t-29.5 -7q-23 0 -42 16.5t-27 38.5q-29 82 -56.5 168t-31.5 174v34.5t-1 52.5t-1 51.5zM223 573q4 -6 9.5 -5t9.5 1h10q12 0 59 3t101.5 7.5 t100.5 7.5t58 5h400q6 0 23.5 3t21.5 3h8q14 0 23.5 -7t21.5 -7h6l2 2q4 4 4 6q6 86 11.5 174t5.5 176v53l-60 449q-4 20 -14 57t-27.5 73t-38 64.5t-45.5 34.5q-31 10 -50 9t-52 -1q-39 0 -90 -9t-102.5 -27.5t-95.5 -45t-68 -61.5q-66 -92 -111 -194.5t-71.5 -212 t-38 -223t-11.5 -224.5v-111z" />
<glyph unicode="&#xc7;" horiz-adv-x="1300" d="M45 784q0 14 1 42t1 30q2 16 9 55t15.5 82t16.5 80t12 53q43 145 135.5 256t204.5 213q53 33 114.5 71t127.5 70.5t134.5 53t135.5 20.5q25 0 63 -2t72.5 -11t60.5 -27.5t26 -53.5q0 -43 -35 -53q-123 6 -222.5 -27.5t-205.5 -93.5q-131 -72 -223.5 -157t-150.5 -187 t-85 -225t-27 -268v-113q2 -27 14.5 -65t31 -75.5t42 -70.5t47.5 -49q43 -27 93.5 -43.5t93.5 -40.5q109 -27 204 -44.5t205 -17.5q35 0 66 8.5t59.5 18.5t58 18.5t60.5 8.5q47 0 63.5 -17.5t36.5 -60.5v-8q0 -31 -11 -50.5t-31.5 -32t-46 -20.5t-56.5 -18q-14 -6 -46 -10.5 t-63.5 -10.5t-55 -13t-23.5 -17q0 -31 9 -61t19.5 -59.5t19.5 -60t9 -63.5q0 -61 -12.5 -118.5t-41 -103.5t-76.5 -74t-122 -28q-47 0 -97 12.5t-90 39t-65.5 65.5t-25.5 94q0 39 10 76t31.5 65.5t53.5 46t77 17.5q18 0 38.5 -11.5t38 -27.5t27.5 -36.5t10 -39.5 q0 -27 -16 -39t-36.5 -21t-37 -20.5t-16.5 -35.5v-2q2 -4 8 -10.5t8 -6.5q6 -4 19.5 -4h15.5q41 0 64.5 20.5t36 51t16.5 65.5t4 64q0 41 -12.5 82t-24.5 80q0 2 -5 12t-11.5 20.5t-12.5 20.5t-8 16q-6 10 -27.5 17.5t-25.5 7.5q-8 2 -41 12t-71 22.5t-70.5 22.5t-40.5 14 q-125 45 -211 111t-139.5 152t-77 190.5t-23.5 226.5z" />
<glyph unicode="&#xc8;" horiz-adv-x="1204" d="M59 1288v6q2 29 4.5 101.5t5.5 154.5t5 155t2 101q4 8 8 15.5t10 11.5h168q117 0 228.5 -5t228.5 -5h150.5t154.5 10l10 10h2q18 0 45 -10t51.5 -26.5t42 -36t17.5 -39.5q0 -33 -11.5 -48.5t-29.5 -20.5t-43 -4t-49 1q-12 -2 -60.5 -4t-105.5 -3t-106.5 -2t-61.5 -1h-72 q-66 0 -127 5t-127 5h-114q-10 -6 -19.5 -13.5t-15.5 -17.5q0 -18 -1 -65t-3 -101.5t-4 -101.5t-2 -66v-22v-25q0 -18 2 -64t4 -98.5t3 -99.5t1 -65q2 -8 22 -9h13q78 20 166 32.5t174 12.5h82q6 0 20 -1t30.5 -3t31 -3t20.5 -3q6 0 18.5 -3t26.5 -6t25.5 -5t15.5 -2 q12 -4 32.5 -13.5t41 -21.5t35 -26.5t14.5 -30.5t-5 -38t-22 -32h-35q-35 0 -68.5 5t-68.5 11.5t-69.5 10.5t-69.5 0q-8 0 -40 -4.5t-67.5 -10.5t-67.5 -11t-40 -7q-14 -2 -46 -6t-63.5 -11.5t-58.5 -15.5t-33 -20v-54q0 -98 12.5 -188t24.5 -195q6 -29 22.5 -58.5 t47.5 -37.5q12 -4 43.5 -9t67.5 -11t68 -10.5t44 -6.5h113h134t132 17q12 4 20 13t14.5 19.5t13.5 17.5t21 7q16 0 38 -10t40.5 -25.5t31.5 -35t13 -38.5q0 -37 -16 -57t-41 -32.5t-54.5 -17.5t-56.5 -9q-10 -2 -32.5 -4t-48 -4.5t-49 -4.5t-33.5 -4h-31q-84 0 -167 10.5 t-161 26.5q-61 10 -116.5 26.5t-100.5 45.5t-78 73.5t-49 112.5q-33 254 -52.5 509t-19.5 513zM389 2232q0 16 11.5 29.5t33.5 13.5q55 0 100.5 -30.5t63.5 -69.5l121 -78q16 -4 38.5 -19.5t33.5 -23.5q4 -4 15 -12t24.5 -17.5t24.5 -18.5t15 -13q6 -10 7 -17 q0 -18 -19.5 -25t-38.5 -7q-35 0 -106.5 34.5t-143 82.5t-126 96t-54.5 75z" />
<glyph unicode="&#xc9;" horiz-adv-x="1204" d="M59 1288v6q2 29 4.5 101.5t5.5 154.5t5 155t2 101q4 8 8 15.5t10 11.5h168q117 0 228.5 -5t228.5 -5h150.5t154.5 10l10 10h2q18 0 45 -10t51.5 -26.5t42 -36t17.5 -39.5q0 -33 -11.5 -48.5t-29.5 -20.5t-43 -4t-49 1q-12 -2 -60.5 -4t-105.5 -3t-106.5 -2t-61.5 -1h-72 q-66 0 -127 5t-127 5h-114q-10 -6 -19.5 -13.5t-15.5 -17.5q0 -18 -1 -65t-3 -101.5t-4 -101.5t-2 -66v-22v-25q0 -18 2 -64t4 -98.5t3 -99.5t1 -65q2 -8 22 -9h13q78 20 166 32.5t174 12.5h82q6 0 20 -1t30.5 -3t31 -3t20.5 -3q6 0 18.5 -3t26.5 -6t25.5 -5t15.5 -2 q12 -4 32.5 -13.5t41 -21.5t35 -26.5t14.5 -30.5t-5 -38t-22 -32h-35q-35 0 -68.5 5t-68.5 11.5t-69.5 10.5t-69.5 0q-8 0 -40 -4.5t-67.5 -10.5t-67.5 -11t-40 -7q-14 -2 -46 -6t-63.5 -11.5t-58.5 -15.5t-33 -20v-54q0 -98 12.5 -188t24.5 -195q6 -29 22.5 -58.5 t47.5 -37.5q12 -4 43.5 -9t67.5 -11t68 -10.5t44 -6.5h113h134t132 17q12 4 20 13t14.5 19.5t13.5 17.5t21 7q16 0 38 -10t40.5 -25.5t31.5 -35t13 -38.5q0 -37 -16 -57t-41 -32.5t-54.5 -17.5t-56.5 -9q-10 -2 -32.5 -4t-48 -4.5t-49 -4.5t-33.5 -4h-31q-84 0 -167 10.5 t-161 26.5q-61 10 -116.5 26.5t-100.5 45.5t-78 73.5t-49 112.5q-33 254 -52.5 509t-19.5 513zM274 1980q0 6 1 18.5t10 16.5l94 60q94 37 174 74.5t166 72.5q4 4 26.5 10t28.5 9h10q47 0 90.5 -17.5t43.5 -48.5v-15.5t-11 -9.5q-76 -29 -152.5 -57.5t-148.5 -60.5 q-49 -23 -92 -54.5t-106 -33.5q-6 0 -22.5 1t-34 2t-34 2t-22.5 1q-16 6 -18.5 13t-2.5 17z" />
<glyph unicode="&#xca;" horiz-adv-x="1204" d="M59 1288v6q2 29 4.5 101.5t5.5 154.5t5 155t2 101q4 8 8 15.5t10 11.5h168q117 0 228.5 -5t228.5 -5h150.5t154.5 10l10 10h2q18 0 45 -10t51.5 -26.5t42 -36t17.5 -39.5q0 -33 -11.5 -48.5t-29.5 -20.5t-43 -4t-49 1q-12 -2 -60.5 -4t-105.5 -3t-106.5 -2t-61.5 -1h-72 q-66 0 -127 5t-127 5h-114q-10 -6 -19.5 -13.5t-15.5 -17.5q0 -18 -1 -65t-3 -101.5t-4 -101.5t-2 -66v-22v-25q0 -18 2 -64t4 -98.5t3 -99.5t1 -65q2 -8 22 -9h13q78 20 166 32.5t174 12.5h82q6 0 20 -1t30.5 -3t31 -3t20.5 -3q6 0 18.5 -3t26.5 -6t25.5 -5t15.5 -2 q12 -4 32.5 -13.5t41 -21.5t35 -26.5t14.5 -30.5t-5 -38t-22 -32h-35q-35 0 -68.5 5t-68.5 11.5t-69.5 10.5t-69.5 0q-8 0 -40 -4.5t-67.5 -10.5t-67.5 -11t-40 -7q-14 -2 -46 -6t-63.5 -11.5t-58.5 -15.5t-33 -20v-54q0 -98 12.5 -188t24.5 -195q6 -29 22.5 -58.5 t47.5 -37.5q12 -4 43.5 -9t67.5 -11t68 -10.5t44 -6.5h113h134t132 17q12 4 20 13t14.5 19.5t13.5 17.5t21 7q16 0 38 -10t40.5 -25.5t31.5 -35t13 -38.5q0 -37 -16 -57t-41 -32.5t-54.5 -17.5t-56.5 -9q-10 -2 -32.5 -4t-48 -4.5t-49 -4.5t-33.5 -4h-31q-84 0 -167 10.5 t-161 26.5q-61 10 -116.5 26.5t-100.5 45.5t-78 73.5t-49 112.5q-33 254 -52.5 509t-19.5 513zM276 1958q0 10 1.5 16t9.5 17q41 37 81 76.5t74 80.5q4 4 18.5 22.5t31 38t30 37t17.5 21.5q6 8 19 20.5t15 12.5t11.5 1t13.5 1q25 0 30 -3t25 -20q23 -23 38.5 -46t35.5 -46 q57 -59 120.5 -108t121.5 -109q4 -8 4 -12v-14q0 -41 -47 -41q-29 0 -52.5 13t-42.5 32l-217 206h-6q-10 0 -21.5 -17t-17.5 -28q-10 -10 -26.5 -29.5t-20.5 -23.5q-8 -8 -28.5 -29.5t-44 -44t-46 -43t-30.5 -28.5q-10 -8 -25.5 -13.5t-30.5 -5.5q-23 0 -32 25t-9 41z" />
<glyph unicode="&#xcb;" horiz-adv-x="1204" d="M59 1288v6q2 29 4.5 101.5t5.5 154.5t5 155t2 101q4 8 8 15.5t10 11.5h168q117 0 228.5 -5t228.5 -5h150.5t154.5 10l10 10h2q18 0 45 -10t51.5 -26.5t42 -36t17.5 -39.5q0 -33 -11.5 -48.5t-29.5 -20.5t-43 -4t-49 1q-12 -2 -60.5 -4t-105.5 -3t-106.5 -2t-61.5 -1h-72 q-66 0 -127 5t-127 5h-114q-10 -6 -19.5 -13.5t-15.5 -17.5q0 -18 -1 -65t-3 -101.5t-4 -101.5t-2 -66v-22v-25q0 -18 2 -64t4 -98.5t3 -99.5t1 -65q2 -8 22 -9h13q78 20 166 32.5t174 12.5h82q6 0 20 -1t30.5 -3t31 -3t20.5 -3q6 0 18.5 -3t26.5 -6t25.5 -5t15.5 -2 q12 -4 32.5 -13.5t41 -21.5t35 -26.5t14.5 -30.5t-5 -38t-22 -32h-35q-35 0 -68.5 5t-68.5 11.5t-69.5 10.5t-69.5 0q-8 0 -40 -4.5t-67.5 -10.5t-67.5 -11t-40 -7q-14 -2 -46 -6t-63.5 -11.5t-58.5 -15.5t-33 -20v-54q0 -98 12.5 -188t24.5 -195q6 -29 22.5 -58.5 t47.5 -37.5q12 -4 43.5 -9t67.5 -11t68 -10.5t44 -6.5h113h134t132 17q12 4 20 13t14.5 19.5t13.5 17.5t21 7q16 0 38 -10t40.5 -25.5t31.5 -35t13 -38.5q0 -37 -16 -57t-41 -32.5t-54.5 -17.5t-56.5 -9q-10 -2 -32.5 -4t-48 -4.5t-49 -4.5t-33.5 -4h-31q-84 0 -167 10.5 t-161 26.5q-61 10 -116.5 26.5t-100.5 45.5t-78 73.5t-49 112.5q-33 254 -52.5 509t-19.5 513zM272 2159q0 4 1 16t1 16q12 35 47 51.5t66 16.5q20 0 39 -8q4 -4 16.5 -12.5t25.5 -18.5t25.5 -19.5t16.5 -13.5q25 -16 28 -49t1 -59q-2 -47 -29 -87t-74 -38q-33 0 -62.5 19.5 t-53 49t-36 65.5t-12.5 71zM352 2150q0 -12 6.5 -27.5t15.5 -28.5t20.5 -23.5t23.5 -10.5q14 0 19 12.5t7 22.5q0 29 -17 51.5t-44 24.5q-10 0 -20.5 -4.5t-10.5 -16.5zM680 2134q0 27 17.5 48.5t42 36.5t52 23.5t48.5 8.5q20 -2 45.5 -18.5t46 -41t35 -52.5t14.5 -52 q-2 -57 -41 -91t-86 -32q-25 0 -55.5 16.5t-57 41t-44 54t-17.5 58.5zM780 2122q0 -16 20.5 -29.5t33.5 -13.5q14 -2 30.5 2t16.5 20q0 23 -22.5 38t-41.5 15q-8 0 -21.5 -12t-15.5 -20z" />
<glyph unicode="&#xcc;" horiz-adv-x="393" d="M-127 2216q0 16 11.5 29.5t33.5 13.5q55 0 100 -30.5t64 -69.5l121 -78q16 -4 38.5 -19.5t32.5 -23.5q4 -4 15.5 -12.5t25 -17.5t24.5 -18.5t15 -13.5q6 -10 6 -16q0 -18 -19 -25.5t-38 -7.5q-35 0 -106.5 35t-143 83t-126 96t-54.5 75zM70 1085l2 668q0 33 9 57.5 t38 26.5q16 2 38.5 -6t44 -21.5t36 -33t16.5 -37.5q0 -2 -1 -5t-1 -8q0 -29 -1 -102.5t-2 -156.5t-2 -156.5t-1 -102.5q0 -10 1 -32.5t2 -47t2 -46t1 -27.5l82 -838q2 -16 3 -51t-4 -70t-19.5 -62.5t-41.5 -29.5q-47 -6 -81.5 27t-40.5 86q-4 33 -3.5 54.5t7.5 57.5z" />
<glyph unicode="&#xcd;" horiz-adv-x="393" d="M-78 2120q0 6 1 18t9 16l95 60q94 37 174 75t166 72q4 4 26.5 10.5t28.5 8.5h10q47 0 90 -17.5t43 -48.5v-15t-10 -9q-76 -29 -152.5 -57.5t-148.5 -61.5q-49 -23 -92 -54.5t-107 -33.5q-6 0 -22.5 1t-33.5 2t-33.5 2t-22.5 1q-16 6 -18.5 13t-2.5 18zM70 1085l2 668 q0 33 9 57.5t38 26.5q16 2 38.5 -6t44 -21.5t36 -33t16.5 -37.5q0 -2 -1 -5t-1 -8q0 -29 -1 -102.5t-2 -156.5t-2 -156.5t-1 -102.5q0 -10 1 -32.5t2 -47t2 -46t1 -27.5l82 -838q2 -16 3 -51t-4 -70t-19.5 -62.5t-41.5 -29.5q-47 -6 -81.5 27t-40.5 86q-4 33 -3.5 54.5 t7.5 57.5z" />
<glyph unicode="&#xce;" horiz-adv-x="393" d="M-199 2040q0 10 1 16t10 17q41 37 80.5 76.5t74.5 80.5q4 4 18.5 22.5t31 38t29.5 37t17 21.5q6 8 19.5 20.5t15.5 12.5t11.5 1t13.5 1q25 0 30 -3t25 -20q23 -23 38 -46t36 -46q57 -59 120.5 -108.5t121.5 -108.5q4 -8 4 -12v-15q0 -41 -47 -40q-29 0 -52.5 13t-42.5 32 l-217 206h-6q-10 0 -21.5 -17t-17.5 -28q-10 -10 -26.5 -29.5t-20.5 -23.5q-8 -8 -28.5 -29.5t-44 -44t-46 -43t-30.5 -28.5q-10 -8 -25.5 -13.5t-30.5 -5.5q-23 0 -32 25t-9 41zM70 1085l2 668q0 33 9 57.5t38 26.5q16 2 38.5 -6t44 -21.5t36 -33t16.5 -37.5q0 -2 -1 -5 t-1 -8q0 -29 -1 -102.5t-2 -156.5t-2 -156.5t-1 -102.5q0 -10 1 -32.5t2 -47t2 -46t1 -27.5l82 -838q2 -16 3 -51t-4 -70t-19.5 -62.5t-41.5 -29.5q-47 -6 -81.5 27t-40.5 86q-4 33 -3.5 54.5t7.5 57.5z" />
<glyph unicode="&#xcf;" horiz-adv-x="393" d="M-178 2249q0 4 1 16t1 16q12 35 47 51.5t66 16.5q20 0 38 -8q4 -4 16.5 -12.5t26 -18.5t25.5 -19.5t16 -13.5q25 -16 28 -49t1 -59q-2 -47 -28.5 -87t-73.5 -38q-33 0 -62.5 19.5t-53.5 49t-36 65.5t-12 71zM-98 2241q0 -12 6 -27.5t15 -29t20.5 -24t23.5 -10.5 q14 0 19.5 12.5t7.5 22.5q0 29 -17.5 51.5t-44.5 24.5q-10 0 -20 -4t-10 -16zM70 1085l2 668q0 33 9 57.5t38 26.5q16 2 38.5 -6t44 -21.5t36 -33t16.5 -37.5q0 -2 -1 -5t-1 -8q0 -29 -1 -102.5t-2 -156.5t-2 -156.5t-1 -102.5q0 -10 1 -32.5t2 -47t2 -46t1 -27.5l82 -838 q2 -16 3 -51t-4 -70t-19.5 -62.5t-41.5 -29.5q-47 -6 -81.5 27t-40.5 86q-4 33 -3.5 54.5t7.5 57.5zM229 2224q0 27 17.5 48.5t42 36.5t52.5 23.5t48 8.5q20 -2 46 -18.5t46.5 -41t34.5 -52t14 -52.5q-2 -57 -40.5 -91t-86.5 -32q-25 0 -55.5 16.5t-57 41t-44 54t-17.5 58.5 zM330 2212q0 -16 20.5 -29.5t32.5 -13.5q14 -2 30.5 2t16.5 20q0 23 -22.5 38.5t-40.5 15.5q-8 0 -21.5 -12.5t-15.5 -20.5z" />
<glyph unicode="&#xd0;" horiz-adv-x="1433" d="M10 862q0 31 14.5 44.5t32 23.5t31.5 22.5t14 40.5q0 47 -4 94.5t-4 94.5v10q0 8 1 36.5t3 60.5t3 60.5t1 36.5q0 20 1 71.5t1 110t-1 110t-1 71.5q8 14 21.5 21.5t29 11.5t31 7t29.5 13q8 2 30.5 6t47 8.5t47 8.5t31.5 4q76 4 139 -14.5t121.5 -47t117 -63.5t125.5 -64 q63 -45 134 -99t131 -109q51 -49 102 -127t92 -166t66.5 -177.5t25.5 -162.5q0 -156 -49 -276t-155 -234q-82 -90 -154 -135t-146.5 -69t-160.5 -33t-197 -27q-2 0 -10 -5l-8 -4q-8 -2 -24.5 -6t-33 -7t-30 -5t-15.5 -2t-13 1t-23.5 3t-22.5 3t-12 1q-4 0 -20.5 1t-24.5 1 t-25.5 -1t-22.5 -1q-12 -10 -18 -13t-18 -3q-47 0 -88 22.5t-58 65.5v67q0 121 14.5 242t14.5 242q0 10 1 27.5t0 37t-6 38t-16 28.5q-12 12 -28.5 18t-30.5 15.5t-23.5 24.5t-9.5 46zM284 1051q-1 -27 3 -51.5t15 -44t38 -21.5q12 0 42 -2t63.5 -3t63.5 -2t42 -1l72 -35 q14 -6 17 -25.5t3 -36.5q0 -23 -8 -51t-37 -28h-250q-4 0 -17.5 -5.5t-17.5 -15.5q4 -127 -7 -253t-11 -253q0 -35 23.5 -42t58.5 -7q4 0 28.5 2t34.5 6q8 2 35 7.5t57.5 11.5t57 11t33.5 5q37 6 69.5 9t63 8.5t61.5 13.5t64 22q39 16 90 61.5t99 100.5t85 109.5t47 91.5 q2 8 6 30.5t8.5 48t7.5 49t5 34.5v34q0 113 -44 216.5t-116 193.5t-162 166t-184 131q-25 14 -54.5 32.5t-62.5 35t-65.5 26.5t-65.5 10q-14 0 -41.5 -1t-56.5 -4t-52.5 -9t-29.5 -18q2 -129 -4 -256t-6 -256q0 -18 -1 -45z" />
<glyph unicode="&#xd1;" horiz-adv-x="1220" d="M82 752v149q0 25 3 77t7 117.5t8 137.5t9.5 137.5t8.5 116.5t5 76q-4 35 0 74.5t22 70.5h27q57 0 87 -33t30 -86q0 -66 -5 -131t-5 -133v-21.5t1 -33t1 -32.5v-21q16 23 22 54.5t16 57.5q29 66 76 154t108.5 167t135.5 133t156 54t142 -51t101 -132t66.5 -180.5 t39 -198.5t18.5 -185t5 -140v-94l-69 -893q-2 -20 -20.5 -23t-33.5 -3q-37 0 -60 17t-35.5 44t-16.5 59.5t0 63.5l69 837v82q0 143 -22.5 272.5t-65.5 266.5q-8 25 -19 51.5t-34 42.5q-4 4 -14 4h-15q-35 0 -74.5 -28.5t-78.5 -69.5t-71 -84t-50 -70q-29 -47 -43 -100 t-43 -100q-4 -18 -15.5 -61.5t-23.5 -92.5t-23.5 -92t-15.5 -59q-2 -6 -7 -33t-10 -56.5t-10.5 -56t-5.5 -33.5q0 -4 -3 -16t-5 -16l-63 -619q-2 -25 -16.5 -40t-39.5 -15h-8q-39 12 -60.5 28.5t-31.5 39t-13 53t-5 71.5q-10 133 -21.5 261t-11.5 264zM211 2128v45 q10 41 40 69.5t67.5 47t81.5 26.5t83 8q61 0 102.5 -22.5t69 -58t45 -80.5t31.5 -90q2 -4 11.5 -17.5t13.5 -17.5t10 -10.5t8 -6.5h72q18 0 33.5 12.5t27 30t18.5 37t7 33.5q0 16 -8.5 29.5t-19.5 28t-19 27.5t-8 30q0 18 6 30.5t28 12.5q33 0 55.5 -15.5t39 -38t29 -49 t22.5 -49.5q4 -12 5 -19t1 -18q0 -37 -17.5 -70.5t-46 -59t-64.5 -40t-75 -14.5q-82 0 -132 22.5t-80 57.5t-45 75t-28.5 74.5t-28.5 57t-44 22.5q-33 0 -66 -8t-58.5 -24.5t-42 -41t-16.5 -59.5q0 -18 8.5 -33.5t19.5 -32t19.5 -32t8.5 -33.5q0 -10 -13 -14q-4 0 -13 -1 t-13 -1q-35 0 -58.5 18.5t-39 46t-21.5 59t-6 56.5z" />
<glyph unicode="&#xd2;" d="M16 739q0 104 18.5 227.5t57.5 246t97.5 237.5t136 202t177 140t220.5 53h70q98 -39 168.5 -116.5t111.5 -178.5q4 -4 7 -14t3 -12q0 -4 -1 -26.5t1 -27.5q0 -2 6.5 -15l8.5 -17q37 -63 68.5 -117.5t45.5 -126.5v-137q0 -88 -4 -172t-20 -170q-2 -6 -4 -18.5t-6 -16.5 q-6 -23 -18.5 -60.5t-25 -76.5t-23.5 -71t-13 -38q-31 -86 -84 -163.5t-121 -138t-149.5 -96.5t-170.5 -36q-41 0 -78.5 13.5t-74.5 31.5q-94 45 -169 119t-127 165t-80 196t-28 214zM176 688q0 -115 35 -211t113 -182q45 -47 98 -85t119 -38q47 0 91 21.5t79 50.5 q98 76 164.5 176t105.5 215t55.5 238.5t16.5 248.5q0 74 -20.5 134.5t-52.5 115.5t-71 108.5t-75 110.5q-2 2 -5.5 12.5l-7.5 22.5t-10 23.5t-12 13.5q-18 8 -33.5 9t-36.5 1q-80 0 -153.5 -51t-135 -127t-107.5 -163t-73 -156q-45 -115 -64.5 -239t-19.5 -249zM496 2191 q0 16 11 29.5t34 13.5q55 0 100 -30.5t64 -69.5l120 -78q16 -4 39 -19.5t33 -23.5q4 -4 15.5 -12t24.5 -17.5t24.5 -18.5t15.5 -13q6 -10 6 -17q0 -18 -19.5 -25t-37.5 -7q-35 0 -106.5 34.5t-143.5 82.5t-126 96t-54 75z" />
<glyph unicode="&#xd3;" d="M16 739q0 104 18.5 227.5t57.5 246t97.5 237.5t136 202t177 140t220.5 53h70q98 -39 168.5 -116.5t111.5 -178.5q4 -4 7 -14t3 -12q0 -4 -1 -26.5t1 -27.5q0 -2 6.5 -15l8.5 -17q37 -63 68.5 -117.5t45.5 -126.5v-137q0 -88 -4 -172t-20 -170q-2 -6 -4 -18.5t-6 -16.5 q-6 -23 -18.5 -60.5t-25 -76.5t-23.5 -71t-13 -38q-31 -86 -84 -163.5t-121 -138t-149.5 -96.5t-170.5 -36q-41 0 -78.5 13.5t-74.5 31.5q-94 45 -169 119t-127 165t-80 196t-28 214zM176 688q0 -115 35 -211t113 -182q45 -47 98 -85t119 -38q47 0 91 21.5t79 50.5 q98 76 164.5 176t105.5 215t55.5 238.5t16.5 248.5q0 74 -20.5 134.5t-52.5 115.5t-71 108.5t-75 110.5q-2 2 -5.5 12.5l-7.5 22.5t-10 23.5t-12 13.5q-18 8 -33.5 9t-36.5 1q-80 0 -153.5 -51t-135 -127t-107.5 -163t-73 -156q-45 -115 -64.5 -239t-19.5 -249zM193 1964 q0 6 1 18.5t9 16.5l94 59q94 37 174 75t166 73q4 4 26.5 10t28.5 8h10q47 0 90.5 -17.5t43.5 -47.5v-15.5t-11 -9.5q-76 -29 -152.5 -57.5t-148.5 -61.5q-49 -23 -92 -54.5t-106 -33.5q-6 0 -22.5 1t-34 2t-34 2t-22.5 1q-16 6 -18 13.5t-2 17.5z" />
<glyph unicode="&#xd4;" d="M16 739q0 104 18.5 227.5t57.5 246t97.5 237.5t136 202t177 140t220.5 53h70q98 -39 168.5 -116.5t111.5 -178.5q4 -4 7 -14t3 -12q0 -4 -1 -26.5t1 -27.5q0 -2 6.5 -15l8.5 -17q37 -63 68.5 -117.5t45.5 -126.5v-137q0 -88 -4 -172t-20 -170q-2 -6 -4 -18.5t-6 -16.5 q-6 -23 -18.5 -60.5t-25 -76.5t-23.5 -71t-13 -38q-31 -86 -84 -163.5t-121 -138t-149.5 -96.5t-170.5 -36q-41 0 -78.5 13.5t-74.5 31.5q-94 45 -169 119t-127 165t-80 196t-28 214zM176 688q0 -115 35 -211t113 -182q45 -47 98 -85t119 -38q47 0 91 21.5t79 50.5 q98 76 164.5 176t105.5 215t55.5 238.5t16.5 248.5q0 74 -20.5 134.5t-52.5 115.5t-71 108.5t-75 110.5q-2 2 -5.5 12.5l-7.5 22.5t-10 23.5t-12 13.5q-18 8 -33.5 9t-36.5 1q-80 0 -153.5 -51t-135 -127t-107.5 -163t-73 -156q-45 -115 -64.5 -239t-19.5 -249zM317 2040 q0 10 1 16t10 17q41 37 81 76.5t74 80.5q4 4 18.5 22.5t31 38t29.5 37t18 21.5q6 8 19 20.5t15 12.5t11.5 1t13.5 1q25 0 30 -3t25 -20q23 -23 38.5 -46t35.5 -46q57 -59 120.5 -108.5t121.5 -108.5q4 -8 4 -12v-15q0 -41 -47 -40q-29 0 -52.5 13t-42.5 32l-217 206h-6 q-10 0 -21.5 -17t-17.5 -28q-10 -10 -26.5 -29.5t-20.5 -23.5q-8 -8 -28.5 -29.5t-44 -44t-46 -43t-30.5 -28.5q-10 -8 -25.5 -13.5t-30.5 -5.5q-23 0 -32 25t-9 41z" />
<glyph unicode="&#xd5;" d="M16 739q0 104 18.5 227.5t57.5 246t97.5 237.5t136 202t177 140t220.5 53h70q98 -39 168.5 -116.5t111.5 -178.5q4 -4 7 -14t3 -12q0 -4 -1 -26.5t1 -27.5q0 -2 6.5 -15l8.5 -17q37 -63 68.5 -117.5t45.5 -126.5v-137q0 -88 -4 -172t-20 -170q-2 -6 -4 -18.5t-6 -16.5 q-6 -23 -18.5 -60.5t-25 -76.5t-23.5 -71t-13 -38q-31 -86 -84 -163.5t-121 -138t-149.5 -96.5t-170.5 -36q-41 0 -78.5 13.5t-74.5 31.5q-94 45 -169 119t-127 165t-80 196t-28 214zM176 688q0 -115 35 -211t113 -182q45 -47 98 -85t119 -38q47 0 91 21.5t79 50.5 q98 76 164.5 176t105.5 215t55.5 238.5t16.5 248.5q0 74 -20.5 134.5t-52.5 115.5t-71 108.5t-75 110.5q-2 2 -5.5 12.5l-7.5 22.5t-10 23.5t-12 13.5q-18 8 -33.5 9t-36.5 1q-80 0 -153.5 -51t-135 -127t-107.5 -163t-73 -156q-45 -115 -64.5 -239t-19.5 -249zM203 2144v45 q10 41 39.5 70t67.5 47t82 26.5t83 8.5q61 0 102 -22.5t69 -58.5t45.5 -81t31.5 -90q2 -4 11 -17.5t14 -17.5l10 -10t8 -6h72q18 0 33.5 12t26.5 29.5t18.5 37t7.5 33.5q0 16 -8.5 29.5t-19.5 28t-19.5 28t-8.5 29.5q0 18 6.5 30.5t28.5 12.5q33 0 55.5 -15.5t39 -38 t28.5 -49t23 -48.5q4 -12 5 -19.5t1 -17.5q0 -37 -17.5 -71t-46 -59.5t-64.5 -40t-75 -14.5q-82 0 -132 22.5t-80 57.5t-45 75t-28.5 75t-28.5 57.5t-44 22.5q-33 0 -66 -8.5t-58.5 -25t-42 -41t-16.5 -59.5q0 -18 8.5 -33.5t19.5 -31.5t19.5 -31.5t8.5 -34.5q0 -10 -13 -14 q-4 0 -13 -1t-13 -1q-35 0 -58.5 18.5t-39 46t-21.5 59.5t-6 56z" />
<glyph unicode="&#xd6;" d="M16 739q0 104 18.5 227.5t57.5 246t97.5 237.5t136 202t177 140t220.5 53h70q98 -39 168.5 -116.5t111.5 -178.5q4 -4 7 -14t3 -12q0 -4 -1 -26.5t1 -27.5q0 -2 6.5 -15l8.5 -17q37 -63 68.5 -117.5t45.5 -126.5v-137q0 -88 -4 -172t-20 -170q-2 -6 -4 -18.5t-6 -16.5 q-6 -23 -18.5 -60.5t-25 -76.5t-23.5 -71t-13 -38q-31 -86 -84 -163.5t-121 -138t-149.5 -96.5t-170.5 -36q-41 0 -78.5 13.5t-74.5 31.5q-94 45 -169 119t-127 165t-80 196t-28 214zM176 688q0 -115 35 -211t113 -182q45 -47 98 -85t119 -38q47 0 91 21.5t79 50.5 q98 76 164.5 176t105.5 215t55.5 238.5t16.5 248.5q0 74 -20.5 134.5t-52.5 115.5t-71 108.5t-75 110.5q-2 2 -5.5 12.5l-7.5 22.5t-10 23.5t-12 13.5q-18 8 -33.5 9t-36.5 1q-80 0 -153.5 -51t-135 -127t-107.5 -163t-73 -156q-45 -115 -64.5 -239t-19.5 -249zM330 2150 q0 4 1 16.5t1 16.5q12 35 47 51.5t65 16.5q20 0 39 -8q4 -4 16.5 -12.5t26 -18.5t25.5 -19.5t16 -13.5q25 -16 28 -49t1 -59q-2 -47 -28.5 -87t-73.5 -38q-33 0 -63 19.5t-53.5 49t-35.5 65t-12 70.5zM410 2142q0 -12 6 -27.5t15 -28.5t20.5 -23.5t23.5 -10.5 q14 0 19.5 12.5t7.5 22.5q0 29 -17.5 51.5t-44.5 24.5q-10 0 -20 -4.5t-10 -16.5zM737 2126q0 27 17.5 48t42 36.5t52.5 24t48 8.5q20 -2 46 -18.5t46.5 -41t34.5 -52.5t14 -52q-2 -57 -41 -91t-86 -32q-25 0 -55.5 16.5t-57 41t-44 54t-17.5 58.5zM838 2114 q0 -16 20.5 -29.5t32.5 -13.5q14 -2 30.5 2t16.5 20q0 23 -22.5 38t-41.5 15q-8 0 -21 -12t-15 -20z" />
<glyph unicode="&#xd7;" horiz-adv-x="970" d="M23 182q0 14 13 30.5t32.5 31t39 28t31.5 25.5q12 8 39 30.5t56.5 46t55 45t36.5 32.5q6 4 6 9v11q0 16 -17.5 30.5t-29.5 30.5q-47 59 -98.5 116t-92.5 118q-16 25 -33.5 42t-13.5 46q2 18 27.5 23.5t44.5 5.5q23 0 46 -8.5t40 -20.5q2 0 5 -7t3 -9q35 -61 80 -118.5 t94 -115.5q10 -10 24.5 -23.5t30.5 -23.5l33 21q8 10 34 33.5t53.5 50t52 50t34.5 33.5q4 4 16.5 14.5t16.5 14.5q2 4 11 13.5t19.5 19.5t19.5 18.5t13 12.5q12 12 22.5 29.5t25 32.5t33 25.5t44.5 10.5q41 0 69 -18.5t28 -47.5q0 -16 -1 -23t-16 -18l-293 -282q-2 0 -4 -2 t-4 -2l-20.5 -20.5t-29.5 -28t-28.5 -25.5t-15.5 -14l-6 -6l-4 -5q0 -2 3 -8t7 -10l252 -264q14 -14 14 -29q0 -10 -11 -25.5t-30 -15.5h-12q-6 0 -14.5 1t-18.5 1t-22 2q-16 8 -38 25.5t-34 30.5q-10 12 -35.5 38.5t-54.5 56t-54.5 56.5t-35.5 37l-27 10l-8 -4l-45 -37.5 t-71 -58.5t-72.5 -58.5t-49.5 -39.5q-12 -10 -24 -18.5t-33 -8.5q-41 0 -74.5 11t-33.5 46z" />
<glyph unicode="&#xd8;" horiz-adv-x="1859" d="M12 700v131q14 47 21.5 94.5t23.5 94.5q39 115 96.5 209t136.5 176t176 154.5t216 142.5q174 80 379 80q70 0 135.5 -13.5t132.5 -13.5q8 0 12.5 -1t10.5 7l194 295q12 33 34 71t56 58q4 0 18.5 1t20.5 1q57 0 92 -30.5t35 -75.5q0 -33 -13 -62.5t-33.5 -58.5t-44 -56.5 t-44.5 -54.5q-6 -12 -25.5 -41.5t-40 -62.5t-40 -62.5t-25.5 -40.5v-8q0 -10 26.5 -34.5t62.5 -53t71 -57.5t51 -45q78 -90 116 -179t38 -200q0 -86 -19.5 -166t-48.5 -162q-20 -63 -37.5 -128.5t-48.5 -123.5q-61 -109 -146 -202t-195 -161.5t-246 -107.5t-298 -39 q-51 0 -104 4.5t-107 4.5q-31 0 -43 -15.5t-24 -38.5l-262 -518q-25 -41 -84 -41q-53 0 -96.5 22.5t-43.5 69.5q0 2 2 9.5t2 11.5q6 8 19.5 29.5t29 46t30 47t20.5 31.5q51 96 102 200.5t92 204.5v6v4q0 2 -3 8.5t-7 8.5q-109 63 -180.5 130.5t-114.5 143.5t-60.5 164 t-17.5 192zM201 647q0 -96 37.5 -190.5t115.5 -169.5q4 -4 15.5 -17.5t27 -28t32.5 -24.5t34 -10q20 0 43.5 27.5t44 63.5t35 67.5t20.5 42.5l316 655q20 23 22 43q12 20 42 70.5t62.5 106.5t62.5 106.5t42 68.5q6 10 19.5 25.5t26.5 33t22.5 35t9.5 29.5t-22.5 20.5 t-53.5 13.5t-59.5 7t-40.5 2q-59 0 -109.5 -19.5t-97.5 -41.5q-158 -68 -277.5 -167.5t-202.5 -220t-125 -256t-42 -272.5zM715 147q0 -8 3 -13t19 -5h103q156 0 294 48t240 145q51 49 101.5 107t70.5 124l133 405q0 8 4.5 22.5t8.5 31t7 32t3 23.5q0 102 -48 190.5 t-126 167.5q-4 2 -12.5 10.5t-19.5 17.5t-23.5 16.5t-22.5 7.5q-37 -20 -66.5 -58.5t-56.5 -82.5t-49.5 -87t-46.5 -73l-240 -476l-12 -16l-176 -371q-14 -16 -29.5 -36.5t-29 -43t-21.5 -45.5t-8 -41z" />
<glyph unicode="&#xd9;" horiz-adv-x="1482" d="M78 981q0 178 20.5 345t55.5 339q2 18 4 52t9 67t22.5 57.5t48.5 24.5q25 0 48 -11.5t41.5 -30t30 -42t11.5 -47.5q0 -2 -1 -3t-1 -3v-5q-47 -195 -75 -396.5t-28 -403.5v-43q0 -8 3 -37t6 -61.5t6.5 -64.5t5.5 -46q2 -29 9 -76t18.5 -101.5t27.5 -109.5t39.5 -100 t54.5 -73t70 -28q27 0 53.5 12.5t51 30t46 37t37.5 35.5q94 86 166 209t122 261t81 279.5t43 264.5v114q0 14 1 53.5t2 82.5t3 80.5t2 52.5q16 39 57 39q61 0 98.5 -52.5t41.5 -113.5v-533q2 -47 2 -103t1 -114.5t4 -116t11 -106.5l100 -596q0 -2 3 -4q0 -2 2 -4 q0 -39 -31 -52.5t-60 -13.5q-45 0 -72.5 39t-44 100.5t-26.5 136t-18.5 147.5t-20 133t-29.5 93q-4 -2 -6 -4l-4 -4q-27 -53 -47 -93t-40.5 -74.5t-45 -69.5t-61.5 -78q-2 -2 -5 -9t-3 -12q-41 -43 -81 -85t-86 -74.5t-99.5 -52t-116.5 -19.5h-46q-2 2 -10 6t-17 10.5 t-17.5 10.5t-10.5 6q-90 39 -145.5 104.5t-89 145t-53 170t-40.5 180.5q-20 86 -24 173t-4 175zM537 2101q0 16 11 29.5t34 13.5q55 0 100 -30.5t63 -69.5l121 -78q16 -4 39 -19.5t33 -23.5q4 -4 15.5 -12t24.5 -17.5t24.5 -18.5t15.5 -13q6 -10 6 -17q0 -18 -19.5 -25.5 t-37.5 -7.5q-35 0 -107 35t-143.5 83t-125.5 96t-54 75z" />
<glyph unicode="&#xda;" horiz-adv-x="1482" d="M78 981q0 178 20.5 345t55.5 339q2 18 4 52t9 67t22.5 57.5t48.5 24.5q25 0 48 -11.5t41.5 -30t30 -42t11.5 -47.5q0 -2 -1 -3t-1 -3v-5q-47 -195 -75 -396.5t-28 -403.5v-43q0 -8 3 -37t6 -61.5t6.5 -64.5t5.5 -46q2 -29 9 -76t18.5 -101.5t27.5 -109.5t39.5 -100 t54.5 -73t70 -28q27 0 53.5 12.5t51 30t46 37t37.5 35.5q94 86 166 209t122 261t81 279.5t43 264.5v114q0 14 1 53.5t2 82.5t3 80.5t2 52.5q16 39 57 39q61 0 98.5 -52.5t41.5 -113.5v-533q2 -47 2 -103t1 -114.5t4 -116t11 -106.5l100 -596q0 -2 3 -4q0 -2 2 -4 q0 -39 -31 -52.5t-60 -13.5q-45 0 -72.5 39t-44 100.5t-26.5 136t-18.5 147.5t-20 133t-29.5 93q-4 -2 -6 -4l-4 -4q-27 -53 -47 -93t-40.5 -74.5t-45 -69.5t-61.5 -78q-2 -2 -5 -9t-3 -12q-41 -43 -81 -85t-86 -74.5t-99.5 -52t-116.5 -19.5h-46q-2 2 -10 6t-17 10.5 t-17.5 10.5t-10.5 6q-90 39 -145.5 104.5t-89 145t-53 170t-40.5 180.5q-20 86 -24 173t-4 175zM373 1964q0 6 1 18.5t9 16.5l94 59q94 37 174 75t166 73q4 4 26.5 10t28.5 8h11q47 0 90 -17.5t43 -47.5v-15.5t-10 -9.5q-76 -29 -153 -57.5t-148 -61.5q-49 -23 -92.5 -54.5 t-106.5 -33.5q-6 0 -22.5 1t-34 2t-34 2t-22.5 1q-16 6 -18 13.5t-2 17.5z" />
<glyph unicode="&#xdb;" horiz-adv-x="1482" d="M78 981q0 178 20.5 345t55.5 339q2 18 4 52t9 67t22.5 57.5t48.5 24.5q25 0 48 -11.5t41.5 -30t30 -42t11.5 -47.5q0 -2 -1 -3t-1 -3v-5q-47 -195 -75 -396.5t-28 -403.5v-43q0 -8 3 -37t6 -61.5t6.5 -64.5t5.5 -46q2 -29 9 -76t18.5 -101.5t27.5 -109.5t39.5 -100 t54.5 -73t70 -28q27 0 53.5 12.5t51 30t46 37t37.5 35.5q94 86 166 209t122 261t81 279.5t43 264.5v114q0 14 1 53.5t2 82.5t3 80.5t2 52.5q16 39 57 39q61 0 98.5 -52.5t41.5 -113.5v-533q2 -47 2 -103t1 -114.5t4 -116t11 -106.5l100 -596q0 -2 3 -4q0 -2 2 -4 q0 -39 -31 -52.5t-60 -13.5q-45 0 -72.5 39t-44 100.5t-26.5 136t-18.5 147.5t-20 133t-29.5 93q-4 -2 -6 -4l-4 -4q-27 -53 -47 -93t-40.5 -74.5t-45 -69.5t-61.5 -78q-2 -2 -5 -9t-3 -12q-41 -43 -81 -85t-86 -74.5t-99.5 -52t-116.5 -19.5h-46q-2 2 -10 6t-17 10.5 t-17.5 10.5t-10.5 6q-90 39 -145.5 104.5t-89 145t-53 170t-40.5 180.5q-20 86 -24 173t-4 175zM399 1974q0 10 1 16.5t10 16.5q41 37 80.5 77t74.5 81q4 4 18.5 22.5t31 38t29.5 36.5t18 22q6 8 19 20t15 12t11.5 1t13.5 1q25 0 30 -3t25 -19q23 -23 38 -46.5t36 -45.5 q57 -59 120.5 -108.5t121.5 -108.5q4 -8 4 -12.5v-14.5q0 -41 -47 -41q-29 0 -52.5 13.5t-42.5 31.5l-217 207h-6q-10 0 -21.5 -17.5t-17.5 -27.5q-10 -10 -26.5 -29.5t-20.5 -23.5q-8 -8 -28.5 -30t-44 -44.5t-46 -43t-30.5 -28.5q-10 -8 -25.5 -13t-30.5 -5 q-23 0 -32 24.5t-9 40.5z" />
<glyph unicode="&#xdc;" horiz-adv-x="1482" d="M78 981q0 178 20.5 345t55.5 339q2 18 4 52t9 67t22.5 57.5t48.5 24.5q25 0 48 -11.5t41.5 -30t30 -42t11.5 -47.5q0 -2 -1 -3t-1 -3v-5q-47 -195 -75 -396.5t-28 -403.5v-43q0 -8 3 -37t6 -61.5t6.5 -64.5t5.5 -46q2 -29 9 -76t18.5 -101.5t27.5 -109.5t39.5 -100 t54.5 -73t70 -28q27 0 53.5 12.5t51 30t46 37t37.5 35.5q94 86 166 209t122 261t81 279.5t43 264.5v114q0 14 1 53.5t2 82.5t3 80.5t2 52.5q16 39 57 39q61 0 98.5 -52.5t41.5 -113.5v-533q2 -47 2 -103t1 -114.5t4 -116t11 -106.5l100 -596q0 -2 3 -4q0 -2 2 -4 q0 -39 -31 -52.5t-60 -13.5q-45 0 -72.5 39t-44 100.5t-26.5 136t-18.5 147.5t-20 133t-29.5 93q-4 -2 -6 -4l-4 -4q-27 -53 -47 -93t-40.5 -74.5t-45 -69.5t-61.5 -78q-2 -2 -5 -9t-3 -12q-41 -43 -81 -85t-86 -74.5t-99.5 -52t-116.5 -19.5h-46q-2 2 -10 6t-17 10.5 t-17.5 10.5t-10.5 6q-90 39 -145.5 104.5t-89 145t-53 170t-40.5 180.5q-20 86 -24 173t-4 175zM379 2109q0 4 1 16.5t1 16.5q12 35 47 51.5t66 16.5q20 0 38 -8q4 -4 16.5 -12.5t26 -18.5t25.5 -19.5t16 -13.5q25 -16 28 -49t1 -59q-2 -47 -28.5 -87t-73.5 -38 q-33 0 -62.5 19.5t-53.5 49t-36 65t-12 70.5zM459 2101q0 -12 6 -27.5t15 -28.5t20.5 -23.5t23.5 -10.5q14 0 19.5 12.5t7.5 22.5q0 29 -17.5 51.5t-44.5 24.5q-10 0 -20 -4.5t-10 -16.5zM786 2085q0 27 17.5 48t42 36.5t52.5 24t48 8.5q20 -2 46 -18.5t46.5 -41t34.5 -52.5 t14 -52q-2 -57 -40.5 -91t-85.5 -32q-25 0 -56 16.5t-57.5 41t-44 54t-17.5 58.5zM887 2073q0 -16 20.5 -29.5t32.5 -13.5q14 -2 30.5 2t16.5 20q0 23 -22.5 38t-40.5 15q-8 0 -21.5 -12t-15.5 -20z" />
<glyph unicode="&#xdd;" horiz-adv-x="1114" d="M0 831v93q0 223 44 450.5t101 444.5q8 20 21.5 22t32.5 2q18 0 40.5 -6t42 -18.5t32 -29.5t12.5 -38v-2q-25 -109 -50.5 -219.5t-47 -221t-35 -223t-13.5 -223.5q0 -80 13.5 -171t50.5 -169q2 0 11 -1t11 -1q25 0 54.5 11.5t59.5 27.5t56.5 33.5t42.5 32.5 q92 76 155.5 150.5t115.5 176.5q2 4 10 19.5t17 32t16.5 33t9.5 24.5q20 45 18 91t2 93q2 20 6.5 75.5t10.5 120t11 124t9 86.5q2 25 13.5 56.5t48.5 31.5q57 0 85.5 -33t39 -78t10.5 -93v-81q0 -80 -15.5 -158.5t-29.5 -160.5v-396v-395q2 -31 5 -110.5t7 -170t8 -170 t6 -112.5q10 -59 14.5 -120.5t4.5 -125.5q0 -20 -5 -49t-28 -39h-39q-53 0 -86 18.5t-39 67.5q0 10 1 33.5t1 50.5t-1 50.5t-1 33.5q-2 12 -7 60.5t-9 103.5t-8.5 103t-6.5 61q-6 164 -6 328.5v330.5h-10q-29 -35 -88 -91t-131 -110.5t-146.5 -93.5t-132.5 -39 q-98 0 -153.5 36t-85 91.5t-41.5 125t-25 136.5q-10 51 -10 88zM307 1956q0 6 1 18.5t9 16.5l95 59q94 37 174 75t166 73q4 4 26.5 10t28.5 8h10q47 0 90 -17.5t43 -48.5v-15t-10 -9q-76 -29 -152.5 -57.5t-148.5 -61.5q-49 -23 -92 -54.5t-107 -33.5q-6 0 -22.5 1t-33.5 2 t-33.5 2t-22.5 1q-16 6 -18.5 13.5t-2.5 17.5z" />
<glyph unicode="&#xde;" horiz-adv-x="1277" d="M59 1346.5q0 50.5 2 70.5q0 4 2.5 26.5t5.5 51.5t6 56.5t5 43.5q2 20 5 61.5t11 81.5t26.5 69.5t51.5 29.5q29 0 51.5 -12.5t36.5 -32.5t21.5 -44t7.5 -44q0 -39 -6 -77t-6 -73q0 -18 5 -25t23 -7q31 0 62.5 7t65.5 16t69 17.5t71 8.5q82 0 152 -16.5t131.5 -47 t118.5 -71.5t117 -90q70 -57 116.5 -110.5t75.5 -139.5q4 -12 10.5 -35t12.5 -46.5t10 -43t4 -25.5q4 -4 4 -30.5v-43.5q0 -84 -22.5 -153.5t-57.5 -147.5q-35 -82 -96 -135t-138 -85t-166 -44t-177 -12t-170 16.5t-168 16.5q0 -23 4 -43.5t4 -42.5v-9q0 -12 -3 -40.5 t-7 -61.5t-7.5 -61.5t-3.5 -40.5q-4 -12 -16 -24.5t-27 -12.5q-18 0 -42.5 5t-46 15.5t-39 26t-19.5 35.5q2 121 -12.5 232.5t-18.5 230.5v26.5v45v45v26.5q-2 18 -6 67.5t-10 104.5t-11 105.5t-8 68.5v37q0 18 -1 68.5t-2 107.5t-1 107.5zM252 1151q2 -14 8 -67.5 t12.5 -116t12.5 -115.5t6 -68v-16q0 -12 1 -45t2 -67.5t3 -66.5t4 -44q18 -25 63.5 -40.5t96.5 -22.5t100 -9t78 -2q86 0 154.5 9t122 37t94.5 77t73 127q18 47 29.5 87t11.5 87q0 92 -28.5 178t-108.5 148q-47 37 -86 67.5t-79 54t-86 37t-105 13.5q-23 0 -79 -10.5 t-115.5 -26t-110 -34.5t-62.5 -38q-2 -6 -4 -22.5t-3 -36t-3 -35.5t-2 -23v-8v-8z" />
<glyph unicode="&#xdf;" horiz-adv-x="1212" d="M66 309v6l36 637l64 258q0 2 5 12.5t12 22.5t14.5 23.5t11.5 17.5q106 147 303 148q49 0 104.5 -26t102.5 -64.5t77.5 -85t30.5 -87.5q0 -29 -18 -58.5t-39.5 -55t-40 -49t-18.5 -39.5q0 -4 7 -8.5t16 -7.5t17.5 -5t10.5 -2q72 -29 127 -66.5t99 -83.5t79 -99.5 t70 -114.5q51 -96 51 -207q0 -68 -24.5 -152t-74 -155.5t-125 -116.5t-176.5 -37q-4 0 -16 3t-26.5 6t-27.5 6t-16 3h-14q-4 0 -15 5.5t-22.5 10.5t-22 10t-14.5 7q-20 12 -49.5 50t-57.5 82t-47.5 83t-19.5 53v21q10 10 22.5 12t26.5 2q37 0 73 -20.5t52 -48.5 q2 -4 5.5 -16.5t3.5 -14.5q2 -4 7 -12.5t7 -12.5q4 -6 15.5 -19t24.5 -27.5t24.5 -28t15.5 -19.5q12 -10 21.5 -11t25.5 -1q23 0 49.5 4t46.5 14q37 20 67.5 66.5t54.5 98.5t36 105.5t12 90.5q0 47 -26.5 112.5t-68.5 130t-94.5 114.5t-101.5 67q-29 8 -71.5 11t-82.5 10 t-70 24.5t-30 54.5q0 8 -1 18.5t8 16.5q8 8 25.5 27.5t36.5 42t36.5 42t23.5 27.5q23 23 33 43.5t10 48.5q0 14 -12 34t-29.5 36t-38 28.5t-34.5 12.5q-70 0 -115 -28.5t-73.5 -71.5t-45 -94.5t-26.5 -96.5q-8 -29 -17.5 -58.5t-11.5 -58.5l-31 -542q-4 -25 -5 -37.5 t-1 -28.5q0 -59 7 -118.5t7 -121.5v-36q-8 -16 -26.5 -22.5t-38.5 -6.5q-35 0 -51.5 16.5t-23.5 40t-8 48t-3 42.5q-4 41 -9 82t-5 84z" />
<glyph unicode="&#xe0;" horiz-adv-x="1122" d="M72 295q0 53 19.5 101t52 92t74.5 84t87 77q35 27 66.5 43.5t64.5 24.5t71 10t85 2q72 0 142.5 -29.5t129.5 -60.5h13q0 14 1 48t2 71t2 70.5t1 45.5q0 27 -10.5 86.5t-29 122t-43 115.5t-55.5 70q-4 0 -19 1t-21 1q-57 0 -112.5 -22.5t-103.5 -45.5q-96 -49 -154.5 -128 t-76.5 -171q-4 -18 -4 -38.5t-4 -38t-18.5 -28t-47.5 -10.5q-23 0 -47 20.5t-24 41.5v154q0 12 6 29.5t15 34.5t18.5 33.5t17.5 26.5q31 45 83 93.5t115.5 87.5t134 63.5t138.5 24.5q102 0 187 -52.5t126 -130.5q12 -25 20.5 -49t18.5 -51l56 -258q-2 -74 3 -147.5t5 -145.5 q0 -16 -4 -60t-12.5 -102.5t-17.5 -124t-18.5 -122t-18.5 -95.5t-15 -47q-10 -10 -24.5 -11t-28.5 -1q-39 0 -59.5 16.5t-32 37t-18.5 36.5t-20 16h-2q-43 -10 -79.5 -25t-74.5 -29.5t-78 -24t-87 -9.5q-78 0 -149.5 15.5t-126 49.5t-87 86t-32.5 126zM242 244 q0 -31 14 -49.5t38.5 -29.5t55.5 -14.5t62 -3.5q53 0 112.5 17.5t117.5 45.5t109.5 63.5t88.5 70.5q23 18 25.5 49t2.5 53q0 31 -27.5 60t-67.5 49t-85 32.5t-78 12.5q-37 0 -66.5 -7t-54 -19.5t-47 -31t-49.5 -42.5q-33 -31 -60.5 -57.5t-48 -56.5t-31.5 -64.5t-11 -77.5z M414 1724q0 16 11 29.5t34 13.5q55 0 100 -30.5t64 -69.5l120 -78q16 -4 39 -19.5t33 -23.5q4 -4 15.5 -12t24.5 -17.5t24.5 -18.5t15.5 -13q6 -10 6 -17q0 -18 -19.5 -25t-37.5 -7q-35 0 -106.5 34.5t-143.5 83t-126 96t-54 74.5z" />
<glyph unicode="&#xe1;" horiz-adv-x="1122" d="M72 295q0 53 19.5 101t52 92t74.5 84t87 77q35 27 66.5 43.5t64.5 24.5t71 10t85 2q72 0 142.5 -29.5t129.5 -60.5h13q0 14 1 48t2 71t2 70.5t1 45.5q0 27 -10.5 86.5t-29 122t-43 115.5t-55.5 70q-4 0 -19 1t-21 1q-57 0 -112.5 -22.5t-103.5 -45.5q-96 -49 -154.5 -128 t-76.5 -171q-4 -18 -4 -38.5t-4 -38t-18.5 -28t-47.5 -10.5q-23 0 -47 20.5t-24 41.5v154q0 12 6 29.5t15 34.5t18.5 33.5t17.5 26.5q31 45 83 93.5t115.5 87.5t134 63.5t138.5 24.5q102 0 187 -52.5t126 -130.5q12 -25 20.5 -49t18.5 -51l56 -258q-2 -74 3 -147.5t5 -145.5 q0 -16 -4 -60t-12.5 -102.5t-17.5 -124t-18.5 -122t-18.5 -95.5t-15 -47q-10 -10 -24.5 -11t-28.5 -1q-39 0 -59.5 16.5t-32 37t-18.5 36.5t-20 16h-2q-43 -10 -79.5 -25t-74.5 -29.5t-78 -24t-87 -9.5q-78 0 -149.5 15.5t-126 49.5t-87 86t-32.5 126zM209 1423q0 6 1 18.5 t9 16.5l94 60q94 37 174 74.5t166 72.5q4 4 26.5 10t29.5 8h10q47 0 90 -17t43 -48v-15.5t-10 -9.5q-76 -29 -153 -57.5t-148 -60.5q-49 -23 -92 -54.5t-107 -34.5q-6 0 -22.5 1.5t-34 2.5t-34 2t-22.5 1q-16 6 -18 13t-2 17zM242 244q0 -31 14 -49.5t38.5 -29.5t55.5 -14.5 t62 -3.5q53 0 112.5 17.5t117.5 45.5t109.5 63.5t88.5 70.5q23 18 25.5 49t2.5 53q0 31 -27.5 60t-67.5 49t-85 32.5t-78 12.5q-37 0 -66.5 -7t-54 -19.5t-47 -31t-49.5 -42.5q-33 -31 -60.5 -57.5t-48 -56.5t-31.5 -64.5t-11 -77.5z" />
<glyph unicode="&#xe2;" horiz-adv-x="1122" d="M72 295q0 53 19.5 101t52 92t74.5 84t87 77q35 27 66.5 43.5t64.5 24.5t71 10t85 2q72 0 142.5 -29.5t129.5 -60.5h13q0 14 1 48t2 71t2 70.5t1 45.5q0 27 -10.5 86.5t-29 122t-43 115.5t-55.5 70q-4 0 -19 1t-21 1q-57 0 -112.5 -22.5t-103.5 -45.5q-96 -49 -154.5 -128 t-76.5 -171q-4 -18 -4 -38.5t-4 -38t-18.5 -28t-47.5 -10.5q-23 0 -47 20.5t-24 41.5v154q0 12 6 29.5t15 34.5t18.5 33.5t17.5 26.5q31 45 83 93.5t115.5 87.5t134 63.5t138.5 24.5q102 0 187 -52.5t126 -130.5q12 -25 20.5 -49t18.5 -51l56 -258q-2 -74 3 -147.5t5 -145.5 q0 -16 -4 -60t-12.5 -102.5t-17.5 -124t-18.5 -122t-18.5 -95.5t-15 -47q-10 -10 -24.5 -11t-28.5 -1q-39 0 -59.5 16.5t-32 37t-18.5 36.5t-20 16h-2q-43 -10 -79.5 -25t-74.5 -29.5t-78 -24t-87 -9.5q-78 0 -149.5 15.5t-126 49.5t-87 86t-32.5 126zM242 244 q0 -31 14 -49.5t38.5 -29.5t55.5 -14.5t62 -3.5q53 0 112.5 17.5t117.5 45.5t109.5 63.5t88.5 70.5q23 18 25.5 49t2.5 53q0 31 -27.5 60t-67.5 49t-85 32.5t-78 12.5q-37 0 -66.5 -7t-54 -19.5t-47 -31t-49.5 -42.5q-33 -31 -60.5 -57.5t-48 -56.5t-31.5 -64.5t-11 -77.5z M268 1491q0 10 1 16t10 17q41 37 80.5 76.5t74.5 80.5q4 4 18.5 22.5t31 38t29.5 37t17 21.5q6 8 19.5 20.5t15.5 12.5t11.5 1t13.5 1q25 0 30 -3t25 -20q23 -23 38 -46t36 -46q57 -59 120.5 -108t121.5 -109q4 -8 4 -12v-14q0 -41 -47 -41q-29 0 -52.5 13t-42.5 32 l-217 207h-6q-10 0 -21.5 -17.5t-17.5 -28.5q-10 -10 -26.5 -29.5t-20.5 -23.5q-8 -8 -28.5 -29.5t-44 -44t-46 -43t-30.5 -28.5q-10 -8 -25.5 -13.5t-30.5 -5.5q-23 0 -32 25t-9 41z" />
<glyph unicode="&#xe3;" horiz-adv-x="1122" d="M72 295q0 53 19.5 101t52 92t74.5 84t87 77q35 27 66.5 43.5t64.5 24.5t71 10t85 2q72 0 142.5 -29.5t129.5 -60.5h13q0 14 1 48t2 71t2 70.5t1 45.5q0 27 -10.5 86.5t-29 122t-43 115.5t-55.5 70q-4 0 -19 1t-21 1q-57 0 -112.5 -22.5t-103.5 -45.5q-96 -49 -154.5 -128 t-76.5 -171q-4 -18 -4 -38.5t-4 -38t-18.5 -28t-47.5 -10.5q-23 0 -47 20.5t-24 41.5v154q0 12 6 29.5t15 34.5t18.5 33.5t17.5 26.5q31 45 83 93.5t115.5 87.5t134 63.5t138.5 24.5q102 0 187 -52.5t126 -130.5q12 -25 20.5 -49t18.5 -51l56 -258q-2 -74 3 -147.5t5 -145.5 q0 -16 -4 -60t-12.5 -102.5t-17.5 -124t-18.5 -122t-18.5 -95.5t-15 -47q-10 -10 -24.5 -11t-28.5 -1q-39 0 -59.5 16.5t-32 37t-18.5 36.5t-20 16h-2q-43 -10 -79.5 -25t-74.5 -29.5t-78 -24t-87 -9.5q-78 0 -149.5 15.5t-126 49.5t-87 86t-32.5 126zM219 1645v45 q10 41 40 69.5t68 47t82 26.5t83 8q61 0 102 -22.5t68.5 -58.5t45 -81t31.5 -90q2 -4 11.5 -17t13.5 -18l10 -10t8 -6h72q18 0 33.5 12.5t27 29.5t18.5 36.5t7 34.5q0 16 -8 29.5t-19.5 27.5t-19.5 27.5t-8 29.5q0 18 6 30.5t29 12.5q33 0 55 -15t38.5 -37.5t29 -49.5 t22.5 -49q4 -12 5 -19.5t1 -17.5q0 -37 -17.5 -70.5t-46 -59.5t-64.5 -40t-75 -14q-82 0 -132 22.5t-79.5 57t-45 74.5t-29 75t-28.5 57.5t-44 22.5q-33 0 -65.5 -8t-58.5 -24.5t-42 -41t-16 -59.5q0 -18 8 -33.5t19.5 -32t19.5 -32t8 -33.5q0 -10 -12 -15q-4 0 -13.5 -1 t-13.5 -1q-35 0 -58.5 18.5t-39 46t-21.5 59.5t-6 57zM242 244q0 -31 14 -49.5t38.5 -29.5t55.5 -14.5t62 -3.5q53 0 112.5 17.5t117.5 45.5t109.5 63.5t88.5 70.5q23 18 25.5 49t2.5 53q0 31 -27.5 60t-67.5 49t-85 32.5t-78 12.5q-37 0 -66.5 -7t-54 -19.5t-47 -31 t-49.5 -42.5q-33 -31 -60.5 -57.5t-48 -56.5t-31.5 -64.5t-11 -77.5z" />
<glyph unicode="&#xe4;" horiz-adv-x="1122" d="M72 295q0 53 19.5 101t52 92t74.5 84t87 77q35 27 66.5 43.5t64.5 24.5t71 10t85 2q72 0 142.5 -29.5t129.5 -60.5h13q0 14 1 48t2 71t2 70.5t1 45.5q0 27 -10.5 86.5t-29 122t-43 115.5t-55.5 70q-4 0 -19 1t-21 1q-57 0 -112.5 -22.5t-103.5 -45.5q-96 -49 -154.5 -128 t-76.5 -171q-4 -18 -4 -38.5t-4 -38t-18.5 -28t-47.5 -10.5q-23 0 -47 20.5t-24 41.5v154q0 12 6 29.5t15 34.5t18.5 33.5t17.5 26.5q31 45 83 93.5t115.5 87.5t134 63.5t138.5 24.5q102 0 187 -52.5t126 -130.5q12 -25 20.5 -49t18.5 -51l56 -258q-2 -74 3 -147.5t5 -145.5 q0 -16 -4 -60t-12.5 -102.5t-17.5 -124t-18.5 -122t-18.5 -95.5t-15 -47q-10 -10 -24.5 -11t-28.5 -1q-39 0 -59.5 16.5t-32 37t-18.5 36.5t-20 16h-2q-43 -10 -79.5 -25t-74.5 -29.5t-78 -24t-87 -9.5q-78 0 -149.5 15.5t-126 49.5t-87 86t-32.5 126zM242 244 q0 -31 14 -49.5t38.5 -29.5t55.5 -14.5t62 -3.5q53 0 112.5 17.5t117.5 45.5t109.5 63.5t88.5 70.5q23 18 25.5 49t2.5 53q0 31 -27.5 60t-67.5 49t-85 32.5t-78 12.5q-37 0 -66.5 -7t-54 -19.5t-47 -31t-49.5 -42.5q-33 -31 -60.5 -57.5t-48 -56.5t-31.5 -64.5t-11 -77.5z M256 1626q0 4 1 16.5t1 16.5q12 35 47 51t66 16q20 0 39 -8q4 -4 16 -12t25.5 -18.5t25.5 -19.5t17 -13q25 -16 27.5 -49t0.5 -60q-2 -47 -28.5 -87t-73.5 -38q-33 0 -62.5 19.5t-53 49.5t-36 65.5t-12.5 70.5zM336 1618q0 -12 6 -27.5t15.5 -29t20.5 -23.5t23 -10 q14 0 19.5 12t7.5 23q0 29 -17.5 51t-43.5 24q-10 0 -20.5 -4t-10.5 -16zM664 1602q0 27 17 48t42 36.5t52.5 23.5t47.5 8q20 -2 46 -18.5t46.5 -41t35 -52t14.5 -52.5q-2 -57 -41 -90.5t-86 -31.5q-25 0 -55.5 16t-57.5 40.5t-44 54.5t-17 59zM764 1589q0 -16 20.5 -29.5 t32.5 -13.5q14 -2 30.5 2t16.5 21q0 23 -22.5 38t-40.5 15q-8 0 -21.5 -12.5t-15.5 -20.5z" />
<glyph unicode="&#xe5;" horiz-adv-x="1122" d="M72 295q0 53 19.5 101t52 92t74.5 84t87 77q35 27 66.5 43.5t64.5 24.5t71 10t85 2q72 0 142.5 -29.5t129.5 -60.5h13q0 14 1 48t2 71t2 70.5t1 45.5q0 27 -10.5 86.5t-29 122t-43 115.5t-55.5 70q-4 0 -19 1t-21 1q-57 0 -112.5 -22.5t-103.5 -45.5q-96 -49 -154.5 -128 t-76.5 -171q-4 -18 -4 -38.5t-4 -38t-18.5 -28t-47.5 -10.5q-23 0 -47 20.5t-24 41.5v154q0 12 6 29.5t15 34.5t18.5 33.5t17.5 26.5q31 45 83 93.5t115.5 87.5t134 63.5t138.5 24.5q102 0 187 -52.5t126 -130.5q12 -25 20.5 -49t18.5 -51l56 -258q-2 -74 3 -147.5t5 -145.5 q0 -16 -4 -60t-12.5 -102.5t-17.5 -124t-18.5 -122t-18.5 -95.5t-15 -47q-10 -10 -24.5 -11t-28.5 -1q-39 0 -59.5 16.5t-32 37t-18.5 36.5t-20 16h-2q-43 -10 -79.5 -25t-74.5 -29.5t-78 -24t-87 -9.5q-78 0 -149.5 15.5t-126 49.5t-87 86t-32.5 126zM242 244 q0 -31 14 -49.5t38.5 -29.5t55.5 -14.5t62 -3.5q53 0 112.5 17.5t117.5 45.5t109.5 63.5t88.5 70.5q23 18 25.5 49t2.5 53q0 31 -27.5 60t-67.5 49t-85 32.5t-78 12.5q-37 0 -66.5 -7t-54 -19.5t-47 -31t-49.5 -42.5q-33 -31 -60.5 -57.5t-48 -56.5t-31.5 -64.5t-11 -77.5z M352 1739q0 51 24.5 95t63.5 77t89.5 51t101.5 18q35 0 80 -20.5t87 -50t74.5 -65.5t42.5 -66q6 -23 6.5 -44.5t0.5 -43.5q0 -129 -75 -188.5t-204 -59.5q-61 0 -113.5 25.5t-92.5 67.5t-62.5 95.5t-22.5 108.5zM481 1722q0 -29 10.5 -58.5t29 -53t45 -39t61.5 -15.5 q78 0 122 43t44 117q0 27 -17.5 54.5t-43 50t-57.5 36t-61 13.5q-10 0 -14 -2t-14 -6q-53 -23 -79 -54t-26 -86z" />
<glyph unicode="&#xe6;" horiz-adv-x="1662" d="M27 244q0 82 38.5 148.5t90.5 123.5q51 59 108.5 110.5t123 89.5t139 59.5t155.5 21.5q2 0 14.5 -1t25.5 -2t24.5 -2t13.5 -1h12q16 0 17.5 6t1.5 22q0 43 -7.5 83t-15.5 87q-4 25 -17.5 58.5t-34 64.5t-46 52.5t-56.5 21.5h-8q-92 -31 -153.5 -77t-105.5 -107.5 t-74.5 -135t-59.5 -159.5v-16.5t-3 -26t-10 -23.5t-20 -10q-29 0 -45 11t-26.5 29.5t-13.5 42t-3 46.5q0 88 26.5 168t74 147.5t114 121.5t144.5 93q23 14 62.5 30.5t68.5 16.5q92 0 155.5 -56t105.5 -137t64.5 -172t34.5 -159h8q27 41 76 78t107.5 63.5t118 42t106.5 15.5 q39 0 75.5 -16.5t64.5 -44t44.5 -62.5t16.5 -74q0 -78 -56.5 -153.5t-135.5 -143t-165 -125t-147 -96.5v-4q0 -41 28.5 -72t55.5 -53q25 -23 61.5 -24t67.5 -1q66 0 132 9.5t132 23.5q6 0 29.5 6t29.5 8q2 0 12.5 4.5t12.5 4.5q16 0 19 -17.5t3 -27.5v-16.5t-8 -14.5 q-78 -59 -168 -87t-190 -28q-55 0 -108.5 12.5t-100.5 42.5q-45 25 -78 73t-65 85l-9 8l-4 2l-2 -2h-4q-14 -47 -16 -87t-19 -87q-16 -25 -49 -24q-27 0 -41 9t-23.5 21.5t-15.5 21.5t-14 9h-8q-82 -39 -167 -68.5t-175 -29.5q-55 0 -116.5 15.5t-112 46t-84 78t-33.5 110.5 zM170 225q0 -29 17.5 -47t42 -29.5t52 -15.5t48.5 -4q49 0 110.5 14.5t122 39t111.5 57t80 71.5q2 10 6 34t9 50.5t9 50t4 33.5q2 2 2 32v44v39t-2 37q-10 18 -30.5 24.5t-38.5 6.5q-66 0 -125.5 -19.5t-113.5 -52.5t-102 -76t-91 -88q-35 -39 -73 -91.5t-38 -109.5z M1028 461q18 0 33.5 9t31 20.5t30 23.5t30.5 18q8 6 29.5 23.5t44 37t43 37t26.5 25.5q18 14 38 36t35 46.5t25.5 51t10.5 51.5v20q-10 8 -25.5 8h-23.5h-27q-4 -2 -17.5 -7t-29.5 -11t-33.5 -12.5t-25.5 -10.5q-61 -23 -99.5 -59.5t-60 -83.5t-28.5 -103.5t-7 -119.5z" />
<glyph unicode="&#xe7;" horiz-adv-x="1155" d="M23 393q0 117 59 228.5t154.5 200.5t216 143.5t243.5 54.5h2q16 -4 47 -8t62 -14.5t53.5 -28t22.5 -43.5q0 -23 -7.5 -39.5t-35.5 -16.5q-4 0 -15.5 1t-24 3.5t-23.5 4.5t-13 2h-4q-96 0 -196.5 -44t-182.5 -115t-134 -159t-52 -178q0 -59 36.5 -99t81.5 -77 q47 -39 91.5 -45t103.5 -6q197 0 352 102q16 10 30.5 23.5t30 26t33 21.5t39.5 9q47 0 87 -30.5t40 -78.5q0 -37 -26.5 -67.5t-66.5 -55t-86 -45t-86 -41t-66.5 -40t-26.5 -39.5q0 -2 1 -11.5t1 -13.5q18 -39 32.5 -69.5t23.5 -60.5t14.5 -60.5t5.5 -69.5v-59 q-35 -84 -114 -118t-167 -34q-35 0 -93 9t-113.5 29.5t-96.5 53.5t-41 80q0 39 43 39q53 0 101.5 -11.5t103.5 -11.5h19.5t28.5 1.5t28.5 1.5h19.5q10 2 24.5 7t29 12t23.5 17.5t9 22.5q0 23 -6 46.5t-14 45.5q-4 4 -11.5 20.5t-15.5 36t-16.5 37t-12.5 25.5 q-10 25 -29.5 35t-44 13t-50 4t-48.5 9q-72 27 -139.5 68t-119.5 94t-83.5 118.5t-31.5 143.5z" />
<glyph unicode="&#xe8;" horiz-adv-x="1146" d="M90 465q0 117 54.5 218t141.5 177t195.5 119t216.5 43q84 0 143.5 -25.5t103.5 -70.5t76 -106.5t58 -135.5q0 -8 1 -33.5t1 -34.5q0 -84 -24.5 -133t-67.5 -78.5t-102.5 -47t-128.5 -35.5q-51 -14 -109.5 -23.5t-109.5 -9.5h-11q-10 2 -34.5 6t-54 9t-55.5 10t-38 8 q-14 4 -30.5 15t-30.5 11h-4l-11 -10v-4q0 -35 24.5 -63.5t51.5 -51.5q29 -20 52.5 -32.5t46 -18.5t48 -7t58.5 -1q10 0 33.5 1t25.5 1l377 57q2 0 11.5 1t13.5 1q16 0 29.5 -4t13.5 -24q0 -55 -57.5 -92.5t-135.5 -60t-156.5 -31.5t-123.5 -9q-102 0 -191.5 31.5t-156 92 t-105.5 146.5t-39 195zM287 532q0 -2 1 -8t1 -8q53 -43 113.5 -52t125.5 -9q33 0 98.5 10t129 32.5t111.5 55.5t48 80q0 33 -7 72.5t-24.5 75.5t-45 59.5t-68.5 23.5q-31 0 -79 -12t-102 -34.5t-107.5 -53.5t-97.5 -68t-70.5 -79t-26.5 -85zM356 1380q0 16 11.5 29.5 t33.5 13.5q55 0 100.5 -30.5t63.5 -69.5l121 -78q16 -4 39 -19.5t33 -23.5q4 -4 15 -12t24.5 -17.5t25 -18.5t15.5 -13q6 -10 6 -17q0 -18 -19.5 -25t-38.5 -7q-35 0 -106.5 34.5t-143 82.5t-126 96t-54.5 75z" />
<glyph unicode="&#xe9;" horiz-adv-x="1146" d="M90 465q0 117 54.5 218t141.5 177t195.5 119t216.5 43q84 0 143.5 -25.5t103.5 -70.5t76 -106.5t58 -135.5q0 -8 1 -33.5t1 -34.5q0 -84 -24.5 -133t-67.5 -78.5t-102.5 -47t-128.5 -35.5q-51 -14 -109.5 -23.5t-109.5 -9.5h-11q-10 2 -34.5 6t-54 9t-55.5 10t-38 8 q-14 4 -30.5 15t-30.5 11h-4l-11 -10v-4q0 -35 24.5 -63.5t51.5 -51.5q29 -20 52.5 -32.5t46 -18.5t48 -7t58.5 -1q10 0 33.5 1t25.5 1l377 57q2 0 11.5 1t13.5 1q16 0 29.5 -4t13.5 -24q0 -55 -57.5 -92.5t-135.5 -60t-156.5 -31.5t-123.5 -9q-102 0 -191.5 31.5t-156 92 t-105.5 146.5t-39 195zM201 1137q0 6 1 18t9 16l94 60q94 37 174 74.5t166 72.5q4 4 26.5 10.5t28.5 8.5h11q47 0 90 -17.5t43 -48.5v-15t-10 -9q-76 -29 -153 -57.5t-149 -61.5q-49 -23 -92 -54.5t-106 -33.5q-6 0 -22.5 1t-34 2t-34 2t-22.5 1q-16 6 -18 13t-2 18z M287 532q0 -2 1 -8t1 -8q53 -43 113.5 -52t125.5 -9q33 0 98.5 10t129 32.5t111.5 55.5t48 80q0 33 -7 72.5t-24.5 75.5t-45 59.5t-68.5 23.5q-31 0 -79 -12t-102 -34.5t-107.5 -53.5t-97.5 -68t-70.5 -79t-26.5 -85z" />
<glyph unicode="&#xea;" horiz-adv-x="1146" d="M90 465q0 117 54.5 218t141.5 177t195.5 119t216.5 43q84 0 143.5 -25.5t103.5 -70.5t76 -106.5t58 -135.5q0 -8 1 -33.5t1 -34.5q0 -84 -24.5 -133t-67.5 -78.5t-102.5 -47t-128.5 -35.5q-51 -14 -109.5 -23.5t-109.5 -9.5h-11q-10 2 -34.5 6t-54 9t-55.5 10t-38 8 q-14 4 -30.5 15t-30.5 11h-4l-11 -10v-4q0 -35 24.5 -63.5t51.5 -51.5q29 -20 52.5 -32.5t46 -18.5t48 -7t58.5 -1q10 0 33.5 1t25.5 1l377 57q2 0 11.5 1t13.5 1q16 0 29.5 -4t13.5 -24q0 -55 -57.5 -92.5t-135.5 -60t-156.5 -31.5t-123.5 -9q-102 0 -191.5 31.5t-156 92 t-105.5 146.5t-39 195zM268 1130q0 10 1 16.5t10 16.5q41 37 80.5 77t74.5 81q4 4 18.5 22.5t31 38t29.5 37t17 21.5q6 8 19.5 20.5t15.5 12.5t11.5 1t13.5 1q25 0 30 -3.5t25 -19.5q23 -23 38 -46.5t36 -45.5q57 -59 120.5 -108.5t121.5 -108.5q4 -8 4 -12.5v-14.5 q0 -41 -47 -41q-29 0 -52.5 13.5t-42.5 31.5l-217 207h-6q-10 0 -21.5 -17.5t-17.5 -27.5q-10 -10 -26.5 -29.5t-20.5 -23.5q-8 -8 -28.5 -29.5t-44 -44t-46 -43t-30.5 -29.5q-10 -8 -25.5 -13t-30.5 -5q-23 0 -32 24.5t-9 40.5zM287 532q0 -2 1 -8t1 -8q53 -43 113.5 -52 t125.5 -9q33 0 98.5 10t129 32.5t111.5 55.5t48 80q0 33 -7 72.5t-24.5 75.5t-45 59.5t-68.5 23.5q-31 0 -79 -12t-102 -34.5t-107.5 -53.5t-97.5 -68t-70.5 -79t-26.5 -85z" />
<glyph unicode="&#xeb;" horiz-adv-x="1146" d="M90 465q0 117 54.5 218t141.5 177t195.5 119t216.5 43q84 0 143.5 -25.5t103.5 -70.5t76 -106.5t58 -135.5q0 -8 1 -33.5t1 -34.5q0 -84 -24.5 -133t-67.5 -78.5t-102.5 -47t-128.5 -35.5q-51 -14 -109.5 -23.5t-109.5 -9.5h-11q-10 2 -34.5 6t-54 9t-55.5 10t-38 8 q-14 4 -30.5 15t-30.5 11h-4l-11 -10v-4q0 -35 24.5 -63.5t51.5 -51.5q29 -20 52.5 -32.5t46 -18.5t48 -7t58.5 -1q10 0 33.5 1t25.5 1l377 57q2 0 11.5 1t13.5 1q16 0 29.5 -4t13.5 -24q0 -55 -57.5 -92.5t-135.5 -60t-156.5 -31.5t-123.5 -9q-102 0 -191.5 31.5t-156 92 t-105.5 146.5t-39 195zM272 1290q0 4 1 16.5t1 16.5q12 35 47 51.5t66 16.5q20 0 39 -9q4 -4 16.5 -12t25.5 -18.5t25.5 -19.5t16.5 -13q25 -16 28 -49t1 -60q-2 -47 -29 -87t-74 -38q-33 0 -62.5 19.5t-53 49.5t-36 65.5t-12.5 70.5zM287 532q0 -2 1 -8t1 -8 q53 -43 113.5 -52t125.5 -9q33 0 98.5 10t129 32.5t111.5 55.5t48 80q0 33 -7 72.5t-24.5 75.5t-45 59.5t-68.5 23.5q-31 0 -79 -12t-102 -34.5t-107.5 -53.5t-97.5 -68t-70.5 -79t-26.5 -85zM352 1282q0 -12 6.5 -27.5t15.5 -29t20.5 -23.5t23.5 -10q14 0 19 12.5t7 22.5 q0 29 -17 51t-44 25q-10 0 -20.5 -4.5t-10.5 -16.5zM680 1266q0 27 17.5 48t42 36.5t52 23.5t48.5 8q20 -2 45.5 -18t46 -41t35 -52.5t14.5 -51.5q-2 -57 -41 -91t-86 -32q-25 0 -55.5 16t-57 41t-44 54.5t-17.5 58.5zM780 1253q0 -16 20.5 -29.5t33.5 -13.5q14 -2 30.5 2.5 t16.5 20.5q0 23 -22.5 38t-41.5 15q-8 0 -21.5 -12.5t-15.5 -20.5z" />
<glyph unicode="&#xec;" horiz-adv-x="407" d="M53 1421q0 16 11.5 29.5t33.5 13.5q55 0 100.5 -30.5t63.5 -69.5l121 -78q16 -4 38.5 -19.5t33.5 -23.5q4 -4 15 -12t24.5 -17.5t24.5 -18.5t16 -13q6 -10 6 -17q0 -18 -19.5 -25t-38.5 -7q-35 0 -106.5 34.5t-143 82.5t-126 96t-54.5 75zM61 213v4l45 397q-2 10 -2 40 t2 38q0 6 5.5 34t10.5 62.5t11 70.5t10 54q2 16 7.5 36t14.5 35t22.5 25.5t35.5 10.5q55 0 89 -39t34 -90q0 -41 -8 -80t-17.5 -79t-15.5 -80t-4 -83l-47 -387v-28q0 -27 5 -50.5t5 -48.5q0 -16 -14 -29.5t-31 -13.5q-43 0 -73.5 17.5t-49 46t-27 64.5t-8.5 73z" />
<glyph unicode="&#xed;" horiz-adv-x="407" d="M61 213v4l45 397q-2 10 -2 40t2 38q0 6 5.5 34t10.5 62.5t11 70.5t10 54q2 16 7.5 36t14.5 35t22.5 25.5t35.5 10.5q55 0 89 -39t34 -90q0 -41 -8 -80t-17.5 -79t-15.5 -80t-4 -83l-47 -387v-28q0 -27 5 -50.5t5 -48.5q0 -16 -14 -29.5t-31 -13.5q-43 0 -73.5 17.5 t-49 46t-27 64.5t-8.5 73zM70 1178q0 6 1 18t9 16l94 60q94 37 174 74.5t166 72.5q4 4 26.5 10.5t28.5 8.5h11q47 0 90 -17.5t43 -48.5v-15t-11 -9q-76 -29 -152.5 -57.5t-148.5 -61.5q-49 -23 -92 -54.5t-106 -33.5q-6 0 -22.5 1t-34 2t-34 2t-22.5 1q-16 6 -18 13t-2 18z " />
<glyph unicode="&#xee;" horiz-adv-x="407" d="M-100 1229q0 10 1 16t9 17q41 37 81 76.5t75 80.5q4 4 18 22.5t30.5 38t30 37t17.5 21.5q6 8 19.5 20.5t15.5 12.5t11 1t13 1q25 0 30 -3t25 -20q23 -23 38.5 -46t35.5 -46q57 -59 121 -108.5t121 -108.5q4 -8 4 -12v-15q0 -41 -47 -40q-29 0 -52.5 13t-41.5 32l-217 206 h-7q-10 0 -21 -17t-17 -28q-10 -10 -26.5 -29.5t-21.5 -23.5q-8 -8 -28.5 -29.5t-44 -44t-46 -43t-30.5 -28.5q-10 -8 -25.5 -13.5t-29.5 -5.5q-23 0 -32 25t-9 41zM61 213v4l45 397q-2 10 -2 40t2 38q0 6 5.5 34t10.5 62.5t11 70.5t10 54q2 16 7.5 36t14.5 35t22.5 25.5 t35.5 10.5q55 0 89 -39t34 -90q0 -41 -8 -80t-17.5 -79t-15.5 -80t-4 -83l-47 -387v-28q0 -27 5 -50.5t5 -48.5q0 -16 -14 -29.5t-31 -13.5q-43 0 -73.5 17.5t-49 46t-27 64.5t-8.5 73z" />
<glyph unicode="&#xef;" horiz-adv-x="407" d="M-72 1413q0 4 1 16.5t1 16.5q12 35 47 51t66 16q20 0 39 -8q4 -4 16.5 -12t25.5 -18.5t25.5 -19.5t16.5 -13q25 -16 28 -49t1 -60q-2 -47 -29 -87t-74 -38q-33 0 -62.5 19.5t-53 49.5t-36 65.5t-12.5 70.5zM8 1405q0 -12 6 -27.5t15.5 -29t20.5 -23.5t24 -10q14 0 19 12 t7 23q0 29 -17 51t-44 24q-10 0 -20.5 -4t-10.5 -16zM61 213v4l45 397q-2 10 -2 40t2 38q0 6 5.5 34t10.5 62.5t11 70.5t10 54q2 16 7.5 36t14.5 35t22.5 25.5t35.5 10.5q55 0 89 -39t34 -90q0 -41 -8 -80t-17.5 -79t-15.5 -80t-4 -83l-47 -387v-28q0 -27 5 -50.5t5 -48.5 q0 -16 -14 -29.5t-31 -13.5q-43 0 -73.5 17.5t-49 46t-27 64.5t-8.5 73zM336 1389q0 27 17.5 48t42 36.5t52 23.5t48.5 8q20 -2 45.5 -18.5t46 -41t35 -52t14.5 -52.5q-2 -57 -41 -90.5t-86 -31.5q-25 0 -55.5 16t-57 40.5t-44 54.5t-17.5 59zM436 1376q0 -16 20.5 -29.5 t32.5 -13.5q14 -2 31 2t17 21q0 23 -22.5 38t-41.5 15q-8 0 -21.5 -12.5t-15.5 -20.5z" />
<glyph unicode="&#xf0;" horiz-adv-x="1003" d="M-88 1489q0 31 28.5 49t66.5 29.5t75 14.5t55 3q59 0 116.5 -8t111.5 -35q29 -12 61.5 -40.5t65.5 -28.5q2 0 5 2t5 2l178 65h6q2 0 4 1t4 1q43 0 79 -27.5t36 -74.5q0 -37 -23.5 -53.5t-53.5 -24.5t-57.5 -14.5t-35.5 -24.5q16 -14 27.5 -32.5t21.5 -35.5 q53 -68 109.5 -137t85.5 -155q2 -8 11 -40t20.5 -69t20.5 -68.5t13 -37.5q10 -33 20.5 -57.5t17.5 -48t12.5 -51.5t5.5 -65q0 -57 -10.5 -131.5t-20.5 -126.5q-8 -29 -29.5 -51t-44.5 -39q-45 -37 -88 -68.5t-89 -55t-97.5 -38t-110.5 -14.5q-72 0 -136.5 21.5t-120.5 60.5 t-100 92t-75 119q-10 20 -20.5 53t-18.5 69t-13 69.5t-5 58.5q0 31 11 61.5t27.5 59t35 56.5t32.5 50q39 57 88 94t106.5 56.5t120 26.5t127.5 7q39 0 74 -11t70 -11q0 18 -27.5 69.5t-64.5 105.5t-73 96t-50 42h-6q-39 -16 -74 -47t-69 -61.5t-66.5 -53t-67.5 -22.5 q-39 0 -76 29.5t-37 76.5q0 27 37 58t81 61.5t81 56t37 42.5q0 12 -24.5 19t-55.5 11t-57.5 5t-32.5 1q-33 -2 -61.5 -13t-59.5 -11q-18 0 -42.5 4t-46 14.5t-36 27.5t-14.5 42zM203 446q10 -33 19 -67.5t22.5 -66t33 -58.5t54.5 -41q10 -4 26.5 -11t32 -14.5t27.5 -12.5 l12 -5h39q92 0 180 51t135 135q2 8 6.5 27.5t8.5 42.5t7 43t3 29v2v4q0 14 -2 35.5t-3 41t-2 35.5l-1 15q-4 33 -15.5 52t-29 32.5t-39 21.5t-43.5 19q-27 12 -52.5 22t-52.5 10q-88 0 -164.5 -28.5t-128.5 -104.5q-29 -41 -51 -78.5t-22 -91.5v-39z" />
<glyph unicode="&#xf1;" horiz-adv-x="1097" d="M104 893q2 35 4.5 61.5t12.5 65.5q6 23 18.5 29t34.5 4q33 -4 61.5 -30t26.5 -60l-14 -222q4 -37 5 -75.5t11 -77.5q2 0 4 -2l4 2l4 4q2 2 2.5 4t2.5 4q31 68 62.5 120t70.5 98t85 88t105 87q27 14 41 20.5t45 4.5q51 -4 89 -33t65.5 -70t45 -89t28.5 -89q23 -90 40 -188 t27 -193q-2 -4 -2 -8v-10q0 -180 47 -358q-8 -23 -18.5 -35.5t-34.5 -10.5q-35 2 -51.5 11.5t-24.5 24t-10 34t-6 43.5q-4 25 -22.5 44.5t-22.5 47.5q-16 86 -18.5 174t-7.5 176.5t-20.5 175.5t-58.5 166q-2 4 -9 15.5t-11 15.5l-5 5t-5 1q-2 0 -11.5 -3t-13.5 -7 q-39 -31 -80 -66.5t-77 -76.5t-63.5 -86t-39.5 -94q-23 -80 -38 -165t-30 -169q0 -4 -1 -23.5t-2 -42t-3 -42t-2 -25.5q-4 -27 -20.5 -43.5t-44.5 -14.5q-20 2 -41 11.5t-31 29.5q-14 25 -19.5 52.5t-8.5 57t-4 58.5t-5 57q-23 154 -49.5 306.5t-16.5 310.5zM121 1341v45 q10 41 39.5 70t67.5 47.5t82 26.5t83 8q61 0 102.5 -22.5t69 -58.5t45 -81t31.5 -90q2 -4 11.5 -17.5t13.5 -17.5l10 -10t8 -6h72q18 0 33.5 12.5t26.5 29.5t18.5 36.5t7.5 34.5q0 16 -8.5 29.5t-19.5 27.5t-19.5 27.5t-8.5 29.5q0 18 6.5 30.5t28.5 12.5q33 0 55.5 -15 t39 -37.5t28.5 -49.5t23 -49q4 -12 5 -19.5t1 -17.5q0 -37 -17.5 -71t-46 -59.5t-64.5 -39.5t-75 -14q-82 0 -132 22.5t-80 57t-45 74.5t-28.5 75t-28.5 57.5t-44 22.5q-33 0 -66 -8.5t-58.5 -24.5t-42 -41t-16.5 -59q0 -18 8.5 -33.5t19.5 -32t19.5 -32t8.5 -33.5 q0 -10 -13 -15q-4 0 -13 -1t-13 -1q-35 0 -58.5 18.5t-39 46t-21.5 59.5t-6 56z" />
<glyph unicode="&#xf2;" horiz-adv-x="1040" d="M-14 571q0 86 29.5 153t80.5 120t120 97t144 81q18 8 33 19.5t28 20.5t27.5 15t36.5 6q102 0 208 -26.5t192 -79.5t141 -133t55 -187q0 -96 -31.5 -209.5t-94 -211t-158 -163t-222.5 -65.5q-35 0 -80.5 1t-80.5 5q-106 16 -186.5 71.5t-134.5 132.5t-80.5 169t-26.5 184z M137 512q0 -84 25.5 -153.5t75 -121t122 -79t166.5 -27.5q100 0 176 58.5t127.5 143.5t76 181t24.5 172q0 55 -30 102.5t-77 81t-104 52t-115 18.5q-47 0 -110.5 -24.5t-126 -63.5t-114.5 -84t-77 -84q-16 -23 -21 -49.5t-18 -54.5v-68zM274 1405q0 16 11.5 29.5t33.5 13.5 q55 0 100.5 -31t63.5 -69l121 -78q16 -4 39 -19.5t33 -23.5q4 -4 15 -12.5t24.5 -17.5t25 -18.5t15.5 -13.5q6 -10 6 -16q0 -18 -19.5 -25.5t-37.5 -7.5q-35 0 -107 35t-143.5 83t-126 96t-54.5 75z" />
<glyph unicode="&#xf3;" horiz-adv-x="1040" d="M-14 571q0 86 29.5 153t80.5 120t120 97t144 81q18 8 33 19.5t28 20.5t27.5 15t36.5 6q102 0 208 -26.5t192 -79.5t141 -133t55 -187q0 -96 -31.5 -209.5t-94 -211t-158 -163t-222.5 -65.5q-35 0 -80.5 1t-80.5 5q-106 16 -186.5 71.5t-134.5 132.5t-80.5 169t-26.5 184z M137 512q0 -84 25.5 -153.5t75 -121t122 -79t166.5 -27.5q100 0 176 58.5t127.5 143.5t76 181t24.5 172q0 55 -30 102.5t-77 81t-104 52t-115 18.5q-47 0 -110.5 -24.5t-126 -63.5t-114.5 -84t-77 -84q-16 -23 -21 -49.5t-18 -54.5v-68zM143 1145q0 6 1 18.5t10 16.5l94 59 q94 37 174 75t166 72q4 4 26.5 10.5t28.5 8.5h10q47 0 90 -17.5t43 -48.5v-15t-10 -9q-76 -29 -152.5 -57.5t-148.5 -61.5q-49 -23 -92 -54.5t-107 -33.5q-6 0 -22 1t-33.5 2t-34 2t-22.5 1q-16 6 -18.5 13.5t-2.5 17.5z" />
<glyph unicode="&#xf4;" horiz-adv-x="1040" d="M-14 571q0 86 29.5 153t80.5 120t120 97t144 81q18 8 33 19.5t28 20.5t27.5 15t36.5 6q102 0 208 -26.5t192 -79.5t141 -133t55 -187q0 -96 -31.5 -209.5t-94 -211t-158 -163t-222.5 -65.5q-35 0 -80.5 1t-80.5 5q-106 16 -186.5 71.5t-134.5 132.5t-80.5 169t-26.5 184z M137 512q0 -84 25.5 -153.5t75 -121t122 -79t166.5 -27.5q100 0 176 58.5t127.5 143.5t76 181t24.5 172q0 55 -30 102.5t-77 81t-104 52t-115 18.5q-47 0 -110.5 -24.5t-126 -63.5t-114.5 -84t-77 -84q-16 -23 -21 -49.5t-18 -54.5v-68zM178 1163q0 10 1 16.5t9 16.5 q41 37 81 77t75 81q4 4 18.5 22.5t31 38t29.5 36.5t17 22q6 8 19.5 20t15.5 12t11.5 1t13.5 1q25 0 30 -3t25 -19q23 -23 38 -46.5t36 -45.5q57 -59 120.5 -108.5t120.5 -108.5q4 -8 4 -12.5v-14.5q0 -41 -47 -41q-29 0 -52 13.5t-42 31.5l-217 207h-6q-10 0 -21.5 -17.5 t-17.5 -27.5q-10 -10 -26.5 -29.5t-20.5 -23.5q-8 -8 -28.5 -30t-44 -44.5t-46 -43t-31.5 -28.5q-10 -8 -25.5 -13t-29.5 -5q-23 0 -32 24.5t-9 40.5z" />
<glyph unicode="&#xf5;" horiz-adv-x="1040" d="M-14 571q0 86 29.5 153t80.5 120t120 97t144 81q18 8 33 19.5t28 20.5t27.5 15t36.5 6q102 0 208 -26.5t192 -79.5t141 -133t55 -187q0 -96 -31.5 -209.5t-94 -211t-158 -163t-222.5 -65.5q-35 0 -80.5 1t-80.5 5q-106 16 -186.5 71.5t-134.5 132.5t-80.5 169t-26.5 184z M96 1350v45q10 41 40 69.5t68 47t82 26.5t83 8q61 0 102 -22.5t68.5 -58t45 -81t31.5 -90.5q2 -4 11.5 -17t13.5 -17t10 -10.5t8 -6.5h72q18 0 33.5 12.5t27 30t18.5 36.5t7 34q0 16 -8 29.5t-19.5 27.5t-19.5 27.5t-8 29.5q0 18 6 30.5t29 12.5q33 0 55 -15t38.5 -37.5 t29 -49.5t22.5 -49q4 -12 5 -19.5t1 -17.5q0 -37 -17.5 -70.5t-46 -59.5t-64.5 -40t-75 -14q-82 0 -132 22.5t-79.5 57t-45 74.5t-29 75t-28.5 57.5t-44 22.5q-33 0 -65.5 -8t-58 -24.5t-42 -41t-16.5 -59.5q0 -18 8 -33.5t19.5 -32t19.5 -32t8 -33.5q0 -10 -12 -15 q-4 0 -13.5 -1t-13.5 -1q-35 0 -58.5 18.5t-38.5 46.5t-21.5 59.5t-6.5 56.5zM137 512q0 -84 25.5 -153.5t75 -121t122 -79t166.5 -27.5q100 0 176 58.5t127.5 143.5t76 181t24.5 172q0 55 -30 102.5t-77 81t-104 52t-115 18.5q-47 0 -110.5 -24.5t-126 -63.5t-114.5 -84 t-77 -84q-16 -23 -21 -49.5t-18 -54.5v-68z" />
<glyph unicode="&#xf6;" horiz-adv-x="1040" d="M-14 571q0 86 29.5 153t80.5 120t120 97t144 81q18 8 33 19.5t28 20.5t27.5 15t36.5 6q102 0 208 -26.5t192 -79.5t141 -133t55 -187q0 -96 -31.5 -209.5t-94 -211t-158 -163t-222.5 -65.5q-35 0 -80.5 1t-80.5 5q-106 16 -186.5 71.5t-134.5 132.5t-80.5 169t-26.5 184z M137 512q0 -84 25.5 -153.5t75 -121t122 -79t166.5 -27.5q100 0 176 58.5t127.5 143.5t76 181t24.5 172q0 55 -30 102.5t-77 81t-104 52t-115 18.5q-47 0 -110.5 -24.5t-126 -63.5t-114.5 -84t-77 -84q-16 -23 -21 -49.5t-18 -54.5v-68zM174 1348q0 4 1 16t1 16 q12 35 47 51.5t66 16.5q20 0 39 -8q4 -4 16 -12.5t25.5 -18.5t26 -19.5t16.5 -13.5q25 -16 27.5 -49t0.5 -59q-2 -47 -28.5 -87t-73.5 -38q-33 0 -62.5 19.5t-53 49t-36 65.5t-12.5 71zM254 1339q0 -12 6 -27.5t15.5 -28.5t20.5 -23.5t23 -10.5q14 0 19.5 12.5t7.5 22.5 q0 29 -17.5 51.5t-43.5 24.5q-10 0 -20.5 -4.5t-10.5 -16.5zM582 1323q0 27 17 48.5t42 36.5t52.5 23.5t47.5 8.5q20 -2 46 -18.5t46.5 -41t35 -52.5t14.5 -52q-2 -57 -41 -91t-86 -32q-25 0 -55.5 16.5t-57.5 41t-44 54t-17 58.5zM682 1311q0 -16 20.5 -29.5t32.5 -13.5 q14 -2 30.5 2t16.5 20q0 23 -22.5 38t-40.5 15q-8 0 -21.5 -12t-15.5 -20z" />
<glyph unicode="&#xf8;" horiz-adv-x="1064" d="M6 479v40t2 30q12 100 74.5 190t153 154.5t199 96.5t212.5 18q25 18 41.5 51t28.5 68.5t21.5 72.5t19.5 66q2 10 10 33.5t17.5 51t16.5 51t11 34.5q8 10 26.5 15t28.5 5q39 0 72 -35t33 -71q0 -6 -5 -19.5t-12.5 -27t-13.5 -26.5t-8 -20q-25 -74 -52.5 -147.5 t-52.5 -146.5q-10 -35 -13 -53.5t-19 -53.5v-4q0 -10 14 -21.5t34.5 -22.5t40 -22.5t32.5 -21.5q72 -63 118.5 -136t46.5 -171q0 -92 -43 -164t-110.5 -126t-151.5 -92t-164 -61q-4 0 -16 -2t-14 -4q-6 0 -33 -3t-33 -5q-12 -4 -23.5 -26.5t-21.5 -51t-17 -56.5t-10 -42 q-4 -12 -9 -36t-11 -49.5t-12 -47t-8 -27.5q-4 -20 -6.5 -48t-8.5 -55.5t-17.5 -53t-31.5 -42.5h-33q-14 0 -33.5 4.5t-37 13.5t-27.5 23.5t-4 36.5l110 434q4 0 4.5 9.5t0.5 13.5v8t-5 6q-4 10 -16 17.5t-28.5 12.5t-32 9t-25.5 8l-8 9q-104 78 -152.5 180t-48.5 229z M152 416q0 -37 13 -84t38.5 -89t62.5 -70t84 -28q10 0 15.5 2.5t9.5 14.5l176 487q20 29 34.5 74t14.5 82q0 23 -19.5 40t-41.5 17q-35 0 -70 -18.5t-63 -34.5q-119 -66 -186.5 -162t-67.5 -231zM551 162q0 -16 14 -17q41 0 88 19.5t92.5 48.5t84 64.5t63.5 66.5t29 66.5 t4 70.5v60q-6 16 -24.5 44.5t-42 56.5t-48.5 48.5t-45 20.5q-8 0 -21.5 -26t-30 -64.5t-33.5 -86t-32.5 -90.5t-27 -76.5t-15.5 -45.5q-4 -10 -11 -32t-16.5 -46.5t-17.5 -45t-10 -28.5v-8z" />
<glyph unicode="&#xf9;" horiz-adv-x="1048" d="M74 557q0 53 10 108.5t6 108.5l47 209q-10 35 10.5 69.5t57.5 34.5q47 0 75.5 -26.5t28.5 -71.5q0 -51 -19.5 -108.5t-27.5 -106.5q-2 -6 -4 -24.5t-4 -39t-4 -39t-2 -24.5q-2 -4 -6 -18.5t-4 -18.5v-248q0 -23 6 -56.5t19 -64t37 -53t58 -22.5q51 0 115 42t123 102.5 t104 125t62 111.5q12 41 14 83t2 83q0 59 -9 119.5t-9 119.5q0 16 13 40t30 24q51 0 76.5 -24.5t37 -61.5t13.5 -78t2 -72v-27.5v-46v-46v-27.5q2 -35 6 -105.5t8 -146.5t7 -140.5t3 -82.5q0 -8 4.5 -37t7.5 -61.5t7 -62.5t4 -38v-29v-28q-6 -8 -27 -17q-8 -4 -20 -6h-2 q-35 0 -56.5 14.5t-35 38t-20.5 51t-9 52.5q-2 12 -6 41.5t-8 63.5t-7.5 63.5t-3.5 42.5h-8q-37 -39 -81 -79t-94 -73t-105.5 -54.5t-112.5 -21.5q-109 0 -170 57.5t-92 140.5t-39 176t-8 165zM283 1405q0 16 11 29.5t34 13.5q55 0 100 -31t64 -69l120 -78q16 -4 39 -19.5 t33 -23.5q4 -4 15.5 -12.5t24.5 -17.5t24.5 -18.5t15.5 -13.5q6 -10 6 -16q0 -18 -19.5 -25.5t-37.5 -7.5q-35 0 -106.5 35t-143.5 83t-126 96t-54 75z" />
<glyph unicode="&#xfa;" horiz-adv-x="1048" d="M74 557q0 53 10 108.5t6 108.5l47 209q-10 35 10.5 69.5t57.5 34.5q47 0 75.5 -26.5t28.5 -71.5q0 -51 -19.5 -108.5t-27.5 -106.5q-2 -6 -4 -24.5t-4 -39t-4 -39t-2 -24.5q-2 -4 -6 -18.5t-4 -18.5v-248q0 -23 6 -56.5t19 -64t37 -53t58 -22.5q51 0 115 42t123 102.5 t104 125t62 111.5q12 41 14 83t2 83q0 59 -9 119.5t-9 119.5q0 16 13 40t30 24q51 0 76.5 -24.5t37 -61.5t13.5 -78t2 -72v-27.5v-46v-46v-27.5q2 -35 6 -105.5t8 -146.5t7 -140.5t3 -82.5q0 -8 4.5 -37t7.5 -61.5t7 -62.5t4 -38v-29v-28q-6 -8 -27 -17q-8 -4 -20 -6h-2 q-35 0 -56.5 14.5t-35 38t-20.5 51t-9 52.5q-2 12 -6 41.5t-8 63.5t-7.5 63.5t-3.5 42.5h-8q-37 -39 -81 -79t-94 -73t-105.5 -54.5t-112.5 -21.5q-109 0 -170 57.5t-92 140.5t-39 176t-8 165zM250 1178q0 6 1 18t9 16l94 60q94 37 174 74.5t166 72.5q4 4 26.5 10.5 t29.5 8.5h10q47 0 90 -17.5t43 -48.5v-15t-10 -9q-76 -29 -153 -57.5t-148 -61.5q-49 -23 -92.5 -54.5t-106.5 -33.5q-6 0 -22.5 1t-34 2t-34 2t-22.5 1q-16 6 -18 13t-2 18z" />
<glyph unicode="&#xfb;" horiz-adv-x="1048" d="M74 557q0 53 10 108.5t6 108.5l47 209q-10 35 10.5 69.5t57.5 34.5q47 0 75.5 -26.5t28.5 -71.5q0 -51 -19.5 -108.5t-27.5 -106.5q-2 -6 -4 -24.5t-4 -39t-4 -39t-2 -24.5q-2 -4 -6 -18.5t-4 -18.5v-248q0 -23 6 -56.5t19 -64t37 -53t58 -22.5q51 0 115 42t123 102.5 t104 125t62 111.5q12 41 14 83t2 83q0 59 -9 119.5t-9 119.5q0 16 13 40t30 24q51 0 76.5 -24.5t37 -61.5t13.5 -78t2 -72v-27.5v-46v-46v-27.5q2 -35 6 -105.5t8 -146.5t7 -140.5t3 -82.5q0 -8 4.5 -37t7.5 -61.5t7 -62.5t4 -38v-29v-28q-6 -8 -27 -17q-8 -4 -20 -6h-2 q-35 0 -56.5 14.5t-35 38t-20.5 51t-9 52.5q-2 12 -6 41.5t-8 63.5t-7.5 63.5t-3.5 42.5h-8q-37 -39 -81 -79t-94 -73t-105.5 -54.5t-112.5 -21.5q-109 0 -170 57.5t-92 140.5t-39 176t-8 165zM186 1229q0 10 1 16t10 17q41 37 80.5 76.5t74.5 80.5q4 4 18.5 22.5t31 38 t29.5 37t18 21.5q6 8 19 20.5t15 12.5t11.5 1t13.5 1q25 0 30 -3t25 -20q23 -23 38 -46t36 -46q57 -59 120.5 -108.5t121.5 -108.5q4 -8 4 -12v-15q0 -41 -47 -40q-29 0 -52.5 13t-42.5 32l-217 206h-6q-10 0 -21.5 -17t-17.5 -28q-10 -10 -26.5 -29.5t-20.5 -23.5 q-8 -8 -28.5 -29.5t-44 -44t-46 -43t-30.5 -28.5q-10 -8 -25.5 -13.5t-30.5 -5.5q-23 0 -32 25t-9 41z" />
<glyph unicode="&#xfc;" horiz-adv-x="1048" d="M74 557q0 53 10 108.5t6 108.5l47 209q-10 35 10.5 69.5t57.5 34.5q47 0 75.5 -26.5t28.5 -71.5q0 -51 -19.5 -108.5t-27.5 -106.5q-2 -6 -4 -24.5t-4 -39t-4 -39t-2 -24.5q-2 -4 -6 -18.5t-4 -18.5v-248q0 -23 6 -56.5t19 -64t37 -53t58 -22.5q51 0 115 42t123 102.5 t104 125t62 111.5q12 41 14 83t2 83q0 59 -9 119.5t-9 119.5q0 16 13 40t30 24q51 0 76.5 -24.5t37 -61.5t13.5 -78t2 -72v-27.5v-46v-46v-27.5q2 -35 6 -105.5t8 -146.5t7 -140.5t3 -82.5q0 -8 4.5 -37t7.5 -61.5t7 -62.5t4 -38v-29v-28q-6 -8 -27 -17q-8 -4 -20 -6h-2 q-35 0 -56.5 14.5t-35 38t-20.5 51t-9 52.5q-2 12 -6 41.5t-8 63.5t-7.5 63.5t-3.5 42.5h-8q-37 -39 -81 -79t-94 -73t-105.5 -54.5t-112.5 -21.5q-109 0 -170 57.5t-92 140.5t-39 176t-8 165zM190 1389q0 4 1.5 16t1.5 16q12 35 46.5 51.5t65.5 16.5q20 0 39 -8 q4 -4 16.5 -12.5t25.5 -18.5t25.5 -19.5t16.5 -13.5q25 -16 28 -49t1 -59q-2 -47 -29 -87t-74 -38q-33 0 -62.5 19.5t-53 49t-36 65.5t-12.5 71zM270 1380q0 -12 6.5 -27.5t15.5 -28.5t20.5 -23.5t23.5 -10.5q14 0 19 12.5t7 22.5q0 29 -17 51.5t-44 24.5q-10 0 -20.5 -4.5 t-10.5 -16.5zM598 1364q0 27 17.5 48.5t42 36.5t52 23.5t48.5 8.5q20 -2 45.5 -18.5t46 -41t35 -52.5t14.5 -52q-2 -57 -41 -91t-86 -32q-25 0 -55.5 16.5t-57 41t-44 54t-17.5 58.5zM698 1352q0 -16 20.5 -29.5t33.5 -13.5q14 -2 30.5 2t16.5 20q0 23 -22.5 38t-41.5 15 q-8 0 -21.5 -12t-15.5 -20z" />
<glyph unicode="&#xfd;" horiz-adv-x="892" d="M-879 -846q0 14 7 23q4 4 12 5t10 1q4 2 14.5 2t10.5 -4q2 0 11 -7.5t13 -11.5q123 -68 252 -92t277 -12q133 12 260 55t237.5 112.5t200.5 164t149 209.5q2 4 5.5 15t7.5 15q45 135 74.5 283.5t19.5 292.5v14t-10 8q-29 -31 -61.5 -66.5t-69.5 -66.5t-78 -52.5 t-88 -25.5q-80 -6 -142.5 25t-107.5 85t-70.5 121.5t-31.5 133.5q-10 98 2 191.5t22 189.5q2 16 0 32.5t2 32.5q10 47 23.5 95.5t9.5 97.5q10 16 22.5 20t34.5 7q49 4 65.5 -26t20.5 -69q4 -41 -7 -79.5t-19 -79.5q-14 -111 -27.5 -233t-3.5 -234q2 -25 16.5 -59t37 -64.5 t50 -52t58.5 -19.5q35 2 74.5 30.5t78.5 70.5t76 94.5t64.5 103.5t45 96t21.5 74q4 127 0 254t-20 256q10 14 20 21.5t29 9.5q43 4 64.5 -28t29.5 -66l12 -86q8 -104 7 -207t12 -203l-25 -567q-4 -72 -19.5 -140.5t-35.5 -140.5q0 -4 -5 -22.5t-10.5 -39t-9.5 -39t-6 -22.5 q-27 -78 -79 -150.5t-118.5 -136t-141.5 -117t-144 -89.5q-68 -29 -129.5 -51.5t-122.5 -41t-124.5 -31t-135.5 -18.5q-76 -6 -156 -5t-155.5 17.5t-144 50.5t-120.5 93q-10 10 -24.5 23.5t-16.5 29.5zM160 1260q0 6 1 18t9 16l94 60q94 37 174 74.5t166 72.5q4 4 26.5 10.5 t28.5 8.5h11q47 0 90 -17.5t43 -48.5v-15t-10 -9q-76 -29 -153 -58t-148 -61q-49 -23 -92.5 -54.5t-106.5 -33.5q-6 0 -22.5 1t-34 2t-34 2t-22.5 1q-16 6 -18 13t-2 18z" />
<glyph unicode="&#xfe;" horiz-adv-x="780" d="M33 430q0 18 8 25.5t18 21.5q27 45 25 92t2 95q0 12 3 63t6 109.5t5 109.5t2 66q6 111 27 225.5t35 224.5q12 20 22.5 24.5t28.5 4.5q51 0 93 -32t42 -79q0 -45 -9 -89t-21.5 -88t-21.5 -89t-9 -90q0 -6 1 -10t7 -13q86 8 156.5 -8t131 -50t108.5 -83t87 -108 q20 -31 37 -63t17 -66q0 -57 -35 -109.5t-89.5 -93.5t-120 -65.5t-128.5 -24.5q-47 0 -85 15t-85 15q-20 0 -29 -6q-2 -8 -5 -31.5t-3 -29.5q0 -16 -1 -56t-1 -84t1 -84t1 -55q-10 -33 -43 -32q-139 0 -143 120v267q-23 16 -29 27.5t-6 33.5zM268 582.5q0 -13.5 1 -27.5 t1 -27.5v-19.5q6 0 22.5 -3t35 -7t35 -7.5t22.5 -5.5q4 -2 25.5 -7t25.5 -7h6h4q27 12 62 30.5t66.5 41t53 50.5t21.5 60q0 31 -22.5 66t-56 64.5t-73.5 50t-77 20.5q-12 0 -36 -5t-46.5 -12.5t-39.5 -17.5t-17 -22q-10 -53 -11.5 -97.5t-1.5 -97.5v-19.5z" />
<glyph unicode="&#xff;" horiz-adv-x="892" d="M-879 -846q0 14 7 23q4 4 12 5t10 1q4 2 14.5 2t10.5 -4q2 0 11 -7.5t13 -11.5q123 -68 252 -92t277 -12q133 12 260 55t237.5 112.5t200.5 164t149 209.5q2 4 5.5 15t7.5 15q45 135 74.5 283.5t19.5 292.5v14t-10 8q-29 -31 -61.5 -66.5t-69.5 -66.5t-78 -52.5 t-88 -25.5q-80 -6 -142.5 25t-107.5 85t-70.5 121.5t-31.5 133.5q-10 98 2 191.5t22 189.5q2 16 0 32.5t2 32.5q10 47 23.5 95.5t9.5 97.5q10 16 22.5 20t34.5 7q49 4 65.5 -26t20.5 -69q4 -41 -7 -79.5t-19 -79.5q-14 -111 -27.5 -233t-3.5 -234q2 -25 16.5 -59t37 -64.5 t50 -52t58.5 -19.5q35 2 74.5 30.5t78.5 70.5t76 94.5t64.5 103.5t45 96t21.5 74q4 127 0 254t-20 256q10 14 20 21.5t29 9.5q43 4 64.5 -28t29.5 -66l12 -86q8 -104 7 -207t12 -203l-25 -567q-4 -72 -19.5 -140.5t-35.5 -140.5q0 -4 -5 -22.5t-10.5 -39t-9.5 -39t-6 -22.5 q-27 -78 -79 -150.5t-118.5 -136t-141.5 -117t-144 -89.5q-68 -29 -129.5 -51.5t-122.5 -41t-124.5 -31t-135.5 -18.5q-76 -6 -156 -5t-155.5 17.5t-144 50.5t-120.5 93q-10 10 -24.5 23.5t-16.5 29.5zM51 1430q0 4 1 16t1 16q12 35 47 51.5t66 16.5q20 0 39 -8 q4 -4 16 -12.5t25.5 -18.5t26 -19.5t16.5 -13.5q25 -16 27.5 -49t0.5 -59q-2 -47 -28.5 -87t-73.5 -38q-33 0 -62.5 19.5t-53 49t-36 65.5t-12.5 71zM131 1421q0 -12 6 -27.5t15.5 -28.5t20.5 -23.5t24 -10.5q14 0 19 12.5t7 22.5q0 29 -17.5 51.5t-43.5 24.5 q-10 0 -20.5 -4.5t-10.5 -16.5zM459 1405q0 27 17.5 48.5t42 36.5t52 23.5t47.5 8.5q20 -2 46 -18.5t46.5 -41t35 -52.5t14.5 -52q-2 -57 -41 -91t-86 -32q-25 0 -55.5 16.5t-57 41t-44 54t-17.5 58.5zM559 1393q0 -16 20.5 -29.5t32.5 -13.5q14 -2 30.5 2t16.5 20 q0 23 -22.5 38t-40.5 15q-8 0 -21.5 -12t-15.5 -20z" />
<glyph unicode="&#x152;" horiz-adv-x="2220" d="M0 782q0 78 6 157t23 155q8 37 17 80t21.5 87t27 87t32.5 77q66 127 160 213t207 148q20 12 59 22.5t82 18.5t83 13t62 5h54q45 -14 95 -43.5t99 -66.5t92 -79t72 -83q8 -8 20.5 -38t25.5 -61.5t24.5 -57t15.5 -25.5h6q12 8 21.5 27.5t16.5 42t14 44t16 35.5q0 2 9 16.5 t19.5 33t21.5 35.5t17 28q0 2 2 4q0 2 1 3t1 3q8 6 19.5 15.5t22 19.5t18.5 17l8 7q2 2 17.5 11.5t35 19.5t39 21.5t29.5 17.5q51 31 114.5 63.5t120.5 32.5q53 0 92 -18.5t91 -34.5q20 -6 47.5 -9t53.5 -13.5t44 -31t18 -59.5q0 -47 -28.5 -58t-61.5 -11q-29 0 -54.5 8 t-50 18.5t-49 18.5t-51.5 8q-66 0 -117.5 -34t-109.5 -64q-51 -29 -90 -57.5t-69.5 -65.5t-52 -87t-40.5 -120q-2 -4 -6 -24.5t-9 -46t-10 -50t-8 -37.5q0 -4 -3 -30.5t-3 -38.5v-7q27 0 49.5 5.5t49.5 9.5q47 10 101 10h103h23.5t38 -1t38 -1h23.5q31 -6 59.5 -27.5 t28.5 -62.5q0 -45 -34.5 -63.5t-86 -22.5t-111.5 -1t-111.5 -2t-86 -23.5t-32.5 -65.5v-256q0 -4 -1 -22.5t-2.5 -39t-2.5 -39t-3 -22.5v-10q0 -57 23.5 -100.5t60.5 -71t82 -42t88 -14.5q4 0 12.5 2t12.5 2q12 2 44 9.5t66.5 14.5t67.5 14t45 12q39 12 86 33.5t88 21.5 q18 0 34.5 -10.5t30 -27.5t21.5 -37.5t8 -39.5q0 -18 -31.5 -35.5t-79.5 -35t-105.5 -32t-111 -25.5t-93 -17t-52.5 -6q-66 0 -124 22.5t-117 40.5q-70 23 -111 77t-62.5 123.5t-27.5 147.5t-2 150q-8 0 -8 -8q-20 -41 -31.5 -77t-28.5 -81q-35 -88 -83 -151.5 t-108.5 -109.5t-131 -80t-148.5 -61q-39 -14 -69.5 -16t-69.5 -2q-117 0 -200 56.5t-167 146.5q-109 113 -170 260t-61 319zM147 748q0 -57 7.5 -108.5t25.5 -107.5q16 -51 58.5 -115.5t96.5 -121.5t114.5 -97t113.5 -40q66 0 122 27.5t120 50.5q74 31 126 78.5t90 110 t66.5 136.5t53.5 158q25 76 40 153.5t15 159.5q0 41 -2 83t-14 83q-6 18 -17.5 52t-24 71t-22.5 66.5t-12 37.5q-25 70 -74 114t-104 79h-8q-14 0 -26.5 -5t-27.5 -5q-14 0 -24.5 8t-26.5 12q-6 0 -21.5 3t-33 5t-31.5 4t-18 2q-6 0 -11 3q-4 0 -7 1t-7 1q-23 0 -58.5 -3.5 t-52.5 -9.5q-29 -10 -78 -49t-99 -87t-91 -97t-51 -80q-2 -8 -7 -22.5t-10.5 -28t-9.5 -24.5t-4 -13q-33 -119 -54.5 -240.5t-21.5 -244.5z" />
<glyph unicode="&#x153;" horiz-adv-x="1777" d="M-8 506q0 211 76.5 399.5t240.5 315.5q8 6 26.5 18t39 22.5t40 18.5t31.5 8q18 0 52 -12t70 -30.5t65 -40t37 -42.5q2 -4 5 -26.5t3 -26.5q4 -14 20.5 -22.5t26.5 -18.5q35 -29 78 -70t78 -75q6 -6 21.5 -23.5t30.5 -37t28.5 -34t19.5 -14.5h2q35 35 73 69t80 59.5 t88 41.5t95 16q47 0 94 -14t85 -44t61.5 -74t23.5 -101q0 -72 -47 -129t-113.5 -98t-140.5 -63.5t-127 -22.5q-23 0 -44 4t-42 4q-29 0 -38 -20.5t-9 -45.5q0 -59 16.5 -118.5t49 -106.5t79.5 -76.5t109 -29.5q117 0 239.5 32.5t233.5 69.5q10 -4 12 -20.5t2 -28.5 q0 -49 -59 -87t-136 -63.5t-152 -39t-105 -13.5q-29 0 -61.5 5t-66.5 14.5t-65 23.5t-55 33q-33 25 -56.5 50.5t-45.5 59.5q-4 6 -15.5 29t-25 48.5t-25.5 45t-21 19.5h-8q-43 -37 -96 -80t-111.5 -80t-122 -60.5t-124.5 -23.5q-113 0 -193 37t-130 104.5t-73.5 160.5 t-23.5 204zM143 436q0 -49 10.5 -99t34 -91t60.5 -67.5t92 -26.5q80 0 174 43t175 112.5t134.5 159.5t53.5 186q0 53 -26 97.5t-62.5 82t-77.5 70.5t-72 66l-22.5 22.5t-38 40t-37 40t-21.5 22.5q-10 12 -15 14t-20 2q-35 0 -58.5 -22.5t-47.5 -45.5 q-123 -117 -179.5 -271.5t-56.5 -334.5zM1083 612q33 0 91.5 12.5t113.5 37t96 61.5t41 86q0 23 -15.5 32t-31.5 9q-35 0 -85 -22.5t-96 -57.5t-80 -77t-34 -81z" />
<glyph unicode="&#x178;" horiz-adv-x="1114" d="M0 831v93q0 223 44 450.5t101 444.5q8 20 21.5 22t32.5 2q18 0 40.5 -6t42 -18.5t32 -29.5t12.5 -38v-2q-25 -109 -50.5 -219.5t-47 -221t-35 -223t-13.5 -223.5q0 -80 13.5 -171t50.5 -169q2 0 11 -1t11 -1q25 0 54.5 11.5t59.5 27.5t56.5 33.5t42.5 32.5 q92 76 155.5 150.5t115.5 176.5q2 4 10 19.5t17 32t16.5 33t9.5 24.5q20 45 18 91t2 93q2 20 6.5 75.5t10.5 120t11 124t9 86.5q2 25 13.5 56.5t48.5 31.5q57 0 85.5 -33t39 -78t10.5 -93v-81q0 -80 -15.5 -158.5t-29.5 -160.5v-396v-395q2 -31 5 -110.5t7 -170t8 -170 t6 -112.5q10 -59 14.5 -120.5t4.5 -125.5q0 -20 -5 -49t-28 -39h-39q-53 0 -86 18.5t-39 67.5q0 10 1 33.5t1 50.5t-1 50.5t-1 33.5q-2 12 -7 60.5t-9 103.5t-8.5 103t-6.5 61q-6 164 -6 328.5v330.5h-10q-29 -35 -88 -91t-131 -110.5t-146.5 -93.5t-132.5 -39 q-98 0 -153.5 36t-85 91.5t-41.5 125t-25 136.5q-10 51 -10 88zM297 2126q0 4 1 16t1 17q12 35 47 51t66 16q20 0 39 -8q4 -4 16 -12t25.5 -18.5t25.5 -19.5t17 -14q25 -16 27.5 -48.5t0.5 -59.5q-2 -47 -28.5 -87t-73.5 -38q-33 0 -62.5 19.5t-53 49t-36 65.5t-12.5 71z M377 2118q0 -12 6 -27.5t15.5 -29t20.5 -23.5t23 -10q14 0 19.5 12t7.5 22q0 29 -17.5 51.5t-43.5 24.5q-10 0 -20.5 -4t-10.5 -16zM705 2101q0 27 17 48.5t41.5 37t52.5 23.5t48 8q20 -2 46 -18.5t46.5 -41t35 -52t14.5 -52.5q-2 -57 -41 -91t-86 -32q-25 0 -55.5 16.5 t-57.5 41t-44 54t-17 58.5zM805 2089q0 -16 20.5 -29.5t32.5 -13.5q14 -2 30.5 2t16.5 20q0 23 -22.5 38.5t-40.5 15.5q-8 0 -21.5 -12.5t-15.5 -20.5z" />
<glyph unicode="&#x2c6;" horiz-adv-x="1388" d="M334 1073q0 10 1 16.5t9 16.5q41 37 81 77t75 81q4 4 18 22.5t30.5 37.5t30 36.5t17.5 21.5q6 8 19.5 20.5t15.5 12.5t11 1t13 1q25 0 30 -3t26 -19q23 -23 38 -46.5t35 -45.5q57 -59 121 -108.5t121 -109.5q4 -8 4 -12v-14q0 -41 -47 -41q-29 0 -52.5 13t-41.5 32 l-217 207h-6q-10 0 -21.5 -17.5t-17.5 -27.5q-10 -10 -26.5 -29.5t-20.5 -24.5q-8 -8 -29 -29.5t-44.5 -44t-46 -43t-30.5 -28.5q-10 -8 -25.5 -13t-29.5 -5q-23 0 -32 24.5t-9 40.5z" />
<glyph unicode="&#x2dc;" horiz-adv-x="1658" d="M326 1219v45q10 41 39.5 69.5t67.5 47t82 26.5t83 8q61 0 102 -22.5t69 -58.5t45 -81t32 -90q2 -4 11 -17t13 -18q4 -4 10.5 -10t8.5 -6h72q18 0 33.5 12.5t26.5 29.5t18.5 36.5t7.5 34.5q0 16 -8.5 29.5t-19.5 27.5t-19.5 27.5t-8.5 29.5q0 18 6.5 30.5t28.5 12.5 q33 0 55.5 -15t39 -37.5t28.5 -49.5t22 -49q4 -12 5.5 -19.5t1.5 -17.5q0 -37 -17.5 -70.5t-46.5 -59.5t-64.5 -40t-74.5 -14q-82 0 -132 22.5t-80 57t-45.5 74.5t-28.5 75t-28.5 57.5t-44.5 22.5q-33 0 -65.5 -8t-58 -24.5t-42 -41t-16.5 -59.5q0 -18 8.5 -33.5t19.5 -32 t19 -32t8 -33.5q0 -10 -12 -15q-4 0 -13 -1t-13 -1q-35 0 -58.5 18.5t-39 46t-21.5 59.5t-6 57z" />
<glyph unicode="&#x2000;" horiz-adv-x="1223" />
<glyph unicode="&#x2001;" horiz-adv-x="2447" />
<glyph unicode="&#x2002;" horiz-adv-x="1223" />
<glyph unicode="&#x2003;" horiz-adv-x="2447" />
<glyph unicode="&#x2004;" horiz-adv-x="815" />
<glyph unicode="&#x2005;" horiz-adv-x="611" />
<glyph unicode="&#x2006;" horiz-adv-x="407" />
<glyph unicode="&#x2007;" horiz-adv-x="407" />
<glyph unicode="&#x2008;" horiz-adv-x="305" />
<glyph unicode="&#x2009;" horiz-adv-x="489" />
<glyph unicode="&#x200a;" horiz-adv-x="135" />
<glyph unicode="&#x2010;" horiz-adv-x="974" d="M106 530q0 27 6.5 59t28.5 32q43 0 87 -6.5t87 -8.5q49 -4 123 -8t146 -8q82 -6 172 -8l41 -64q6 -8 6 -30.5v-28.5q0 -4 -1 -8.5t-1 -8.5v-10l-15 -22q-2 -2 -6 -2h-12q-154 0 -303 15t-303 9q-29 4 -42.5 30.5t-13.5 67.5z" />
<glyph unicode="&#x2011;" horiz-adv-x="974" d="M106 530q0 27 6.5 59t28.5 32q43 0 87 -6.5t87 -8.5q49 -4 123 -8t146 -8q82 -6 172 -8l41 -64q6 -8 6 -30.5v-28.5q0 -4 -1 -8.5t-1 -8.5v-10l-15 -22q-2 -2 -6 -2h-12q-154 0 -303 15t-303 9q-29 4 -42.5 30.5t-13.5 67.5z" />
<glyph unicode="&#x2012;" horiz-adv-x="974" d="M106 530q0 27 6.5 59t28.5 32q43 0 87 -6.5t87 -8.5q49 -4 123 -8t146 -8q82 -6 172 -8l41 -64q6 -8 6 -30.5v-28.5q0 -4 -1 -8.5t-1 -8.5v-10l-15 -22q-2 -2 -6 -2h-12q-154 0 -303 15t-303 9q-29 4 -42.5 30.5t-13.5 67.5z" />
<glyph unicode="&#x2013;" horiz-adv-x="1301" d="M106 530q0 27 9.5 59t41.5 32q64 0 128.5 -6.5t127.5 -8.5q72 -4 180.5 -8t214.5 -8q121 -6 253 -8l60 -64q9 -8 9 -30.5v-28.5q0 -4 -1.5 -8.5t-1.5 -8.5v-10l-22 -22q-3 -2 -9 -2h-17q-227 0 -445.5 15t-445.5 9q-42 4 -62 30.5t-20 67.5z" />
<glyph unicode="&#x2014;" horiz-adv-x="2325" d="M106 530q0 27 19 59t84 32q126 0 255.5 -6.5t255.5 -8.5q144 -4 361.5 -8t429.5 -8q240 -6 505 -8l120 -64q18 -8 18 -30.5v-28.5q0 -4 -3 -8.5t-3 -8.5v-10l-44 -22q-6 -2 -18 -2h-35q-452 0 -890 15t-890 9q-86 4 -125.5 30.5t-39.5 67.5z" />
<glyph unicode="&#x2018;" horiz-adv-x="507" d="M92 1309q0 27 24.5 67.5t60.5 80.5t75 68.5t70 28.5q18 0 39.5 -5t41 -16t33 -28t13.5 -37q0 -23 -29 -45t-65 -47.5t-64.5 -54.5t-28.5 -61q0 -27 33 -35t73 -19.5t72.5 -33t32.5 -74.5q0 -4 -1 -15.5t-1 -15.5q-16 -31 -53 -31q-53 0 -111.5 19.5t-105.5 55.5t-78 86 t-31 112z" />
<glyph unicode="&#x2019;" horiz-adv-x="507" d="M92 1493q0 4 1 15.5t1 15.5q14 31 53 30q53 0 110.5 -19t106 -55t79 -86.5t30.5 -111.5q0 -27 -24.5 -67.5t-60.5 -80.5t-75 -69t-69 -29q-18 0 -40 5.5t-41.5 16.5t-32.5 26t-13 38q0 20 28.5 44t64.5 49.5t64.5 54t28.5 61.5q0 27 -32.5 35t-72.5 19.5t-73 33t-33 74.5 z" />
<glyph unicode="&#x201a;" horiz-adv-x="507" d="M117 117q0 4 1 15t1 15q14 31 53 31q53 0 110.5 -19.5t105.5 -55t79 -86t31 -111.5q0 -27 -24.5 -68t-60.5 -81t-75 -68.5t-70 -28.5q-18 0 -39.5 5t-41 16.5t-33 26.5t-13.5 38q0 20 29 44t64.5 49.5t64.5 54t29 61.5q0 27 -33 35t-73 19t-72.5 32.5t-32.5 75.5z" />
<glyph unicode="&#x201c;" horiz-adv-x="679" d="M55 1286q0 43 12.5 87t36 80t55 59.5t68.5 23.5q29 0 55.5 -23.5t26.5 -58.5q0 -25 -19.5 -43t-43 -39.5t-43 -51.5t-19.5 -73q0 -55 19.5 -76.5t47.5 -33t57.5 -24.5t47.5 -50q6 -12 9.5 -18.5t3.5 -16.5q0 -45 -31 -57q-4 0 -19.5 -1t-19.5 -1q-47 0 -90 28.5t-78 73.5 t-55.5 102.5t-20.5 112.5zM391 1286q0 39 14.5 78t38 69.5t53 49t62.5 18.5q29 0 57.5 -20.5t28.5 -61.5q0 -16 -20.5 -32.5t-45 -36t-45 -45t-20.5 -60.5q0 -2 1 -7t1 -7q4 -6 20.5 -25.5t20.5 -25.5q14 -16 33.5 -23.5t37 -18t30 -31t12.5 -63.5q0 -23 -12.5 -35 t-28.5 -12q-35 0 -77 29t-78 72t-59.5 94t-23.5 94z" />
<glyph unicode="&#x201d;" horiz-adv-x="679" d="M55 1460q0 23 12.5 35t28.5 12q35 0 77 -28.5t78 -71.5t59.5 -94t23.5 -94q0 -41 -14.5 -79t-38 -69t-53 -49t-62.5 -18q-29 0 -57.5 20t-28.5 61q0 16 20.5 33t45 36.5t45 45t20.5 60.5q0 2 -1 7t-1 7q-4 6 -20.5 25.5t-20.5 25.5q-14 16 -33.5 23.5t-37 17.5t-30 30.5 t-12.5 63.5zM356 1477q0 45 31 57q4 0 19.5 1t19.5 1q45 0 89 -28.5t79 -73.5t55.5 -102.5t20.5 -112.5q0 -43 -12.5 -87.5t-36 -80t-55 -59t-68.5 -23.5q-29 0 -55.5 23.5t-26.5 58.5q0 25 19.5 43t43 39.5t43 51t19.5 72.5q0 55 -19.5 77t-47.5 33t-57.5 24.5t-47.5 50.5 q-6 12 -9.5 18t-3.5 17z" />
<glyph unicode="&#x201e;" horiz-adv-x="679" d="M63 117q0 23 12.5 35t28.5 12q35 0 77 -29t78 -72t59.5 -94t23.5 -94q0 -41 -14.5 -79t-38 -68.5t-53 -49t-62.5 -18.5q-29 0 -57.5 20.5t-28.5 61.5q0 16 20.5 32.5t45 36t45 45t20.5 60.5q0 2 -1 7t-1 7q-4 6 -20.5 25.5t-20.5 26.5q-14 16 -33.5 23t-37 17.5t-30 31 t-12.5 63.5zM365 133q0 45 30 57q4 0 19.5 1.5t19.5 1.5q45 0 89 -29t79 -74t55.5 -102.5t20.5 -112.5q0 -43 -12.5 -87t-36 -80t-55 -59.5t-68.5 -23.5q-29 0 -55.5 23.5t-26.5 58.5q0 25 19.5 43.5t43 40t43 51t19.5 72.5q0 55 -19.5 76.5t-47 33t-57.5 24.5t-48 50 q-6 12 -9 18.5t-3 16.5z" />
<glyph unicode="&#x2026;" horiz-adv-x="1449" d="M135 166q0 14 7.5 32.5t19.5 34t28.5 25.5t34.5 10q25 0 50.5 -16t48 -41t37 -52.5t14.5 -52.5q0 -35 -18.5 -70.5t-59.5 -35.5q-31 0 -60.5 14.5t-52 38t-36 53t-13.5 60.5zM618 166q0 14 7.5 32.5t19.5 34t28.5 25.5t35.5 10q25 0 50 -16t47.5 -41t37 -52.5t14.5 -52.5 q0 -35 -18.5 -70.5t-59.5 -35.5q-31 0 -60.5 14.5t-52 38t-36 53t-13.5 60.5zM1102 166q0 14 7 32.5t19.5 34t29 25.5t34.5 10q25 0 50.5 -16t48 -41t36.5 -52.5t14 -52.5q0 -35 -18 -70.5t-59 -35.5q-31 0 -60.5 14.5t-52.5 38t-36 53t-13 60.5z" />
<glyph unicode="&#x202f;" horiz-adv-x="489" />
<glyph unicode="&#x205f;" horiz-adv-x="611" />
<glyph unicode="&#x20ac;" horiz-adv-x="1216" d="M-14 844q0 29 18.5 37t42 9t47 4t33.5 19q27 37 40 79t40 79q57 88 139 155.5t178.5 113.5t205 70t218.5 24q18 0 50 -2t64 -10.5t54.5 -24t22.5 -41.5q0 -12 -7.5 -28.5t-25.5 -16.5q-20 0 -46 9t-46 11q-4 0 -13.5 -3t-13.5 -3q-100 -12 -184 -31.5t-158 -51.5 t-138.5 -83t-125.5 -129q-16 -20 -33.5 -43.5t-17.5 -50.5q0 -20 13 -21.5t30 -1.5q63 0 124.5 4.5t127.5 4.5h60.5t47 -5.5t41 -17.5t41.5 -37v-2q0 -35 -24.5 -55.5t-59.5 -20.5q-23 0 -47.5 3.5t-46.5 3.5q-86 0 -174 -7.5t-170 -13.5q-12 0 -16.5 -9t-6.5 -21.5t-1 -25 t1 -16.5v-40.5t9 -39.5q4 -12 42.5 -19t87 -10t91.5 -5t55 -2q27 -2 74 0t94 -3.5t82 -23.5t35 -61q0 -12 -11.5 -23.5t-21.5 -19.5q-39 -6 -66.5 -7.5t-62.5 -1.5q-92 0 -182 10.5t-183 10.5q0 -4 -3 -16.5t1 -18.5q0 -2 6.5 -10t8.5 -10q33 -53 73.5 -107.5t90 -97.5 t109.5 -71t134 -28q76 0 145.5 12.5t141.5 30.5q23 6 45 14.5t47 8.5q35 0 70 -19.5t35 -58.5q0 -27 -18.5 -41t-45.5 -20t-54.5 -8.5t-47.5 -4.5q-68 -16 -132.5 -34.5t-136.5 -18.5q-94 0 -180 27.5t-159.5 76t-135 111t-106.5 133.5q-23 35 -40.5 75t-41.5 71 q-12 14 -32.5 23.5t-39 19.5t-33 22t-14.5 35q0 27 16.5 35t37 11t35.5 6t15 20l-8 102q-2 18 -19.5 26.5t-38 16.5t-36.5 22.5t-16 45.5z" />
<glyph unicode="&#x2122;" horiz-adv-x="1458" d="M29 1356q-2 16 8 27.5t24.5 18.5t28.5 13t21 15q10 14 14 39.5t6 41.5l25 422q4 35 29.5 50.5t47.5 15.5q18 0 35 -9.5t23 -31.5v-49q0 -100 -10.5 -199.5t-10.5 -200.5q0 -4 -1 -16t7 -14h23h23q6 0 30.5 3t52 5t53 5t31.5 3h3q29 0 51 -9t49 -24l2 -2q6 0 27.5 21.5 t58.5 21.5h31q23 -23 25.5 -45t19.5 -45h4h4l61 82q14 16 44 16h46q35 0 68 -19t55 -54q8 -14 9.5 -30.5t15.5 -27.5q29 59 62.5 103.5t93.5 44.5q49 0 79.5 -37t49 -89t30 -111.5t23.5 -104.5v-15q8 -49 20.5 -106t12.5 -111q0 -14 -5.5 -40.5t-21.5 -26.5h-70 q-10 0 -19 15.5t-13 25.5q-2 14 -9.5 51t-15.5 78t-15.5 77.5t-11.5 51.5q-4 14 -9 35.5t-9 43t-8 37.5l-4 15l-15 16q-4 -4 -6 -11t-6 -13q-25 -94 -43 -172t-33 -170q-12 -66 -65 -66q-20 0 -42 14.5t-34 36.5q0 6 -4 20.5t-8 31t-7.5 32t-5.5 21.5q-4 16 -9 64t-11 98.5 t-13.5 90.5t-15.5 40q-14 0 -25.5 -29t-19.5 -72t-14 -96t-12.5 -103.5t-14.5 -90t-18 -58.5q-6 -8 -16.5 -8h-18.5q-39 0 -64.5 25.5t-42.5 72.5h-12q-72 -31 -145.5 -56.5t-151.5 -25.5q-47 0 -78.5 15.5t-76.5 50.5q-25 18 -38.5 66.5t-20.5 99.5t-10 91t-7 44l-76 47 q-4 2 -8 14.5t-6 18.5zM264 1264q0 -41 1 -80t10.5 -69t30 -48t59.5 -18q16 0 59 6t87 20.5t78 38t34 57.5v33q-2 14 -4.5 40t-4.5 50.5t-4 43.5l-2 18l-6 18q-16 -10 -24.5 -14t-20.5 -4q-16 0 -32.5 5t-35.5 5h-26q-6 0 -25.5 -4t-42 -8t-43 -7.5t-30.5 -5.5 q-23 -6 -40.5 -25t-17.5 -52z" />
<glyph unicode="&#x25fc;" horiz-adv-x="1075" d="M0 0v1075h1075v-1075h-1075z" />
<glyph unicode="&#xfb01;" horiz-adv-x="1030" d="M0 614q0 6 4 23.5t19 17.5h141q4 0 17.5 3.5t13.5 13.5q0 2 -2 2q-25 135 -43.5 257t-18.5 253q0 199 62.5 390t216.5 345q20 20 54 36.5t72.5 30t76.5 22.5t67 15q4 0 18.5 2.5t32 5.5t33.5 6t24 5h5q88 0 159.5 -20.5t122.5 -59.5t80 -97.5t29 -133.5v-15 q-4 -14 -8.5 -33.5t-10.5 -38t-14 -30.5t-23 -12q-35 0 -63.5 17t-28.5 48q0 23 4 44.5t4 45.5q0 82 -37.5 119t-140.5 37q-49 0 -88 -10.5t-82 -20.5q-139 -43 -220 -133t-124 -201.5t-55 -232.5t-12 -228q0 -100 19.5 -207.5t41.5 -205.5q4 -2 5 -9.5t5 -9.5q25 -6 59 -8 t68.5 -5t66.5 -10t54 -22q0 20 2 25q0 6 5 33.5t10.5 62.5t11.5 71t10 54q2 16 7 35.5t14.5 35t22.5 26t36 10.5q55 0 89 -39t34 -90q0 -37 -7.5 -75t-15.5 -76t-15 -76t-7 -77v-18l-47 -387v-29q0 -27 5 -50t5 -48q0 -16 -14.5 -29.5t-30.5 -13.5q-43 0 -74 17.5t-49 46 t-26.5 64.5t-8.5 73v4l39 340h-16q-51 0 -101.5 5t-103.5 5v-535l-17 -20q-6 -2 -12 -2h-16q-49 0 -73.5 18.5t-35 46t-10.5 61.5v64v93q0 4 2 26.5t3 47t3 47t2 26.5q0 39 -6 84t-10 53q-25 0 -60.5 3t-68.5 13.5t-56.5 29t-23.5 48.5z" />
<glyph unicode="&#xfb02;" horiz-adv-x="1245" d="M0 614q0 6 4 23.5t19 17.5h141q4 0 17.5 3.5t13.5 13.5q0 2 -2 2q-25 135 -43.5 257t-18.5 253q0 199 62.5 390t216.5 345q20 20 54 36.5t72.5 30t76.5 22.5t67 15q4 0 18.5 2.5t32 5.5t33.5 6t24 5h5q127 0 219 -43v2q6 23 20.5 30t34.5 7q57 0 88 -44t31 -104 q0 -27 1 -93t3 -141t3 -141.5t1 -93.5v-18q0 -123 -8 -245t-17.5 -243.5t-17.5 -243.5t-8 -245q0 -29 -1 -64.5t-1 -72.5q0 -59 4 -114.5t14 -92.5q10 -4 14.5 -13.5t4.5 -15.5q0 -31 -15.5 -56.5t-44.5 -25.5q-6 0 -24.5 4.5t-40 13.5t-40 25.5t-20.5 38.5q-2 8 -4 32 t-5 48.5t-5 47t-2 32.5v42t-1 64.5t-1 65.5v43q0 145 7 290.5t15.5 290t15.5 290t7 290.5q0 70 -3 139.5t-5 141.5q-37 43 -146 43q-49 0 -88 -10.5t-82 -20.5q-139 -43 -220 -133t-124 -201.5t-55 -232.5t-12 -228q0 -100 19.5 -207.5t41.5 -205.5q4 -2 5 -9.5t5 -9.5 q35 -6 84 -8t93.5 -11t76 -29.5t31.5 -63.5q0 -23 -17.5 -33t-39.5 -10q-51 0 -101.5 5t-103.5 5v-535l-17 -20q-6 -2 -12 -2h-16q-49 0 -73.5 18.5t-35 46t-10.5 61.5v64v93q0 4 2 26.5t3 47t3 47t2 26.5q0 39 -6 84t-10 53q-25 0 -60.5 3t-68.5 13.5t-56.5 29t-23.5 48.5z " />
</font>
</defs>
</svg>
